<svg xmlns="http://www.w3.org/2000/svg" xmlns:xlink="http://www.w3.org/1999/xlink" width="500" zoomAndPan="magnify" viewBox="0 0 375 374.999991" height="500" preserveAspectRatio="xMidYMid meet" version="1.0"><defs><clipPath id="1ecf02483a"><path d="M 196 124 L 197.25 124 L 197.25 125 L 196 125 Z M 196 124 " clip-rule="nonzero"/></clipPath><clipPath id="33093fa2c8"><path d="M 188 123.890625 L 197 123.890625 L 197 132 L 188 132 Z M 188 123.890625 " clip-rule="nonzero"/></clipPath><clipPath id="3bd0f987a4"><path d="M 188 131 L 189 131 L 189 132.890625 L 188 132.890625 Z M 188 131 " clip-rule="nonzero"/></clipPath><clipPath id="38c1fe3ae9"><path d="M 187.5 131 L 189 131 L 189 132.890625 L 187.5 132.890625 Z M 187.5 131 " clip-rule="nonzero"/></clipPath><clipPath id="8c9d0ee1b1"><path d="M 104 264 L 178 264 L 178 294.585938 L 104 294.585938 Z M 104 264 " clip-rule="nonzero"/></clipPath><clipPath id="56fbc28310"><path d="M 89 80.085938 L 316.34375 80.085938 L 316.34375 271 L 89 271 Z M 89 80.085938 " clip-rule="nonzero"/></clipPath><clipPath id="34d6e4f2f2"><path d="M 68.09375 82 L 114 82 L 114 136 L 68.09375 136 Z M 68.09375 82 " clip-rule="nonzero"/></clipPath><clipPath id="d3479f6f6a"><path d="M 143 209.964844 L 144.488281 209.964844 L 144.488281 211.464844 L 143 211.464844 Z M 143 209.964844 " clip-rule="nonzero"/></clipPath><clipPath id="ab79d89016"><path d="M 143 210 L 144.488281 210 L 144.488281 211 L 143 211 Z M 143 210 " clip-rule="nonzero"/></clipPath><clipPath id="b08b9cde4a"><path d="M 143 210 L 144.488281 210 L 144.488281 211.464844 L 143 211.464844 Z M 143 210 " clip-rule="nonzero"/></clipPath></defs><g clip-path="url(#1ecf02483a)"><path fill="#000000" d="M 197.179688 124.695312 C 197.167969 124.695312 197.15625 124.691406 197.144531 124.6875 C 197.089844 124.65625 197.03125 124.625 196.972656 124.597656 C 196.9375 124.578125 196.929688 124.550781 196.949219 124.515625 C 196.96875 124.476562 196.996094 124.46875 197.035156 124.488281 C 197.09375 124.515625 197.152344 124.546875 197.210938 124.578125 C 197.242188 124.59375 197.25 124.617188 197.242188 124.648438 C 197.234375 124.679688 197.210938 124.695312 197.179688 124.695312 Z M 197.179688 124.695312 " fill-opacity="1" fill-rule="nonzero"/></g><g clip-path="url(#33093fa2c8)"><path fill="#000000" d="M 188.183594 131.636719 C 188.179688 131.636719 188.175781 131.636719 188.171875 131.636719 C 188.128906 131.628906 188.113281 131.605469 188.121094 131.566406 C 188.140625 131.441406 188.167969 131.316406 188.195312 131.195312 C 188.207031 131.152344 188.234375 131.136719 188.277344 131.148438 C 188.320312 131.15625 188.335938 131.179688 188.324219 131.222656 C 188.296875 131.339844 188.273438 131.464844 188.25 131.585938 C 188.242188 131.621094 188.222656 131.636719 188.183594 131.636719 Z M 188.355469 130.90625 C 188.296875 130.90625 188.277344 130.878906 188.292969 130.828125 C 188.328125 130.707031 188.363281 130.582031 188.40625 130.464844 C 188.417969 130.421875 188.445312 130.410156 188.488281 130.421875 C 188.53125 130.4375 188.546875 130.460938 188.53125 130.5 C 188.492188 130.621094 188.453125 130.738281 188.417969 130.859375 C 188.410156 130.890625 188.390625 130.90625 188.355469 130.90625 Z M 188.597656 130.191406 C 188.589844 130.191406 188.582031 130.1875 188.574219 130.1875 C 188.535156 130.171875 188.523438 130.144531 188.539062 130.105469 C 188.585938 129.988281 188.632812 129.871094 188.6875 129.753906 C 188.703125 129.714844 188.734375 129.707031 188.773438 129.722656 C 188.8125 129.738281 188.824219 129.765625 188.808594 129.804688 C 188.757812 129.917969 188.707031 130.035156 188.660156 130.148438 C 188.648438 130.175781 188.628906 130.191406 188.601562 130.191406 Z M 190.714844 129.703125 C 190.671875 129.707031 190.648438 129.6875 190.644531 129.644531 C 190.644531 129.605469 190.664062 129.582031 190.707031 129.582031 C 190.835938 129.566406 190.953125 129.53125 191.070312 129.484375 C 191.109375 129.464844 191.140625 129.476562 191.15625 129.515625 C 191.175781 129.554688 191.164062 129.582031 191.125 129.597656 C 190.996094 129.652344 190.863281 129.6875 190.726562 129.703125 C 190.722656 129.703125 190.71875 129.703125 190.714844 129.703125 Z M 190.320312 129.703125 C 190.316406 129.703125 190.316406 129.703125 190.3125 129.703125 C 190.171875 129.683594 190.039062 129.648438 189.914062 129.597656 C 189.871094 129.582031 189.859375 129.554688 189.878906 129.515625 C 189.894531 129.476562 189.925781 129.46875 189.964844 129.484375 C 190.082031 129.53125 190.203125 129.5625 190.328125 129.578125 C 190.371094 129.585938 190.390625 129.605469 190.386719 129.644531 C 190.382812 129.683594 190.363281 129.703125 190.320312 129.703125 Z M 188.914062 129.5 C 188.84375 129.5 188.824219 129.46875 188.851562 129.410156 C 188.910156 129.296875 188.972656 129.183594 189.035156 129.074219 C 189.058594 129.039062 189.085938 129.027344 189.125 129.050781 C 189.164062 129.070312 189.171875 129.097656 189.152344 129.132812 C 189.089844 129.242188 189.027344 129.351562 188.972656 129.464844 C 188.960938 129.488281 188.941406 129.5 188.914062 129.5 Z M 189.601562 129.40625 C 189.585938 129.40625 189.570312 129.402344 189.558594 129.394531 C 189.453125 129.308594 189.359375 129.214844 189.277344 129.109375 C 189.246094 129.074219 189.246094 129.046875 189.285156 129.019531 C 189.324219 128.992188 189.355469 128.996094 189.382812 129.035156 C 189.457031 129.132812 189.542969 129.21875 189.640625 129.296875 C 189.664062 129.316406 189.671875 129.339844 189.664062 129.367188 C 189.652344 129.394531 189.632812 129.40625 189.601562 129.40625 Z M 191.425781 129.394531 C 191.394531 129.394531 191.375 129.382812 191.363281 129.355469 C 191.351562 129.328125 191.359375 129.308594 191.378906 129.289062 C 191.410156 129.261719 191.4375 129.230469 191.464844 129.199219 C 191.515625 129.136719 191.554688 129.070312 191.585938 129 C 191.601562 128.960938 191.632812 128.949219 191.671875 128.964844 C 191.714844 128.980469 191.726562 129.007812 191.707031 129.046875 C 191.671875 129.128906 191.625 129.207031 191.566406 129.277344 C 191.535156 129.3125 191.503906 129.34375 191.472656 129.375 C 191.457031 129.386719 191.441406 129.394531 191.425781 129.394531 Z M 189.292969 128.839844 C 189.265625 128.839844 189.246094 128.828125 189.234375 128.808594 C 189.222656 128.789062 189.222656 128.765625 189.238281 128.746094 C 189.265625 128.699219 189.296875 128.65625 189.324219 128.609375 C 189.367188 128.546875 189.414062 128.488281 189.457031 128.425781 C 189.484375 128.394531 189.515625 128.390625 189.550781 128.414062 C 189.582031 128.4375 189.589844 128.46875 189.5625 128.5 C 189.519531 128.558594 189.476562 128.617188 189.4375 128.679688 C 189.40625 128.722656 189.378906 128.765625 189.347656 128.808594 C 189.335938 128.832031 189.316406 128.839844 189.292969 128.839844 Z M 189.128906 128.8125 C 189.101562 128.8125 189.082031 128.796875 189.070312 128.773438 C 189.011719 128.65625 188.96875 128.535156 188.9375 128.40625 C 188.925781 128.367188 188.941406 128.339844 188.988281 128.332031 C 189.03125 128.320312 189.058594 128.335938 189.066406 128.378906 C 189.09375 128.496094 189.136719 128.613281 189.1875 128.722656 C 189.21875 128.78125 189.195312 128.8125 189.128906 128.8125 Z M 191.726562 128.71875 C 191.679688 128.71875 191.660156 128.699219 191.660156 128.65625 C 191.660156 128.648438 191.660156 128.640625 191.660156 128.632812 C 191.660156 128.519531 191.644531 128.414062 191.609375 128.304688 C 191.597656 128.269531 191.613281 128.242188 191.652344 128.230469 C 191.691406 128.21875 191.71875 128.234375 191.734375 128.269531 C 191.773438 128.386719 191.792969 128.507812 191.792969 128.632812 C 191.792969 128.640625 191.792969 128.652344 191.792969 128.660156 C 191.792969 128.699219 191.769531 128.722656 191.726562 128.71875 Z M 189.765625 128.238281 C 189.746094 128.238281 189.730469 128.230469 189.71875 128.21875 C 189.6875 128.191406 189.6875 128.164062 189.71875 128.132812 C 189.808594 128.039062 189.910156 127.953125 190.019531 127.875 C 190.054688 127.847656 190.085938 127.851562 190.113281 127.886719 C 190.136719 127.917969 190.132812 127.949219 190.097656 127.972656 C 189.996094 128.046875 189.902344 128.128906 189.8125 128.21875 C 189.800781 128.230469 189.785156 128.238281 189.765625 128.238281 Z M 188.945312 128.082031 C 188.90625 128.082031 188.882812 128.0625 188.878906 128.023438 C 188.878906 127.988281 188.878906 127.949219 188.878906 127.914062 C 188.878906 127.859375 188.878906 127.800781 188.882812 127.746094 C 188.886719 127.710938 188.890625 127.675781 188.894531 127.640625 C 188.898438 127.597656 188.925781 127.578125 188.96875 127.582031 C 189.015625 127.585938 189.035156 127.613281 189.027344 127.652344 C 189.023438 127.6875 189.019531 127.722656 189.015625 127.757812 C 189.011719 127.808594 189.007812 127.859375 189.007812 127.914062 C 189.007812 127.949219 189.011719 127.984375 189.011719 128.019531 C 189.015625 128.058594 188.992188 128.082031 188.949219 128.082031 Z M 191.484375 128.019531 C 191.464844 128.019531 191.445312 128.011719 191.433594 127.996094 C 191.355469 127.90625 191.261719 127.835938 191.148438 127.785156 C 191.109375 127.769531 191.097656 127.742188 191.113281 127.703125 C 191.132812 127.664062 191.164062 127.65625 191.203125 127.671875 C 191.335938 127.730469 191.445312 127.8125 191.535156 127.917969 C 191.554688 127.9375 191.554688 127.960938 191.542969 127.984375 C 191.53125 128.007812 191.511719 128.019531 191.484375 128.019531 Z M 190.402344 127.796875 C 190.367188 127.796875 190.34375 127.78125 190.335938 127.746094 C 190.332031 127.714844 190.34375 127.691406 190.378906 127.675781 C 190.507812 127.625 190.644531 127.597656 190.785156 127.59375 C 190.832031 127.59375 190.851562 127.613281 190.855469 127.65625 C 190.855469 127.695312 190.832031 127.71875 190.789062 127.71875 C 190.664062 127.722656 190.542969 127.746094 190.425781 127.792969 C 190.417969 127.796875 190.410156 127.796875 190.402344 127.796875 Z M 189.039062 127.339844 C 189.035156 127.339844 189.027344 127.339844 189.023438 127.339844 C 188.980469 127.328125 188.964844 127.300781 188.976562 127.261719 C 189.011719 127.136719 189.058594 127.019531 189.109375 126.898438 C 189.128906 126.863281 189.15625 126.851562 189.195312 126.867188 C 189.238281 126.882812 189.25 126.910156 189.230469 126.949219 C 189.179688 127.0625 189.136719 127.175781 189.101562 127.296875 C 189.09375 127.324219 189.074219 127.339844 189.039062 127.339844 Z M 189.34375 126.648438 C 189.320312 126.648438 189.300781 126.640625 189.289062 126.617188 C 189.277344 126.597656 189.277344 126.578125 189.289062 126.558594 C 189.351562 126.449219 189.421875 126.339844 189.5 126.234375 C 189.523438 126.199219 189.554688 126.195312 189.589844 126.21875 C 189.625 126.238281 189.632812 126.269531 189.609375 126.304688 C 189.535156 126.40625 189.464844 126.511719 189.402344 126.617188 C 189.390625 126.640625 189.371094 126.648438 189.34375 126.648438 Z M 189.789062 126.027344 C 189.761719 126.027344 189.742188 126.015625 189.730469 125.992188 C 189.71875 125.96875 189.722656 125.945312 189.738281 125.925781 C 189.820312 125.828125 189.910156 125.730469 190.003906 125.640625 C 190.03125 125.609375 190.0625 125.609375 190.097656 125.636719 C 190.128906 125.664062 190.128906 125.695312 190.097656 125.722656 C 190.007812 125.8125 189.921875 125.910156 189.84375 126.003906 C 189.828125 126.019531 189.8125 126.027344 189.789062 126.027344 Z M 190.332031 125.480469 C 190.300781 125.480469 190.28125 125.464844 190.269531 125.441406 C 190.261719 125.414062 190.265625 125.390625 190.289062 125.371094 C 190.386719 125.285156 190.488281 125.203125 190.59375 125.125 C 190.628906 125.097656 190.660156 125.101562 190.6875 125.132812 C 190.714844 125.167969 190.710938 125.195312 190.675781 125.222656 C 190.574219 125.300781 190.472656 125.378906 190.378906 125.464844 C 190.363281 125.472656 190.347656 125.480469 190.332031 125.480469 Z M 190.953125 125.011719 C 190.921875 125.011719 190.902344 125 190.890625 124.96875 C 190.882812 124.941406 190.890625 124.917969 190.917969 124.898438 C 191.027344 124.828125 191.140625 124.761719 191.257812 124.695312 C 191.296875 124.671875 191.328125 124.675781 191.351562 124.714844 C 191.375 124.753906 191.367188 124.785156 191.320312 124.804688 C 191.210938 124.867188 191.097656 124.933594 190.992188 125.003906 C 190.980469 125.007812 190.96875 125.011719 190.953125 125.011719 Z M 191.640625 124.632812 C 191.605469 124.632812 191.582031 124.617188 191.574219 124.585938 C 191.566406 124.554688 191.578125 124.53125 191.609375 124.515625 C 191.726562 124.460938 191.851562 124.40625 191.976562 124.355469 C 192.015625 124.339844 192.042969 124.351562 192.0625 124.390625 C 192.078125 124.429688 192.066406 124.457031 192.027344 124.472656 C 191.90625 124.519531 191.785156 124.570312 191.667969 124.625 C 191.660156 124.632812 191.648438 124.632812 191.640625 124.632812 Z M 196.644531 124.445312 C 196.636719 124.445312 196.628906 124.441406 196.621094 124.4375 C 196.5 124.390625 196.378906 124.347656 196.253906 124.304688 C 196.210938 124.292969 196.199219 124.265625 196.214844 124.226562 C 196.226562 124.1875 196.253906 124.175781 196.296875 124.1875 C 196.421875 124.230469 196.550781 124.273438 196.671875 124.324219 C 196.703125 124.339844 196.71875 124.363281 196.710938 124.394531 C 196.703125 124.429688 196.679688 124.445312 196.644531 124.445312 Z M 192.371094 124.34375 C 192.335938 124.34375 192.3125 124.324219 192.308594 124.292969 C 192.300781 124.257812 192.316406 124.234375 192.351562 124.222656 C 192.476562 124.179688 192.605469 124.144531 192.734375 124.109375 C 192.777344 124.097656 192.804688 124.113281 192.816406 124.152344 C 192.828125 124.195312 192.8125 124.21875 192.769531 124.230469 C 192.644531 124.261719 192.515625 124.300781 192.394531 124.339844 C 192.386719 124.34375 192.378906 124.34375 192.371094 124.34375 Z M 195.894531 124.199219 C 195.890625 124.199219 195.882812 124.199219 195.878906 124.199219 C 195.753906 124.167969 195.625 124.140625 195.496094 124.117188 C 195.449219 124.109375 195.433594 124.085938 195.441406 124.042969 C 195.449219 124 195.476562 123.984375 195.519531 123.992188 C 195.652344 124.015625 195.78125 124.046875 195.910156 124.078125 C 195.949219 124.085938 195.964844 124.109375 195.960938 124.144531 C 195.957031 124.183594 195.933594 124.199219 195.894531 124.199219 Z M 193.136719 124.144531 C 193.097656 124.144531 193.078125 124.125 193.074219 124.085938 C 193.070312 124.050781 193.085938 124.027344 193.125 124.019531 C 193.253906 123.996094 193.386719 123.972656 193.519531 123.953125 C 193.5625 123.949219 193.589844 123.964844 193.59375 124.007812 C 193.601562 124.050781 193.582031 124.074219 193.539062 124.078125 C 193.410156 124.09375 193.28125 124.117188 193.152344 124.140625 C 193.148438 124.144531 193.140625 124.144531 193.136719 124.144531 Z M 195.117188 124.058594 C 195.113281 124.058594 195.109375 124.058594 195.105469 124.058594 C 194.976562 124.046875 194.847656 124.035156 194.714844 124.027344 C 194.671875 124.027344 194.652344 124.003906 194.652344 123.960938 C 194.65625 123.921875 194.679688 123.902344 194.722656 123.902344 C 194.855469 123.910156 194.992188 123.921875 195.121094 123.933594 C 195.167969 123.9375 195.1875 123.960938 195.183594 124 C 195.183594 124.042969 195.160156 124.0625 195.113281 124.058594 Z M 193.925781 124.039062 C 193.882812 124.039062 193.859375 124.019531 193.855469 123.976562 C 193.855469 123.9375 193.875 123.914062 193.917969 123.914062 C 194.050781 123.902344 194.1875 123.898438 194.320312 123.894531 C 194.363281 123.894531 194.386719 123.914062 194.386719 123.957031 C 194.386719 124 194.367188 124.019531 194.320312 124.019531 C 194.191406 124.023438 194.058594 124.027344 193.929688 124.039062 Z M 193.925781 124.039062 " fill-opacity="1" fill-rule="nonzero"/></g><g clip-path="url(#3bd0f987a4)"><path fill="#000000" d="M 188.101562 132.199219 C 188.101562 132.199219 188.097656 132.199219 188.097656 132.199219 C 188.050781 132.195312 188.03125 132.171875 188.039062 132.128906 C 188.042969 132.066406 188.050781 132.003906 188.058594 131.941406 C 188.0625 131.898438 188.089844 131.878906 188.132812 131.886719 C 188.179688 131.890625 188.199219 131.914062 188.191406 131.957031 C 188.183594 132.019531 188.175781 132.082031 188.167969 132.140625 C 188.164062 132.179688 188.144531 132.199219 188.101562 132.199219 Z M 188.101562 132.199219 " fill-opacity="1" fill-rule="nonzero"/></g><g clip-path="url(#38c1fe3ae9)"><path fill="#000000" d="M 188.0625 132.886719 C 187.945312 132.523438 187.734375 132.074219 187.5 131.789062 L 188.113281 132.035156 L 188.753906 131.859375 C 188.484375 132.117188 188.222656 132.539062 188.0625 132.886719 Z M 188.0625 132.886719 " fill-opacity="1" fill-rule="nonzero"/></g><g clip-path="url(#8c9d0ee1b1)"><path fill="#5271ff" d="M 177.304688 294.460938 L 104.199219 270.046875 L 163.683594 264.136719 " fill-opacity="1" fill-rule="nonzero"/></g><g clip-path="url(#56fbc28310)"><path fill="#5271ff" d="M 209.9375 142.59375 C 209.808594 142.464844 209.679688 142.335938 209.550781 142.207031 C 211.09375 136.554688 209.039062 130.515625 204.414062 127.175781 C 204.925781 124.351562 204.671875 121.523438 203.640625 118.824219 C 202.101562 114.96875 199.015625 112.015625 195.292969 110.34375 L 193.105469 109.316406 C 191.4375 108.546875 189.507812 108.03125 187.710938 107.777344 C 184.371094 107.390625 181.03125 107.777344 177.945312 108.933594 L 162.015625 115.226562 L 161.886719 115.226562 C 162.015625 112.914062 162.269531 110.34375 162.527344 107.777344 C 162.785156 105.464844 162.785156 103.148438 162.398438 101.09375 C 162.144531 99.554688 161.628906 97.882812 161.113281 96.339844 C 157.390625 87.347656 148.78125 81.179688 139.144531 80.539062 C 138.886719 80.539062 138.628906 80.539062 138.375 80.539062 C 134.519531 80.539062 131.050781 82.335938 128.738281 85.292969 C 126.425781 88.375 125.652344 92.230469 126.554688 95.828125 L 129.25 105.847656 C 129.507812 107.003906 129.636719 108.160156 129.636719 109.316406 C 129.507812 110.601562 129.378906 111.628906 128.996094 112.402344 C 125.398438 120.496094 124.496094 133.34375 124.367188 134.757812 L 123.726562 146.0625 C 123.726562 146.578125 123.339844 147.089844 122.828125 147.347656 C 121.542969 147.863281 120.386719 148.632812 119.488281 149.53125 C 118.332031 149.148438 116.917969 148.890625 115.632812 148.890625 C 114.089844 148.890625 112.675781 149.148438 111.265625 149.789062 L 96.746094 155.570312 C 90.578125 158.011719 87.496094 165.078125 89.9375 171.246094 L 104.199219 207.734375 L 104.199219 270.175781 L 280.21875 252.574219 C 300.773438 250.519531 316.449219 233.175781 316.449219 212.617188 L 316.449219 131.929688 Z M 209.9375 142.59375 " fill-opacity="1" fill-rule="nonzero"/></g><path fill="#ffffff" d="M 132.976562 204.90625 L 118.457031 210.691406 C 116.273438 211.589844 113.960938 210.433594 113.0625 208.378906 L 97.132812 168.289062 C 96.230469 166.105469 97.386719 163.792969 99.445312 162.894531 L 113.960938 157.113281 C 116.144531 156.214844 118.457031 157.371094 119.359375 159.425781 L 135.160156 199.511719 C 136.0625 201.695312 135.03125 204.136719 132.976562 204.90625 Z M 132.976562 204.90625 " fill-opacity="1" fill-rule="nonzero"/><path fill="#ffffff" d="M 201.714844 140.28125 L 201.203125 141.824219 C 200.558594 143.75 201.203125 145.804688 203 146.960938 C 205.828125 148.761719 207.113281 152.101562 206.339844 155.3125 L 204.925781 160.582031 C 204.542969 161.867188 204.925781 163.28125 205.699219 164.4375 L 206.082031 164.949219 C 207.113281 166.234375 207.753906 168.035156 207.496094 169.703125 C 207.496094 169.960938 207.367188 170.21875 207.367188 170.476562 C 206.726562 173.945312 204.027344 179.082031 195.035156 182.550781 L 166.125 193.988281 C 166.125 193.988281 155.332031 198.097656 142.742188 199.511719 C 141.714844 199.640625 140.816406 198.996094 140.429688 198.097656 L 124.496094 157.625 C 124.113281 156.46875 124.625 155.183594 125.78125 154.800781 C 129.121094 153.515625 131.4375 150.304688 131.691406 146.707031 L 132.335938 135.398438 C 132.335938 135.398438 133.234375 122.808594 136.316406 115.742188 C 137.089844 113.941406 137.472656 111.886719 137.601562 109.960938 C 137.730469 108.03125 137.472656 105.976562 136.960938 104.050781 L 134.261719 94.027344 C 133.492188 91.203125 135.804688 88.375 138.757812 88.632812 C 145.570312 89.015625 151.222656 93.386719 153.664062 99.425781 C 154.046875 100.453125 154.433594 101.480469 154.5625 102.636719 C 154.820312 104.050781 154.820312 105.464844 154.691406 106.875 C 154.046875 112.65625 153.664062 118.054688 153.921875 122.808594 C 153.921875 124.734375 155.976562 126.148438 157.773438 125.378906 L 180.773438 116.253906 C 183.597656 115.097656 186.8125 115.226562 189.636719 116.382812 L 192.335938 117.539062 C 196.0625 119.082031 197.730469 123.449219 196.0625 127.046875 C 195.164062 129.105469 196.0625 131.542969 198.117188 132.574219 L 198.886719 132.957031 C 201.457031 134.371094 202.742188 137.453125 201.714844 140.28125 Z M 201.714844 140.28125 " fill-opacity="1" fill-rule="nonzero"/><g clip-path="url(#34d6e4f2f2)"><path fill="#5271ff" d="M 113.960938 135.914062 L 82.742188 82.722656 L 68.09375 100.964844 Z M 113.960938 135.914062 " fill-opacity="1" fill-rule="nonzero"/></g><path fill="#5271ff" d="M 107.152344 136.941406 L 84.152344 125.761719 L 77.085938 135.914062 Z M 107.152344 136.941406 " fill-opacity="1" fill-rule="nonzero"/><path fill="#ffffff" d="M 227.410156 191.804688 C 227.28125 179.082031 227.28125 166.492188 227.15625 153.773438 C 230.109375 153.515625 231.523438 153.257812 234.347656 153 C 235.890625 152.871094 237.304688 152.871094 238.460938 153.257812 C 239.617188 153.644531 240.515625 154.15625 241.160156 154.929688 C 241.929688 155.699219 242.445312 156.597656 242.699219 157.625 C 242.957031 158.65625 243.214844 159.8125 243.214844 160.96875 C 243.214844 161.480469 243.214844 161.738281 243.214844 162.253906 C 243.214844 163.28125 243.214844 164.179688 242.957031 164.820312 C 242.828125 165.59375 242.574219 166.234375 242.316406 166.75 C 241.800781 167.777344 240.902344 168.675781 239.875 169.574219 C 241.03125 170.089844 241.929688 170.859375 242.445312 172.015625 C 242.957031 173.171875 243.34375 174.714844 243.34375 176.898438 C 243.34375 177.796875 243.34375 178.183594 243.34375 179.082031 C 243.34375 182.550781 242.699219 185.378906 241.160156 187.304688 C 239.746094 189.363281 237.304688 190.519531 234.09375 190.902344 C 231.523438 191.417969 230.109375 191.546875 227.410156 191.804688 Z M 232.164062 158.011719 C 232.164062 161.996094 232.164062 164.050781 232.292969 168.164062 C 233.191406 168.035156 233.578125 168.035156 234.476562 167.90625 C 236.148438 167.777344 237.175781 167.132812 237.820312 166.234375 C 238.332031 165.335938 238.589844 163.921875 238.589844 162.253906 C 238.589844 160.582031 238.203125 159.425781 237.5625 158.65625 C 236.917969 157.882812 235.761719 157.625 234.09375 157.753906 C 233.449219 157.882812 232.9375 158.011719 232.164062 158.011719 Z M 232.292969 173.042969 C 232.292969 177.285156 232.421875 181.394531 232.421875 185.636719 C 233.320312 185.507812 233.707031 185.507812 234.605469 185.378906 C 235.632812 185.25 236.40625 184.992188 236.917969 184.609375 C 237.433594 184.222656 237.945312 183.707031 238.203125 183.066406 C 238.460938 182.421875 238.71875 181.78125 238.71875 180.882812 C 238.71875 180.109375 238.847656 179.210938 238.847656 178.183594 C 238.847656 177.15625 238.847656 176.386719 238.71875 175.613281 C 238.589844 174.84375 238.460938 174.328125 238.074219 173.816406 C 237.820312 173.300781 237.304688 173.042969 236.789062 172.789062 C 236.277344 172.660156 235.507812 172.53125 234.605469 172.660156 C 233.578125 172.789062 233.191406 172.914062 232.292969 173.042969 Z M 232.292969 173.042969 " fill-opacity="1" fill-rule="nonzero"/><path fill="#ffffff" d="M 248.097656 189.617188 C 247.96875 176.898438 247.96875 164.308594 247.839844 151.589844 C 252.722656 151.074219 257.734375 150.558594 262.617188 150.046875 C 262.617188 151.972656 262.617188 152.871094 262.617188 154.800781 C 258.761719 155.183594 256.707031 155.441406 252.851562 155.828125 C 252.851562 159.425781 252.851562 163.023438 252.980469 166.621094 C 256.449219 166.234375 258.117188 166.105469 261.460938 165.722656 C 261.460938 167.777344 261.460938 168.804688 261.460938 170.859375 C 258.117188 171.246094 256.320312 171.375 252.980469 171.757812 C 252.980469 175.613281 252.980469 179.46875 253.109375 183.324219 C 256.960938 182.9375 259.019531 182.679688 262.871094 182.296875 C 262.871094 184.609375 262.871094 185.765625 262.871094 188.078125 C 257.992188 188.589844 253.109375 189.105469 248.097656 189.617188 Z M 248.097656 189.617188 " fill-opacity="1" fill-rule="nonzero"/><path fill="#ffffff" d="M 281.757812 158.527344 C 279.832031 158.78125 278.804688 158.78125 276.878906 159.039062 C 276.878906 158.527344 276.878906 158.269531 276.878906 157.882812 C 276.878906 156.726562 276.621094 155.699219 276.105469 154.929688 C 275.59375 154.15625 274.691406 153.773438 273.40625 153.902344 C 272.765625 154.027344 272.125 154.15625 271.738281 154.414062 C 271.351562 154.671875 270.96875 155.058594 270.710938 155.570312 C 270.453125 156.085938 270.324219 156.597656 270.195312 157.113281 C 270.066406 157.625 270.066406 158.269531 270.066406 158.910156 C 270.066406 159.683594 270.066406 160.195312 270.195312 160.710938 C 270.195312 161.222656 270.324219 161.609375 270.582031 161.996094 C 270.839844 162.378906 271.09375 162.636719 271.480469 162.894531 C 271.867188 163.152344 272.378906 163.410156 273.023438 163.535156 C 274.5625 164.050781 275.335938 164.308594 276.75 164.820312 C 277.90625 165.207031 278.675781 165.59375 279.445312 166.234375 C 280.089844 166.75 280.730469 167.519531 280.988281 168.289062 C 281.375 169.0625 281.632812 170.089844 281.757812 171.246094 C 281.886719 172.402344 282.015625 173.558594 282.015625 175.101562 C 282.015625 176.769531 281.886719 178.3125 281.632812 179.855469 C 281.375 181.265625 280.859375 182.550781 280.21875 183.707031 C 279.574219 184.863281 278.675781 185.765625 277.519531 186.40625 C 276.492188 187.175781 275.078125 187.5625 273.535156 187.691406 C 272.378906 187.820312 271.222656 187.691406 270.195312 187.304688 C 269.167969 186.921875 268.269531 186.277344 267.496094 185.507812 C 266.726562 184.734375 266.214844 183.835938 265.699219 182.679688 C 265.3125 181.523438 265.058594 180.367188 265.058594 179.082031 C 265.058594 178.183594 265.058594 177.796875 265.058594 177.027344 C 266.984375 176.769531 268.011719 176.769531 269.9375 176.511719 C 269.9375 177.285156 269.9375 177.542969 269.9375 178.3125 C 269.9375 179.339844 270.195312 180.238281 270.710938 181.011719 C 271.222656 181.78125 272.125 182.167969 273.40625 182.039062 C 274.179688 181.910156 274.949219 181.78125 275.335938 181.394531 C 275.847656 181.011719 276.105469 180.625 276.363281 180.109375 C 276.621094 179.597656 276.75 178.953125 276.878906 178.183594 C 276.878906 177.414062 277.003906 176.640625 276.878906 175.742188 C 276.878906 174.714844 276.878906 173.816406 276.75 173.171875 C 276.621094 172.53125 276.621094 172.015625 276.363281 171.632812 C 276.105469 171.246094 275.847656 170.988281 275.464844 170.730469 C 275.078125 170.476562 274.5625 170.347656 274.050781 170.089844 C 272.636719 169.574219 271.996094 169.320312 270.582031 168.804688 C 268.398438 168.035156 266.984375 166.878906 266.339844 165.464844 C 265.570312 163.921875 265.183594 161.996094 265.183594 159.683594 C 265.183594 158.269531 265.3125 156.984375 265.699219 155.699219 C 266.085938 154.414062 266.597656 153.386719 267.242188 152.488281 C 267.882812 151.589844 268.78125 150.816406 269.808594 150.175781 C 270.839844 149.53125 272.125 149.148438 273.535156 149.019531 C 274.820312 148.890625 275.847656 149.019531 276.878906 149.402344 C 277.90625 149.789062 278.804688 150.304688 279.574219 150.945312 C 281.117188 152.359375 281.757812 154.15625 281.757812 156.214844 C 281.757812 156.855469 281.757812 157.371094 281.757812 158.527344 Z M 281.757812 158.527344 " fill-opacity="1" fill-rule="nonzero"/><path fill="#ffffff" d="M 288.824219 185.507812 C 288.824219 174.457031 288.824219 163.28125 288.824219 152.230469 C 286.511719 152.488281 285.355469 152.617188 283.171875 152.746094 C 283.171875 150.816406 283.171875 149.917969 283.171875 147.992188 C 288.570312 147.476562 294.09375 146.960938 299.488281 146.320312 C 299.488281 148.246094 299.488281 149.148438 299.488281 151.074219 C 297.175781 151.332031 296.019531 151.460938 293.835938 151.589844 C 293.835938 162.636719 293.835938 173.816406 293.835938 184.863281 C 291.78125 185.25 290.753906 185.378906 288.824219 185.507812 Z M 288.824219 185.507812 " fill-opacity="1" fill-rule="nonzero"/><path fill="#ffffff" d="M 172.933594 239.085938 C 172.933594 239.984375 172.933594 240.496094 172.933594 241.398438 C 172.933594 242.554688 172.679688 243.582031 172.292969 244.609375 C 171.90625 245.636719 171.265625 246.535156 170.621094 247.433594 C 169.851562 248.207031 169.082031 248.976562 168.054688 249.492188 C 167.023438 250.003906 165.996094 250.390625 164.839844 250.519531 C 163.8125 250.648438 162.914062 250.648438 161.886719 250.390625 C 160.859375 250.261719 159.957031 249.875 159.1875 249.234375 C 158.417969 248.71875 157.644531 247.820312 157.132812 246.921875 C 156.617188 245.894531 156.359375 244.609375 156.359375 242.9375 C 156.359375 235.871094 156.359375 228.933594 156.359375 221.867188 C 156.359375 220.582031 156.617188 219.296875 157.003906 218.140625 C 157.390625 216.984375 158.03125 215.957031 158.671875 215.058594 C 159.445312 214.160156 160.34375 213.386719 161.242188 212.875 C 162.269531 212.359375 163.425781 211.972656 164.582031 211.847656 C 167.023438 211.589844 168.953125 212.230469 170.367188 213.902344 C 171.136719 214.671875 171.652344 215.699219 172.035156 216.726562 C 172.421875 217.882812 172.679688 219.167969 172.679688 220.453125 C 172.679688 221.355469 172.679688 221.738281 172.679688 222.636719 C 170.621094 222.894531 169.59375 222.894531 167.667969 223.152344 C 167.667969 222.382812 167.667969 221.996094 167.667969 221.226562 C 167.667969 220.070312 167.410156 219.167969 166.769531 218.398438 C 166.253906 217.628906 165.484375 217.242188 164.457031 217.371094 C 163.171875 217.5 162.398438 218.011719 161.886719 218.914062 C 161.5 219.8125 161.242188 220.96875 161.242188 222.253906 C 161.242188 228.804688 161.242188 235.230469 161.242188 241.78125 C 161.242188 242.808594 161.5 243.710938 161.886719 244.351562 C 162.398438 244.996094 163.171875 245.25 164.328125 245.121094 C 164.710938 245.121094 164.96875 244.996094 165.355469 244.867188 C 165.742188 244.738281 166.125 244.480469 166.382812 244.222656 C 166.640625 243.964844 166.898438 243.582031 167.152344 243.066406 C 167.410156 242.554688 167.410156 241.910156 167.410156 241.269531 C 167.410156 240.496094 167.410156 240.242188 167.410156 239.46875 C 169.851562 239.339844 170.878906 239.210938 172.933594 239.085938 Z M 172.933594 239.085938 " fill-opacity="1" fill-rule="nonzero"/><path fill="#ffffff" d="M 177.046875 248.847656 C 176.917969 236.128906 176.917969 223.539062 176.789062 210.816406 C 178.84375 210.5625 179.746094 210.5625 181.800781 210.304688 C 181.800781 215.957031 181.929688 221.609375 181.929688 227.265625 C 184.371094 227.007812 185.65625 226.878906 188.097656 226.621094 C 188.097656 220.96875 187.96875 215.316406 187.96875 209.660156 C 189.894531 209.40625 190.921875 209.40625 192.976562 209.148438 C 193.105469 221.867188 193.234375 234.457031 193.234375 247.179688 C 191.308594 247.433594 190.28125 247.433594 188.226562 247.691406 C 188.226562 242.296875 188.097656 236.898438 188.097656 231.503906 C 185.65625 231.761719 184.371094 231.890625 181.929688 232.144531 C 181.929688 237.542969 182.058594 242.9375 182.058594 248.335938 C 180.128906 248.59375 179.101562 248.59375 177.046875 248.847656 Z M 177.046875 248.847656 " fill-opacity="1" fill-rule="nonzero"/><path fill="#ffffff" d="M 197.476562 218.140625 C 197.476562 216.601562 197.730469 215.058594 198.117188 213.773438 C 198.632812 212.488281 199.273438 211.332031 200.046875 210.433594 C 200.816406 209.535156 201.714844 208.890625 202.613281 208.378906 C 203.640625 207.863281 204.542969 207.605469 205.570312 207.476562 C 206.597656 207.347656 207.496094 207.476562 208.523438 207.734375 C 209.550781 207.992188 210.453125 208.503906 211.222656 209.277344 C 211.992188 210.046875 212.636719 210.945312 213.148438 212.230469 C 213.664062 213.386719 213.921875 214.800781 213.921875 216.34375 C 213.921875 223.023438 214.050781 229.832031 214.050781 236.515625 C 214.050781 238.054688 213.792969 239.339844 213.40625 240.496094 C 212.894531 241.652344 212.378906 242.554688 211.609375 243.324219 C 210.835938 244.09375 209.9375 244.738281 208.910156 245.25 C 207.882812 245.765625 206.984375 246.023438 205.957031 246.023438 C 204.925781 246.152344 204.027344 246.023438 203 245.765625 C 201.972656 245.507812 201.074219 244.996094 200.300781 244.351562 C 199.53125 243.710938 198.886719 242.9375 198.375 241.910156 C 197.859375 240.882812 197.605469 239.597656 197.605469 238.054688 C 197.476562 231.632812 197.476562 224.949219 197.476562 218.140625 Z M 202.484375 237.800781 C 202.484375 239.085938 202.871094 239.984375 203.515625 240.496094 C 204.15625 241.011719 204.925781 241.269531 205.828125 241.140625 C 206.726562 241.011719 207.496094 240.625 208.140625 239.984375 C 208.78125 239.339844 209.167969 238.3125 209.039062 237.15625 C 209.039062 230.476562 208.910156 223.667969 208.910156 216.984375 C 208.910156 215.570312 208.523438 214.671875 207.882812 214.03125 C 207.238281 213.386719 206.46875 213.257812 205.570312 213.257812 C 204.671875 213.386719 203.898438 213.773438 203.257812 214.414062 C 202.613281 215.1875 202.230469 216.214844 202.230469 217.5 C 202.359375 224.4375 202.484375 231.117188 202.484375 237.800781 Z M 202.484375 237.800781 " fill-opacity="1" fill-rule="nonzero"/><path fill="#ffffff" d="M 218.546875 244.609375 C 218.417969 231.890625 218.417969 219.296875 218.289062 206.578125 C 220.214844 206.320312 221.246094 206.320312 223.171875 206.0625 C 223.171875 218.785156 223.300781 231.375 223.429688 244.09375 C 221.5 244.351562 220.472656 244.480469 218.546875 244.609375 Z M 218.546875 244.609375 " fill-opacity="1" fill-rule="nonzero"/><path fill="#ffffff" d="M 243.472656 231.890625 C 243.472656 232.789062 243.472656 233.300781 243.472656 234.203125 C 243.472656 235.359375 243.214844 236.386719 242.828125 237.414062 C 242.445312 238.441406 241.929688 239.339844 241.160156 240.242188 C 240.515625 241.011719 239.617188 241.78125 238.71875 242.296875 C 237.820312 242.808594 236.789062 243.195312 235.632812 243.195312 C 234.734375 243.324219 233.835938 243.195312 232.808594 243.066406 C 231.910156 242.9375 231.007812 242.554688 230.238281 241.910156 C 229.46875 241.269531 228.824219 240.496094 228.3125 239.597656 C 227.796875 238.570312 227.539062 237.285156 227.539062 235.613281 C 227.539062 228.546875 227.410156 221.609375 227.410156 214.542969 C 227.410156 213.257812 227.539062 211.972656 227.925781 210.816406 C 228.3125 209.660156 228.824219 208.632812 229.597656 207.734375 C 230.238281 206.835938 231.136719 206.0625 232.164062 205.550781 C 233.191406 205.035156 234.222656 204.652344 235.378906 204.523438 C 237.691406 204.265625 239.488281 205.035156 241.03125 206.578125 C 241.671875 207.347656 242.316406 208.378906 242.699219 209.535156 C 243.085938 210.691406 243.34375 211.972656 243.34375 213.257812 C 243.34375 214.160156 243.34375 214.542969 243.34375 215.445312 C 241.417969 215.699219 240.386719 215.699219 238.460938 215.957031 C 238.460938 215.1875 238.460938 214.800781 238.460938 214.03125 C 238.460938 212.875 238.203125 211.972656 237.691406 211.203125 C 237.175781 210.433594 236.40625 210.046875 235.507812 210.175781 C 234.347656 210.304688 233.449219 210.816406 233.066406 211.71875 C 232.679688 212.617188 232.421875 213.773438 232.421875 215.058594 C 232.421875 221.609375 232.421875 228.035156 232.550781 234.585938 C 232.550781 235.613281 232.808594 236.515625 233.191406 237.15625 C 233.578125 237.800781 234.347656 238.054688 235.507812 237.929688 C 235.761719 237.929688 236.148438 237.800781 236.535156 237.671875 C 236.917969 237.542969 237.304688 237.285156 237.5625 237.027344 C 237.820312 236.769531 238.074219 236.386719 238.332031 235.871094 C 238.460938 235.359375 238.589844 234.714844 238.589844 234.074219 C 238.589844 233.300781 238.589844 233.046875 238.589844 232.273438 C 240.644531 232.273438 241.542969 232.144531 243.472656 231.890625 Z M 243.472656 231.890625 " fill-opacity="1" fill-rule="nonzero"/><path fill="#ffffff" d="M 247.453125 241.78125 C 247.453125 229.0625 247.453125 216.34375 247.453125 203.75 C 252.335938 203.238281 257.21875 202.851562 262.101562 202.339844 C 262.101562 204.523438 262.101562 205.550781 262.101562 207.734375 C 258.246094 208.121094 256.320312 208.25 252.335938 208.632812 C 252.335938 212.488281 252.335938 216.34375 252.335938 220.199219 C 255.675781 219.8125 257.347656 219.683594 260.816406 219.425781 C 260.816406 221.480469 260.816406 222.511719 260.816406 224.566406 C 257.476562 224.949219 255.675781 225.078125 252.335938 225.335938 C 252.335938 228.933594 252.335938 232.53125 252.335938 236.128906 C 256.191406 235.742188 258.117188 235.613281 261.972656 235.230469 C 261.972656 237.285156 261.972656 238.3125 261.972656 240.242188 C 257.21875 240.753906 252.335938 241.269531 247.453125 241.78125 Z M 247.453125 241.78125 " fill-opacity="1" fill-rule="nonzero"/><g clip-path="url(#d3479f6f6a)"><path fill="#000000" d="M 143.601562 210.058594 C 143.667969 209.964844 143.804688 209.964844 143.871094 210.058594 C 143.878906 210.066406 143.890625 210.070312 143.898438 210.0625 C 144 210.011719 144.121094 210.070312 144.144531 210.179688 C 144.144531 210.191406 144.15625 210.199219 144.167969 210.199219 C 144.28125 210.195312 144.363281 210.300781 144.335938 210.410156 C 144.332031 210.421875 144.335938 210.433594 144.347656 210.4375 C 144.453125 210.480469 144.480469 210.613281 144.40625 210.699219 C 144.398438 210.707031 144.398438 210.722656 144.40625 210.730469 C 144.480469 210.816406 144.453125 210.949219 144.347656 210.992188 C 144.335938 210.996094 144.332031 211.007812 144.335938 211.019531 C 144.363281 211.128906 144.28125 211.234375 144.167969 211.230469 C 144.15625 211.230469 144.144531 211.238281 144.144531 211.25 C 144.121094 211.359375 144 211.421875 143.898438 211.367188 C 143.890625 211.359375 143.878906 211.363281 143.871094 211.371094 C 143.804688 211.464844 143.667969 211.464844 143.601562 211.371094 C 143.59375 211.363281 143.582031 211.359375 143.574219 211.367188 C 143.472656 211.421875 143.347656 211.359375 143.328125 211.25 C 143.328125 211.238281 143.316406 211.230469 143.304688 211.230469 C 143.191406 211.234375 143.105469 211.128906 143.136719 211.019531 C 143.140625 211.007812 143.136719 210.996094 143.125 210.992188 C 143.019531 210.949219 142.988281 210.816406 143.066406 210.730469 C 143.070312 210.722656 143.070312 210.707031 143.066406 210.699219 C 142.988281 210.613281 143.019531 210.480469 143.125 210.4375 C 143.136719 210.433594 143.140625 210.421875 143.136719 210.410156 C 143.105469 210.300781 143.191406 210.195312 143.304688 210.199219 C 143.316406 210.199219 143.328125 210.191406 143.328125 210.179688 C 143.347656 210.070312 143.472656 210.011719 143.574219 210.0625 C 143.582031 210.070312 143.59375 210.066406 143.601562 210.058594 Z M 143.753906 210.140625 C 143.746094 210.128906 143.726562 210.128906 143.71875 210.140625 C 143.667969 210.210938 143.578125 210.230469 143.503906 210.191406 C 143.492188 210.183594 143.472656 210.191406 143.472656 210.207031 C 143.457031 210.289062 143.382812 210.347656 143.300781 210.34375 C 143.285156 210.34375 143.273438 210.355469 143.277344 210.371094 C 143.300781 210.453125 143.257812 210.535156 143.179688 210.570312 C 143.167969 210.574219 143.164062 210.59375 143.171875 210.605469 C 143.226562 210.667969 143.226562 210.761719 143.171875 210.824219 C 143.164062 210.835938 143.167969 210.855469 143.179688 210.859375 C 143.257812 210.894531 143.300781 210.976562 143.277344 211.058594 C 143.273438 211.074219 143.285156 211.085938 143.300781 211.085938 C 143.382812 211.082031 143.457031 211.140625 143.472656 211.222656 C 143.472656 211.238281 143.492188 211.246094 143.503906 211.238281 C 143.578125 211.199219 143.667969 211.21875 143.71875 211.289062 C 143.726562 211.300781 143.746094 211.300781 143.753906 211.289062 C 143.804688 211.21875 143.894531 211.199219 143.96875 211.238281 C 143.980469 211.246094 144 211.238281 144 211.222656 C 144.015625 211.140625 144.089844 211.082031 144.171875 211.085938 C 144.1875 211.085938 144.199219 211.074219 144.195312 211.058594 C 144.171875 210.976562 144.214844 210.894531 144.289062 210.859375 C 144.304688 210.855469 144.308594 210.835938 144.300781 210.824219 C 144.242188 210.761719 144.242188 210.667969 144.300781 210.605469 C 144.308594 210.59375 144.304688 210.574219 144.289062 210.570312 C 144.214844 210.535156 144.171875 210.453125 144.195312 210.371094 C 144.199219 210.355469 144.1875 210.34375 144.171875 210.34375 C 144.089844 210.347656 144.015625 210.289062 144 210.207031 C 144 210.191406 143.980469 210.183594 143.96875 210.191406 C 143.894531 210.230469 143.804688 210.210938 143.753906 210.140625 Z M 143.753906 210.140625 " fill-opacity="1" fill-rule="evenodd"/></g><g clip-path="url(#ab79d89016)"><path fill="#000000" d="M 144.050781 210.636719 L 143.722656 210.960938 C 143.707031 210.976562 143.691406 210.984375 143.671875 210.984375 C 143.652344 210.984375 143.632812 210.976562 143.621094 210.960938 L 143.421875 210.765625 L 143.523438 210.664062 L 143.671875 210.808594 L 143.949219 210.53125 Z M 144.050781 210.636719 " fill-opacity="1" fill-rule="evenodd"/></g><g clip-path="url(#b08b9cde4a)"><path fill="#000000" d="M 143.734375 210.359375 C 143.539062 210.359375 143.382812 210.519531 143.382812 210.714844 C 143.382812 210.910156 143.539062 211.070312 143.734375 211.070312 C 143.929688 211.070312 144.089844 210.910156 144.089844 210.714844 C 144.089844 210.519531 143.929688 210.359375 143.734375 210.359375 Z M 143.238281 210.714844 C 143.238281 210.441406 143.460938 210.214844 143.734375 210.214844 C 144.011719 210.214844 144.234375 210.441406 144.234375 210.714844 C 144.234375 210.988281 144.011719 211.214844 143.734375 211.214844 C 143.460938 211.214844 143.238281 210.988281 143.238281 210.714844 Z M 143.238281 210.714844 " fill-opacity="1" fill-rule="evenodd"/></g></svg>