<svg xmlns="http://www.w3.org/2000/svg" xmlns:xlink="http://www.w3.org/1999/xlink" width="500" zoomAndPan="magnify" viewBox="0 0 375 374.999991" height="500" preserveAspectRatio="xMidYMid meet" version="1.0"><defs><clipPath id="7c6bed255e"><path d="M 208 259 L 341.976562 259 L 341.976562 375 L 208 375 Z M 208 259 " clip-rule="nonzero"/></clipPath><clipPath id="0e308817a6"><path d="M 62.226562 222 L 135 222 L 135 285 L 62.226562 285 Z M 62.226562 222 " clip-rule="nonzero"/></clipPath><clipPath id="104088e3f4"><path d="M 348 261 L 349 261 L 349 261.636719 L 348 261.636719 Z M 348 261 " clip-rule="nonzero"/></clipPath><clipPath id="1fa8861581"><path d="M 348 260.136719 L 349 260.136719 L 349 261 L 348 261 Z M 348 260.136719 " clip-rule="nonzero"/></clipPath><clipPath id="57e915e9a9"><path d="M 348 260.136719 L 349.160156 260.136719 L 349.160156 261 L 348 261 Z M 348 260.136719 " clip-rule="nonzero"/></clipPath><clipPath id="c1021b4089"><path d="M 348 260.136719 L 349 260.136719 L 349 261 L 348 261 Z M 348 260.136719 " clip-rule="nonzero"/></clipPath><clipPath id="01747d67c2"><path d="M 349 260.136719 L 349.160156 260.136719 L 349.160156 261 L 349 261 Z M 349 260.136719 " clip-rule="nonzero"/></clipPath><clipPath id="13c8c51e75"><path d="M 348 261 L 349 261 L 349 261.636719 L 348 261.636719 Z M 348 261 " clip-rule="nonzero"/></clipPath><clipPath id="607b436c67"><path d="M 348 260.136719 L 349 260.136719 L 349 261 L 348 261 Z M 348 260.136719 " clip-rule="nonzero"/></clipPath><clipPath id="42249d4cd7"><path d="M 348 260.136719 L 349 260.136719 L 349 261.636719 L 348 261.636719 Z M 348 260.136719 " clip-rule="nonzero"/></clipPath><clipPath id="b95908cc59"><path d="M 348 260.136719 L 349 260.136719 L 349 261 L 348 261 Z M 348 260.136719 " clip-rule="nonzero"/></clipPath><clipPath id="54d3dbf6a5"><path d="M 348 261 L 349 261 L 349 261.636719 L 348 261.636719 Z M 348 261 " clip-rule="nonzero"/></clipPath><clipPath id="bce2acd10b"><path d="M 348 260.136719 L 349 260.136719 L 349 261.636719 L 348 261.636719 Z M 348 260.136719 " clip-rule="nonzero"/></clipPath><clipPath id="c62c84cfe1"><path d="M 348 260.136719 L 349 260.136719 L 349 261 L 348 261 Z M 348 260.136719 " clip-rule="nonzero"/></clipPath><clipPath id="de18adb7b8"><path d="M 347.660156 260.136719 L 349 260.136719 L 349 261.636719 L 347.660156 261.636719 Z M 347.660156 260.136719 " clip-rule="nonzero"/></clipPath><clipPath id="ed271f93f4"><path d="M 347.660156 260.136719 L 349 260.136719 L 349 261 L 347.660156 261 Z M 347.660156 260.136719 " clip-rule="nonzero"/></clipPath><clipPath id="459bbbb525"><path d="M 347.660156 260.136719 L 349 260.136719 L 349 261.636719 L 347.660156 261.636719 Z M 347.660156 260.136719 " clip-rule="nonzero"/></clipPath><clipPath id="72400ff713"><path d="M 347.660156 261 L 349 261 L 349 261.636719 L 347.660156 261.636719 Z M 347.660156 261 " clip-rule="nonzero"/></clipPath><clipPath id="9603c35fde"><path d="M 348 261 L 349 261 L 349 261.636719 L 348 261.636719 Z M 348 261 " clip-rule="nonzero"/></clipPath><clipPath id="bc33d71008"><path d="M 348 260.136719 L 349 260.136719 L 349 261 L 348 261 Z M 348 260.136719 " clip-rule="nonzero"/></clipPath><clipPath id="5f246df42c"><path d="M 347.660156 260.136719 L 349 260.136719 L 349 261 L 347.660156 261 Z M 347.660156 260.136719 " clip-rule="nonzero"/></clipPath><clipPath id="a363b00881"><path d="M 348 260.136719 L 349 260.136719 L 349 261 L 348 261 Z M 348 260.136719 " clip-rule="nonzero"/></clipPath><clipPath id="0e290c3585"><path d="M 347.660156 260.136719 L 348 260.136719 L 348 261 L 347.660156 261 Z M 347.660156 260.136719 " clip-rule="nonzero"/></clipPath><clipPath id="49392eb924"><path d="M 347.660156 260.136719 L 349 260.136719 L 349 261 L 347.660156 261 Z M 347.660156 260.136719 " clip-rule="nonzero"/></clipPath><clipPath id="42dc9d4b25"><path d="M 348 260.136719 L 349 260.136719 L 349 261 L 348 261 Z M 348 260.136719 " clip-rule="nonzero"/></clipPath></defs><path fill="#04e1f9" d="M 196.859375 69.917969 L 229.335938 126.085938 L 196.859375 182.253906 L 131.917969 182.253906 L 99.445312 126.085938 L 131.917969 69.917969 L 196.859375 69.917969 M 197.875 68.164062 L 130.902344 68.164062 L 97.417969 126.085938 L 130.902344 184.007812 L 197.875 184.007812 L 231.363281 126.085938 Z M 197.875 68.164062 " fill-opacity="1" fill-rule="nonzero"/><g clip-path="url(#7c6bed255e)"><path fill="#04e1f9" d="M 307.46875 260.828125 L 339.941406 316.996094 L 307.46875 373.164062 L 242.523438 373.164062 L 210.050781 316.996094 L 242.523438 260.828125 L 307.46875 260.828125 M 308.480469 259.074219 L 241.507812 259.074219 L 208.023438 316.996094 L 241.507812 374.917969 L 308.480469 374.917969 L 341.96875 316.996094 Z M 308.480469 259.074219 " fill-opacity="1" fill-rule="nonzero"/></g><path fill="#04e1f9" d="M 233.523438 126.085938 C 233.523438 126.394531 233.496094 126.703125 233.433594 127.007812 C 233.375 127.3125 233.285156 127.605469 233.164062 127.894531 C 233.046875 128.179688 232.898438 128.453125 232.726562 128.710938 C 232.554688 128.96875 232.359375 129.207031 232.140625 129.425781 C 231.917969 129.644531 231.679688 129.839844 231.421875 130.015625 C 231.164062 130.1875 230.890625 130.332031 230.605469 130.449219 C 230.316406 130.570312 230.023438 130.660156 229.71875 130.71875 C 229.414062 130.78125 229.105469 130.808594 228.792969 130.808594 C 228.484375 130.808594 228.175781 130.78125 227.871094 130.71875 C 227.566406 130.660156 227.269531 130.570312 226.984375 130.449219 C 226.695312 130.332031 226.425781 130.1875 226.164062 130.015625 C 225.90625 129.839844 225.667969 129.644531 225.449219 129.425781 C 225.230469 129.207031 225.035156 128.96875 224.859375 128.710938 C 224.6875 128.453125 224.542969 128.179688 224.421875 127.894531 C 224.304688 127.605469 224.214844 127.3125 224.15625 127.007812 C 224.09375 126.703125 224.0625 126.394531 224.0625 126.085938 C 224.0625 125.777344 224.09375 125.46875 224.15625 125.164062 C 224.214844 124.859375 224.304688 124.5625 224.421875 124.277344 C 224.542969 123.992188 224.6875 123.71875 224.859375 123.460938 C 225.035156 123.203125 225.230469 122.964844 225.449219 122.746094 C 225.667969 122.527344 225.90625 122.328125 226.164062 122.15625 C 226.425781 121.984375 226.695312 121.839844 226.984375 121.722656 C 227.269531 121.601562 227.566406 121.511719 227.871094 121.453125 C 228.175781 121.390625 228.484375 121.359375 228.792969 121.359375 C 229.105469 121.359375 229.414062 121.390625 229.71875 121.453125 C 230.023438 121.511719 230.316406 121.601562 230.605469 121.722656 C 230.890625 121.839844 231.164062 121.984375 231.421875 122.15625 C 231.679688 122.328125 231.917969 122.527344 232.140625 122.746094 C 232.359375 122.964844 232.554688 123.203125 232.726562 123.460938 C 232.898438 123.71875 233.046875 123.992188 233.164062 124.277344 C 233.285156 124.5625 233.375 124.859375 233.433594 125.164062 C 233.496094 125.46875 233.523438 125.777344 233.523438 126.085938 Z M 233.523438 126.085938 " fill-opacity="1" fill-rule="nonzero"/><path fill="#04e1f9" d="M 201.71875 68.890625 C 201.71875 69.203125 201.6875 69.507812 201.628906 69.8125 C 201.566406 70.117188 201.476562 70.414062 201.359375 70.699219 C 201.238281 70.988281 201.09375 71.257812 200.921875 71.515625 C 200.75 71.773438 200.554688 72.011719 200.332031 72.234375 C 200.113281 72.453125 199.875 72.648438 199.617188 72.820312 C 199.359375 72.992188 199.085938 73.136719 198.796875 73.257812 C 198.511719 73.375 198.214844 73.464844 197.910156 73.527344 C 197.605469 73.585938 197.296875 73.617188 196.988281 73.617188 C 196.675781 73.617188 196.371094 73.585938 196.066406 73.527344 C 195.761719 73.464844 195.464844 73.375 195.175781 73.257812 C 194.890625 73.136719 194.617188 72.992188 194.359375 72.820312 C 194.101562 72.648438 193.863281 72.453125 193.644531 72.234375 C 193.421875 72.011719 193.226562 71.773438 193.054688 71.515625 C 192.882812 71.257812 192.734375 70.988281 192.617188 70.699219 C 192.5 70.414062 192.410156 70.117188 192.347656 69.8125 C 192.289062 69.507812 192.257812 69.203125 192.257812 68.890625 C 192.257812 68.582031 192.289062 68.273438 192.347656 67.96875 C 192.410156 67.664062 192.5 67.371094 192.617188 67.082031 C 192.734375 66.796875 192.882812 66.523438 193.054688 66.265625 C 193.226562 66.007812 193.421875 65.769531 193.644531 65.550781 C 193.863281 65.332031 194.101562 65.136719 194.359375 64.964844 C 194.617188 64.792969 194.890625 64.644531 195.175781 64.527344 C 195.464844 64.410156 195.761719 64.320312 196.066406 64.257812 C 196.371094 64.199219 196.675781 64.167969 196.988281 64.167969 C 197.296875 64.167969 197.605469 64.199219 197.910156 64.257812 C 198.214844 64.320312 198.511719 64.410156 198.796875 64.527344 C 199.085938 64.644531 199.359375 64.792969 199.617188 64.964844 C 199.875 65.136719 200.113281 65.332031 200.332031 65.550781 C 200.554688 65.769531 200.75 66.007812 200.921875 66.265625 C 201.09375 66.523438 201.238281 66.796875 201.359375 67.082031 C 201.476562 67.371094 201.566406 67.664062 201.628906 67.96875 C 201.6875 68.273438 201.71875 68.582031 201.71875 68.890625 Z M 201.71875 68.890625 " fill-opacity="1" fill-rule="nonzero"/><path fill="#04e1f9" d="M 196.859375 195.363281 L 229.335938 251.53125 L 196.859375 307.699219 L 131.917969 307.699219 L 99.445312 251.53125 L 131.917969 195.363281 L 196.859375 195.363281 M 197.875 193.609375 L 130.902344 193.609375 L 97.417969 251.53125 L 130.902344 309.453125 L 197.875 309.453125 L 231.363281 251.53125 Z M 197.875 193.609375 " fill-opacity="1" fill-rule="nonzero"/><path fill="#04e1f9" d="M 201.519531 195.152344 C 201.519531 195.464844 201.488281 195.769531 201.425781 196.074219 C 201.367188 196.378906 201.277344 196.675781 201.15625 196.960938 C 201.039062 197.25 200.894531 197.519531 200.722656 197.777344 C 200.546875 198.035156 200.351562 198.273438 200.132812 198.496094 C 199.914062 198.714844 199.675781 198.910156 199.414062 199.082031 C 199.15625 199.253906 198.882812 199.398438 198.597656 199.519531 C 198.3125 199.636719 198.015625 199.726562 197.710938 199.789062 C 197.40625 199.847656 197.097656 199.878906 196.789062 199.878906 C 196.476562 199.878906 196.167969 199.847656 195.863281 199.789062 C 195.558594 199.726562 195.265625 199.636719 194.976562 199.519531 C 194.691406 199.398438 194.417969 199.253906 194.160156 199.082031 C 193.902344 198.910156 193.660156 198.714844 193.441406 198.496094 C 193.222656 198.273438 193.027344 198.035156 192.855469 197.777344 C 192.679688 197.519531 192.535156 197.25 192.417969 196.960938 C 192.296875 196.675781 192.207031 196.378906 192.148438 196.074219 C 192.085938 195.769531 192.054688 195.464844 192.054688 195.152344 C 192.054688 194.84375 192.085938 194.535156 192.148438 194.230469 C 192.207031 193.929688 192.296875 193.632812 192.417969 193.347656 C 192.535156 193.058594 192.679688 192.785156 192.855469 192.527344 C 193.027344 192.269531 193.222656 192.03125 193.441406 191.8125 C 193.660156 191.59375 193.902344 191.398438 194.160156 191.226562 C 194.417969 191.054688 194.691406 190.90625 194.976562 190.789062 C 195.265625 190.671875 195.558594 190.582031 195.863281 190.519531 C 196.167969 190.460938 196.476562 190.429688 196.789062 190.429688 C 197.097656 190.429688 197.40625 190.460938 197.710938 190.519531 C 198.015625 190.582031 198.3125 190.671875 198.597656 190.789062 C 198.882812 190.90625 199.15625 191.054688 199.414062 191.226562 C 199.671875 191.398438 199.914062 191.59375 200.132812 191.8125 C 200.351562 192.03125 200.546875 192.269531 200.722656 192.527344 C 200.894531 192.785156 201.039062 193.058594 201.15625 193.347656 C 201.277344 193.632812 201.367188 193.929688 201.425781 194.230469 C 201.488281 194.535156 201.519531 194.84375 201.519531 195.152344 Z M 201.519531 195.152344 " fill-opacity="1" fill-rule="nonzero"/><path fill="#04e1f9" d="M 233.894531 251.53125 C 233.894531 251.839844 233.863281 252.148438 233.800781 252.453125 C 233.742188 252.757812 233.652344 253.050781 233.53125 253.339844 C 233.414062 253.625 233.269531 253.898438 233.09375 254.15625 C 232.921875 254.414062 232.726562 254.652344 232.507812 254.871094 C 232.289062 255.089844 232.046875 255.285156 231.789062 255.460938 C 231.53125 255.632812 231.257812 255.777344 230.972656 255.894531 C 230.683594 256.015625 230.390625 256.105469 230.085938 256.164062 C 229.78125 256.226562 229.472656 256.253906 229.164062 256.253906 C 228.851562 256.253906 228.542969 256.226562 228.238281 256.164062 C 227.933594 256.105469 227.640625 256.015625 227.351562 255.894531 C 227.066406 255.777344 226.792969 255.632812 226.535156 255.460938 C 226.277344 255.285156 226.035156 255.089844 225.816406 254.871094 C 225.597656 254.652344 225.402344 254.414062 225.230469 254.15625 C 225.054688 253.898438 224.910156 253.625 224.792969 253.339844 C 224.671875 253.050781 224.582031 252.757812 224.523438 252.453125 C 224.460938 252.148438 224.429688 251.839844 224.429688 251.53125 C 224.429688 251.21875 224.460938 250.914062 224.523438 250.609375 C 224.582031 250.304688 224.671875 250.007812 224.792969 249.722656 C 224.910156 249.4375 225.054688 249.164062 225.230469 248.90625 C 225.402344 248.648438 225.597656 248.410156 225.816406 248.191406 C 226.035156 247.972656 226.277344 247.773438 226.535156 247.601562 C 226.792969 247.429688 227.066406 247.285156 227.351562 247.164062 C 227.640625 247.046875 227.933594 246.957031 228.238281 246.898438 C 228.542969 246.835938 228.851562 246.804688 229.164062 246.804688 C 229.472656 246.804688 229.78125 246.835938 230.085938 246.898438 C 230.390625 246.957031 230.683594 247.046875 230.972656 247.164062 C 231.257812 247.285156 231.53125 247.429688 231.789062 247.601562 C 232.046875 247.773438 232.289062 247.972656 232.507812 248.191406 C 232.726562 248.410156 232.921875 248.648438 233.09375 248.90625 C 233.269531 249.164062 233.414062 249.4375 233.53125 249.722656 C 233.652344 250.007812 233.742188 250.304688 233.800781 250.609375 C 233.863281 250.914062 233.894531 251.21875 233.894531 251.53125 Z M 233.894531 251.53125 " fill-opacity="1" fill-rule="nonzero"/><path fill="#04e1f9" d="M 246.492188 259.890625 C 246.492188 260.203125 246.464844 260.507812 246.402344 260.8125 C 246.339844 261.117188 246.253906 261.414062 246.132812 261.699219 C 246.015625 261.988281 245.867188 262.257812 245.695312 262.515625 C 245.523438 262.773438 245.328125 263.011719 245.109375 263.234375 C 244.886719 263.453125 244.648438 263.648438 244.390625 263.820312 C 244.132812 263.992188 243.859375 264.136719 243.574219 264.257812 C 243.285156 264.375 242.988281 264.464844 242.683594 264.527344 C 242.378906 264.585938 242.074219 264.617188 241.761719 264.617188 C 241.453125 264.617188 241.144531 264.585938 240.839844 264.527344 C 240.535156 264.464844 240.238281 264.375 239.953125 264.257812 C 239.664062 264.136719 239.390625 263.992188 239.132812 263.820312 C 238.875 263.648438 238.636719 263.453125 238.417969 263.234375 C 238.199219 263.011719 238 262.773438 237.828125 262.515625 C 237.65625 262.257812 237.511719 261.988281 237.390625 261.699219 C 237.273438 261.414062 237.183594 261.117188 237.121094 260.8125 C 237.0625 260.507812 237.03125 260.203125 237.03125 259.890625 C 237.03125 259.582031 237.0625 259.273438 237.121094 258.96875 C 237.183594 258.667969 237.273438 258.371094 237.390625 258.085938 C 237.511719 257.796875 237.65625 257.523438 237.828125 257.265625 C 238 257.007812 238.199219 256.769531 238.417969 256.550781 C 238.636719 256.332031 238.875 256.136719 239.132812 255.964844 C 239.390625 255.792969 239.664062 255.644531 239.953125 255.527344 C 240.238281 255.410156 240.535156 255.320312 240.839844 255.257812 C 241.144531 255.199219 241.453125 255.167969 241.761719 255.167969 C 242.074219 255.167969 242.378906 255.199219 242.683594 255.257812 C 242.988281 255.320312 243.285156 255.410156 243.574219 255.527344 C 243.859375 255.644531 244.132812 255.792969 244.390625 255.964844 C 244.648438 256.136719 244.886719 256.332031 245.109375 256.550781 C 245.328125 256.769531 245.523438 257.007812 245.695312 257.265625 C 245.867188 257.523438 246.015625 257.796875 246.132812 258.085938 C 246.253906 258.371094 246.339844 258.667969 246.402344 258.96875 C 246.464844 259.273438 246.492188 259.582031 246.492188 259.890625 Z M 246.492188 259.890625 " fill-opacity="1" fill-rule="nonzero"/><path fill="#04e1f9" d="M 312.410156 260 C 312.410156 260.3125 312.378906 260.617188 312.320312 260.921875 C 312.257812 261.226562 312.167969 261.523438 312.050781 261.808594 C 311.933594 262.09375 311.785156 262.367188 311.613281 262.625 C 311.441406 262.882812 311.246094 263.121094 311.023438 263.339844 C 310.804688 263.5625 310.566406 263.757812 310.308594 263.929688 C 310.050781 264.101562 309.777344 264.246094 309.492188 264.367188 C 309.203125 264.484375 308.90625 264.574219 308.601562 264.632812 C 308.296875 264.695312 307.992188 264.726562 307.679688 264.726562 C 307.371094 264.726562 307.0625 264.695312 306.757812 264.632812 C 306.453125 264.574219 306.15625 264.484375 305.871094 264.367188 C 305.582031 264.246094 305.308594 264.101562 305.050781 263.929688 C 304.792969 263.757812 304.554688 263.5625 304.335938 263.339844 C 304.117188 263.121094 303.917969 262.882812 303.746094 262.625 C 303.574219 262.367188 303.429688 262.09375 303.308594 261.808594 C 303.191406 261.523438 303.101562 261.226562 303.039062 260.921875 C 302.980469 260.617188 302.949219 260.3125 302.949219 260 C 302.949219 259.691406 302.980469 259.382812 303.039062 259.078125 C 303.101562 258.773438 303.191406 258.480469 303.308594 258.191406 C 303.429688 257.90625 303.574219 257.632812 303.746094 257.375 C 303.917969 257.117188 304.117188 256.878906 304.335938 256.660156 C 304.554688 256.441406 304.792969 256.246094 305.050781 256.074219 C 305.308594 255.902344 305.582031 255.753906 305.871094 255.636719 C 306.15625 255.515625 306.453125 255.429688 306.757812 255.367188 C 307.0625 255.308594 307.371094 255.277344 307.679688 255.277344 C 307.992188 255.277344 308.296875 255.308594 308.601562 255.367188 C 308.90625 255.429688 309.203125 255.519531 309.492188 255.636719 C 309.777344 255.753906 310.050781 255.902344 310.308594 256.074219 C 310.566406 256.246094 310.804688 256.441406 311.023438 256.660156 C 311.246094 256.878906 311.441406 257.117188 311.613281 257.375 C 311.785156 257.632812 311.933594 257.90625 312.050781 258.191406 C 312.167969 258.480469 312.257812 258.773438 312.320312 259.078125 C 312.378906 259.382812 312.410156 259.691406 312.410156 260 Z M 312.410156 260 " fill-opacity="1" fill-rule="nonzero"/><path fill="#04e1f9" d="M 260.011719 213.925781 L 260.230469 213.925781 C 260.226562 213.886719 260.226562 213.851562 260.226562 213.816406 C 260.226562 213.769531 260.230469 213.722656 260.234375 213.675781 L 260.011719 213.675781 C 260.007812 213.722656 260.007812 213.769531 260.007812 213.816406 C 260.003906 213.851562 260.007812 213.886719 260.011719 213.925781 Z M 260.011719 213.925781 " fill-opacity="1" fill-rule="nonzero"/><path fill="#04e1f9" d="M 257.125 253.234375 L 239.339844 253.234375 L 231.390625 239.484375 C 231.261719 239.558594 231.121094 239.621094 230.976562 239.660156 L 239.082031 253.683594 L 257.382812 253.683594 L 265.527344 239.597656 C 265.386719 239.539062 265.253906 239.46875 265.132812 239.378906 Z M 257.125 253.234375 " fill-opacity="1" fill-rule="nonzero"/><path fill="#04e1f9" d="M 239.339844 222.472656 L 246.675781 222.472656 L 246.933594 222.023438 L 239.082031 222.023438 L 230.976562 236.046875 C 231.125 236.089844 231.261719 236.148438 231.390625 236.222656 Z M 239.339844 222.472656 " fill-opacity="1" fill-rule="nonzero"/><path fill="#04e1f9" d="M 265.136719 236.328125 C 265.253906 236.238281 265.386719 236.164062 265.527344 236.109375 L 262.332031 230.582031 L 262.074219 231.03125 Z M 265.136719 236.328125 " fill-opacity="1" fill-rule="nonzero"/><path fill="#04e1f9" d="M 261.929688 230.78125 L 262.1875 230.332031 L 257.386719 222.023438 L 247.222656 222.023438 L 246.964844 222.472656 L 257.125 222.472656 Z M 261.929688 230.78125 " fill-opacity="1" fill-rule="nonzero"/><path fill="#04e1f9" d="M 251.90625 213.925781 L 260.011719 213.925781 C 260.007812 213.886719 260.007812 213.851562 260.007812 213.816406 C 260.007812 213.769531 260.007812 213.722656 260.011719 213.675781 L 251.761719 213.675781 L 246.933594 222.023438 L 247.222656 222.023438 Z M 251.90625 213.925781 " fill-opacity="1" fill-rule="nonzero"/><path fill="#04e1f9" d="M 261.933594 231.269531 L 262.074219 231.03125 L 261.929688 230.78125 L 261.789062 231.019531 L 251.90625 231.019531 L 246.964844 222.472656 L 246.675781 222.472656 L 251.761719 231.269531 Z M 261.933594 231.269531 " fill-opacity="1" fill-rule="nonzero"/><path fill="#04e1f9" d="M 266.734375 222.472656 L 262.1875 230.332031 L 262.332031 230.582031 L 267.019531 222.472656 L 262.882812 215.316406 C 262.816406 215.363281 262.742188 215.40625 262.667969 215.445312 Z M 266.734375 222.472656 " fill-opacity="1" fill-rule="nonzero"/><path fill="#04e1f9" d="M 261.929688 230.78125 L 262.074219 231.03125 L 262.332031 230.582031 L 262.1875 230.332031 Z M 261.929688 230.78125 " fill-opacity="1" fill-rule="nonzero"/><path fill="#04e1f9" d="M 246.964844 222.472656 L 247.222656 222.023438 L 246.933594 222.023438 L 246.675781 222.472656 Z M 246.964844 222.472656 " fill-opacity="1" fill-rule="nonzero"/><path fill="#04e1f9" d="M 261.835938 215.644531 C 262.136719 215.644531 262.417969 215.570312 262.667969 215.441406 L 262.558594 215.253906 C 262.34375 215.363281 262.097656 215.425781 261.839844 215.425781 C 260.988281 215.425781 260.289062 214.761719 260.234375 213.925781 L 260.011719 213.925781 C 260.066406 214.882812 260.863281 215.644531 261.835938 215.644531 Z M 261.835938 215.644531 " fill-opacity="1" fill-rule="nonzero"/><path fill="#04e1f9" d="M 261.835938 212.203125 C 262.726562 212.203125 263.449219 212.925781 263.449219 213.8125 C 263.449219 214.351562 263.183594 214.832031 262.773438 215.125 L 262.882812 215.3125 C 263.359375 214.984375 263.671875 214.433594 263.671875 213.8125 C 263.671875 212.804688 262.847656 211.984375 261.839844 211.984375 C 260.875 211.984375 260.085938 212.730469 260.015625 213.675781 L 260.234375 213.675781 C 260.304688 212.851562 260.996094 212.203125 261.835938 212.203125 Z M 261.835938 212.203125 " fill-opacity="1" fill-rule="nonzero"/><path fill="#04e1f9" d="M 262.558594 215.253906 L 262.667969 215.441406 C 262.742188 215.402344 262.8125 215.363281 262.882812 215.3125 L 262.773438 215.125 C 262.703125 215.171875 262.632812 215.214844 262.558594 215.253906 Z M 262.558594 215.253906 " fill-opacity="1" fill-rule="nonzero"/><path fill="#04e1f9" d="M 264.679688 237.851562 C 264.679688 237.347656 264.925781 236.898438 265.300781 236.613281 L 265.136719 236.328125 C 264.664062 236.671875 264.351562 237.226562 264.351562 237.855469 C 264.351562 238.484375 264.660156 239.039062 265.136719 239.382812 L 265.300781 239.097656 C 264.925781 238.808594 264.679688 238.359375 264.679688 237.851562 Z M 264.679688 237.851562 " fill-opacity="1" fill-rule="nonzero"/><path fill="#04e1f9" d="M 266.238281 235.96875 C 265.988281 235.96875 265.746094 236.019531 265.527344 236.109375 L 265.695312 236.398438 C 265.863281 236.335938 266.046875 236.296875 266.238281 236.296875 C 267.097656 236.296875 267.796875 236.996094 267.796875 237.855469 C 267.796875 238.714844 267.097656 239.410156 266.238281 239.410156 C 266.046875 239.410156 265.863281 239.375 265.695312 239.3125 L 265.527344 239.601562 C 265.746094 239.691406 265.988281 239.738281 266.238281 239.738281 C 267.277344 239.738281 268.125 238.894531 268.125 237.855469 C 268.125 236.816406 267.277344 235.96875 266.238281 235.96875 Z M 266.238281 235.96875 " fill-opacity="1" fill-rule="nonzero"/><path fill="#04e1f9" d="M 265.300781 236.613281 C 265.417969 236.523438 265.554688 236.449219 265.695312 236.398438 L 265.527344 236.109375 C 265.390625 236.164062 265.257812 236.238281 265.136719 236.324219 Z M 265.300781 236.613281 " fill-opacity="1" fill-rule="nonzero"/><path fill="#04e1f9" d="M 265.300781 239.09375 L 265.136719 239.378906 C 265.257812 239.46875 265.390625 239.539062 265.53125 239.597656 L 265.699219 239.308594 C 265.554688 239.257812 265.421875 239.183594 265.300781 239.09375 Z M 265.300781 239.09375 " fill-opacity="1" fill-rule="nonzero"/><path fill="#04e1f9" d="M 232.335938 237.851562 C 232.335938 237.15625 231.957031 236.550781 231.390625 236.222656 L 231.226562 236.507812 C 231.695312 236.777344 232.007812 237.277344 232.007812 237.851562 C 232.007812 238.425781 231.691406 238.929688 231.226562 239.199219 L 231.390625 239.484375 C 231.957031 239.15625 232.335938 238.550781 232.335938 237.851562 Z M 232.335938 237.851562 " fill-opacity="1" fill-rule="nonzero"/><path fill="#04e1f9" d="M 230.449219 239.410156 C 229.589844 239.410156 228.890625 238.710938 228.890625 237.851562 C 228.890625 236.996094 229.589844 236.296875 230.449219 236.296875 C 230.574219 236.296875 230.691406 236.3125 230.804688 236.339844 L 230.976562 236.042969 C 230.808594 235.996094 230.632812 235.96875 230.449219 235.96875 C 229.410156 235.96875 228.5625 236.8125 228.5625 237.851562 C 228.5625 238.894531 229.410156 239.738281 230.449219 239.738281 C 230.632812 239.738281 230.808594 239.710938 230.976562 239.664062 L 230.804688 239.367188 C 230.691406 239.394531 230.574219 239.410156 230.449219 239.410156 Z M 230.449219 239.410156 " fill-opacity="1" fill-rule="nonzero"/><path fill="#04e1f9" d="M 231.226562 236.507812 L 231.390625 236.222656 C 231.261719 236.148438 231.121094 236.085938 230.976562 236.046875 L 230.804688 236.339844 C 230.957031 236.375 231.097656 236.433594 231.226562 236.507812 Z M 231.226562 236.507812 " fill-opacity="1" fill-rule="nonzero"/><path fill="#04e1f9" d="M 231.226562 239.199219 C 231.097656 239.273438 230.957031 239.332031 230.804688 239.367188 L 230.976562 239.660156 C 231.125 239.617188 231.261719 239.558594 231.390625 239.484375 Z M 231.226562 239.199219 " fill-opacity="1" fill-rule="nonzero"/><path fill="#04e1f9" d="M 195.246094 355.652344 L 177.460938 355.652344 L 169.511719 341.898438 C 169.382812 341.976562 169.242188 342.035156 169.09375 342.078125 L 177.199219 356.101562 L 195.503906 356.101562 L 203.648438 342.015625 C 203.507812 341.957031 203.375 341.882812 203.253906 341.796875 Z M 195.246094 355.652344 " fill-opacity="1" fill-rule="nonzero"/><path fill="#04e1f9" d="M 177.460938 324.886719 L 184.792969 324.886719 L 185.054688 324.4375 L 177.199219 324.4375 L 169.09375 338.460938 C 169.242188 338.503906 169.382812 338.566406 169.511719 338.640625 Z M 177.460938 324.886719 " fill-opacity="1" fill-rule="nonzero"/><path fill="#04e1f9" d="M 203.253906 338.742188 C 203.375 338.65625 203.507812 338.582031 203.648438 338.523438 L 200.453125 332.996094 L 200.191406 333.445312 Z M 203.253906 338.742188 " fill-opacity="1" fill-rule="nonzero"/><path fill="#04e1f9" d="M 200.046875 333.195312 L 200.308594 332.746094 L 195.503906 324.441406 L 185.34375 324.441406 L 185.082031 324.886719 L 195.246094 324.886719 Z M 200.046875 333.195312 " fill-opacity="1" fill-rule="nonzero"/><path fill="#04e1f9" d="M 190.027344 316.339844 L 198.128906 316.339844 C 198.128906 316.304688 198.125 316.265625 198.125 316.230469 C 198.125 316.183594 198.128906 316.136719 198.132812 316.089844 L 189.882812 316.089844 L 185.054688 324.4375 L 185.34375 324.4375 Z M 190.027344 316.339844 " fill-opacity="1" fill-rule="nonzero"/><path fill="#04e1f9" d="M 200.054688 333.6875 L 200.191406 333.445312 L 200.046875 333.195312 L 199.910156 333.4375 L 190.027344 333.4375 L 185.082031 324.886719 L 184.792969 324.886719 L 189.882812 333.6875 Z M 200.054688 333.6875 " fill-opacity="1" fill-rule="nonzero"/><path fill="#04e1f9" d="M 204.851562 324.886719 L 200.308594 332.746094 L 200.453125 332.996094 L 205.140625 324.886719 L 201.003906 317.730469 C 200.933594 317.777344 200.863281 317.820312 200.789062 317.859375 Z M 204.851562 324.886719 " fill-opacity="1" fill-rule="nonzero"/><path fill="#04e1f9" d="M 200.046875 333.195312 L 200.191406 333.445312 L 200.453125 332.996094 L 200.308594 332.746094 Z M 200.046875 333.195312 " fill-opacity="1" fill-rule="nonzero"/><path fill="#04e1f9" d="M 185.082031 324.886719 L 185.34375 324.441406 L 185.054688 324.441406 L 184.792969 324.886719 Z M 185.082031 324.886719 " fill-opacity="1" fill-rule="nonzero"/><path fill="#04e1f9" d="M 199.957031 318.0625 C 200.257812 318.0625 200.539062 317.988281 200.789062 317.859375 L 200.679688 317.667969 C 200.460938 317.777344 200.21875 317.839844 199.957031 317.839844 C 199.105469 317.839844 198.40625 317.175781 198.351562 316.339844 L 198.132812 316.339844 C 198.1875 317.296875 198.984375 318.0625 199.957031 318.0625 Z M 199.957031 318.0625 " fill-opacity="1" fill-rule="nonzero"/><path fill="#04e1f9" d="M 199.957031 314.621094 C 200.847656 314.621094 201.570312 315.34375 201.570312 316.230469 C 201.570312 316.769531 201.300781 317.246094 200.894531 317.539062 L 201.003906 317.730469 C 201.476562 317.398438 201.789062 316.851562 201.789062 316.230469 C 201.789062 315.222656 200.96875 314.402344 199.957031 314.402344 C 198.996094 314.402344 198.207031 315.148438 198.132812 316.089844 L 198.351562 316.089844 C 198.421875 315.269531 199.113281 314.621094 199.957031 314.621094 Z M 199.957031 314.621094 " fill-opacity="1" fill-rule="nonzero"/><path fill="#04e1f9" d="M 200.679688 317.667969 L 200.789062 317.859375 C 200.859375 317.820312 200.933594 317.777344 201.003906 317.730469 L 200.890625 317.539062 C 200.824219 317.585938 200.753906 317.632812 200.679688 317.667969 Z M 200.679688 317.667969 " fill-opacity="1" fill-rule="nonzero"/><path fill="#04e1f9" d="M 202.796875 340.269531 C 202.796875 339.761719 203.042969 339.3125 203.421875 339.03125 L 203.253906 338.746094 C 202.78125 339.085938 202.46875 339.644531 202.46875 340.273438 C 202.46875 340.898438 202.777344 341.457031 203.253906 341.796875 L 203.421875 341.511719 C 203.042969 341.226562 202.796875 340.777344 202.796875 340.269531 Z M 202.796875 340.269531 " fill-opacity="1" fill-rule="nonzero"/><path fill="#04e1f9" d="M 204.355469 338.386719 C 204.105469 338.386719 203.867188 338.433594 203.648438 338.523438 L 203.816406 338.8125 C 203.984375 338.75 204.167969 338.714844 204.355469 338.714844 C 205.214844 338.714844 205.914062 339.410156 205.914062 340.269531 C 205.914062 341.128906 205.214844 341.824219 204.355469 341.824219 C 204.164062 341.824219 203.984375 341.789062 203.816406 341.726562 L 203.648438 342.015625 C 203.867188 342.105469 204.105469 342.15625 204.355469 342.15625 C 205.398438 342.15625 206.242188 341.308594 206.242188 340.269531 C 206.242188 339.230469 205.398438 338.386719 204.355469 338.386719 Z M 204.355469 338.386719 " fill-opacity="1" fill-rule="nonzero"/><path fill="#04e1f9" d="M 203.421875 339.03125 C 203.539062 338.941406 203.671875 338.867188 203.816406 338.8125 L 203.648438 338.523438 C 203.507812 338.582031 203.375 338.65625 203.253906 338.742188 Z M 203.421875 339.03125 " fill-opacity="1" fill-rule="nonzero"/><path fill="#04e1f9" d="M 203.421875 341.511719 L 203.253906 341.796875 C 203.375 341.882812 203.507812 341.957031 203.648438 342.015625 L 203.816406 341.726562 C 203.671875 341.671875 203.539062 341.601562 203.421875 341.511719 Z M 203.421875 341.511719 " fill-opacity="1" fill-rule="nonzero"/><path fill="#04e1f9" d="M 170.457031 340.269531 C 170.457031 339.574219 170.074219 338.964844 169.511719 338.640625 L 169.347656 338.925781 C 169.8125 339.195312 170.125 339.695312 170.125 340.269531 C 170.125 340.84375 169.8125 341.347656 169.347656 341.617188 L 169.511719 341.898438 C 170.074219 341.574219 170.457031 340.964844 170.457031 340.269531 Z M 170.457031 340.269531 " fill-opacity="1" fill-rule="nonzero"/><path fill="#04e1f9" d="M 168.570312 341.824219 C 167.710938 341.824219 167.011719 341.128906 167.011719 340.269531 C 167.011719 339.410156 167.710938 338.714844 168.570312 338.714844 C 168.691406 338.714844 168.8125 338.730469 168.925781 338.753906 L 169.09375 338.460938 C 168.929688 338.414062 168.75 338.386719 168.570312 338.386719 C 167.527344 338.386719 166.683594 339.230469 166.683594 340.269531 C 166.683594 341.308594 167.527344 342.15625 168.570312 342.15625 C 168.753906 342.15625 168.929688 342.128906 169.09375 342.078125 L 168.925781 341.785156 C 168.8125 341.808594 168.691406 341.824219 168.570312 341.824219 Z M 168.570312 341.824219 " fill-opacity="1" fill-rule="nonzero"/><path fill="#04e1f9" d="M 169.347656 338.925781 L 169.511719 338.640625 C 169.382812 338.566406 169.242188 338.503906 169.09375 338.460938 L 168.925781 338.757812 C 169.074219 338.792969 169.21875 338.847656 169.347656 338.925781 Z M 169.347656 338.925781 " fill-opacity="1" fill-rule="nonzero"/><path fill="#04e1f9" d="M 169.347656 341.617188 C 169.21875 341.691406 169.074219 341.746094 168.925781 341.78125 L 169.09375 342.078125 C 169.242188 342.035156 169.382812 341.976562 169.511719 341.898438 Z M 169.347656 341.617188 " fill-opacity="1" fill-rule="nonzero"/><path fill="#04e1f9" d="M 236.785156 185.398438 C 236.464844 185.398438 236.167969 185.289062 235.929688 185.105469 L 235.601562 185.675781 C 235.847656 185.851562 236.128906 185.972656 236.4375 186.027344 L 236.800781 185.398438 C 236.792969 185.398438 236.789062 185.398438 236.785156 185.398438 Z M 236.785156 185.398438 " fill-opacity="1" fill-rule="nonzero"/><path fill="#04e1f9" d="M 235.929688 182.910156 C 236.167969 182.726562 236.464844 182.617188 236.785156 182.617188 C 236.789062 182.617188 236.792969 182.617188 236.800781 182.617188 L 236.4375 181.992188 C 236.128906 182.042969 235.84375 182.164062 235.597656 182.339844 Z M 235.929688 182.910156 " fill-opacity="1" fill-rule="nonzero"/><path fill="#04e1f9" d="M 185.117188 153.246094 L 218.78125 153.246094 L 235.597656 182.339844 C 235.84375 182.164062 236.128906 182.042969 236.4375 181.992188 L 219.300781 152.347656 L 185.164062 152.347656 C 185.183594 152.460938 185.195312 152.578125 185.195312 152.699219 C 185.195312 152.890625 185.167969 153.070312 185.117188 153.246094 Z M 185.117188 153.246094 " fill-opacity="1" fill-rule="nonzero"/><path fill="#04e1f9" d="M 218.78125 214.769531 L 183.210938 214.769531 L 165.425781 184.007812 L 182.421875 154.613281 C 182.132812 154.503906 181.878906 154.335938 181.667969 154.121094 L 164.386719 184.007812 L 182.691406 215.671875 L 219.300781 215.671875 L 236.4375 186.027344 C 236.128906 185.972656 235.84375 185.855469 235.597656 185.679688 Z M 218.78125 214.769531 " fill-opacity="1" fill-rule="nonzero"/><path fill="#04e1f9" d="M 235.390625 184.007812 C 235.390625 183.5625 235.605469 183.164062 235.929688 182.910156 L 235.601562 182.335938 C 235.078125 182.710938 234.734375 183.316406 234.734375 184.007812 C 234.734375 184.695312 235.078125 185.304688 235.601562 185.675781 L 235.929688 185.105469 C 235.605469 184.851562 235.390625 184.453125 235.390625 184.007812 Z M 235.390625 184.007812 " fill-opacity="1" fill-rule="nonzero"/><path fill="#04e1f9" d="M 236.785156 181.960938 C 236.664062 181.960938 236.550781 181.972656 236.4375 181.992188 L 236.800781 182.617188 C 237.5625 182.625 238.175781 183.246094 238.175781 184.007812 C 238.175781 184.769531 237.558594 185.390625 236.800781 185.398438 L 236.4375 186.027344 C 236.550781 186.046875 236.664062 186.058594 236.785156 186.058594 C 237.914062 186.058594 238.835938 185.140625 238.835938 184.011719 C 238.835938 182.878906 237.914062 181.960938 236.785156 181.960938 Z M 236.785156 181.960938 " fill-opacity="1" fill-rule="nonzero"/><path fill="#04e1f9" d="M 185.117188 153.246094 L 184.425781 153.246094 C 184.210938 153.742188 183.71875 154.089844 183.144531 154.089844 C 183.007812 154.089844 182.882812 154.070312 182.757812 154.035156 L 182.421875 154.613281 C 182.644531 154.699219 182.890625 154.746094 183.144531 154.746094 C 184.085938 154.746094 184.878906 154.109375 185.117188 153.246094 Z M 185.117188 153.246094 " fill-opacity="1" fill-rule="nonzero"/><path fill="#04e1f9" d="M 181.75 152.699219 C 181.75 151.929688 182.375 151.308594 183.144531 151.308594 C 183.792969 151.308594 184.335938 151.75 184.492188 152.347656 L 185.164062 152.347656 C 184.996094 151.386719 184.15625 150.648438 183.144531 150.648438 C 182.011719 150.648438 181.09375 151.570312 181.09375 152.699219 C 181.09375 153.25 181.3125 153.75 181.667969 154.121094 L 182.019531 153.515625 C 181.851562 153.285156 181.75 153.003906 181.75 152.699219 Z M 181.75 152.699219 " fill-opacity="1" fill-rule="nonzero"/><path fill="#04e1f9" d="M 182.421875 154.613281 L 182.757812 154.035156 C 182.457031 153.949219 182.199219 153.761719 182.019531 153.515625 L 181.667969 154.121094 C 181.878906 154.335938 182.136719 154.507812 182.421875 154.613281 Z M 182.421875 154.613281 " fill-opacity="1" fill-rule="nonzero"/><path fill="#04e1f9" d="M 184.535156 152.699219 C 184.535156 152.890625 184.496094 153.078125 184.425781 153.246094 L 185.117188 153.246094 C 185.167969 153.070312 185.195312 152.890625 185.195312 152.699219 C 185.195312 152.578125 185.183594 152.460938 185.164062 152.347656 L 184.492188 152.347656 C 184.519531 152.460938 184.535156 152.578125 184.535156 152.699219 Z M 184.535156 152.699219 " fill-opacity="1" fill-rule="nonzero"/><path fill="#04e1f9" d="M 134.617188 253.769531 C 134.292969 253.769531 134 253.660156 133.761719 253.476562 L 133.433594 254.050781 C 133.675781 254.222656 133.960938 254.34375 134.269531 254.398438 L 134.632812 253.769531 C 134.628906 253.769531 134.621094 253.769531 134.617188 253.769531 Z M 134.617188 253.769531 " fill-opacity="1" fill-rule="nonzero"/><path fill="#04e1f9" d="M 133.761719 251.28125 C 134 251.097656 134.292969 250.988281 134.617188 250.988281 C 134.621094 250.988281 134.625 250.988281 134.632812 250.988281 L 134.269531 250.363281 C 133.960938 250.414062 133.675781 250.535156 133.429688 250.710938 Z M 133.761719 251.28125 " fill-opacity="1" fill-rule="nonzero"/><path fill="#04e1f9" d="M 82.949219 221.617188 L 116.613281 221.617188 L 133.429688 250.710938 C 133.675781 250.539062 133.960938 250.414062 134.269531 250.363281 L 117.132812 220.71875 L 82.996094 220.71875 C 83.015625 220.835938 83.027344 220.949219 83.027344 221.070312 C 83.027344 221.261719 83 221.445312 82.949219 221.617188 Z M 82.949219 221.617188 " fill-opacity="1" fill-rule="nonzero"/><g clip-path="url(#0e308817a6)"><path fill="#04e1f9" d="M 116.613281 283.140625 L 81.042969 283.140625 L 63.261719 252.382812 L 80.253906 222.988281 C 79.96875 222.878906 79.710938 222.710938 79.5 222.492188 L 62.222656 252.382812 L 80.523438 284.042969 L 117.132812 284.042969 L 134.269531 254.402344 C 133.960938 254.347656 133.675781 254.226562 133.429688 254.050781 Z M 116.613281 283.140625 " fill-opacity="1" fill-rule="nonzero"/></g><path fill="#04e1f9" d="M 133.222656 252.378906 C 133.222656 251.933594 133.433594 251.539062 133.761719 251.28125 L 133.433594 250.710938 C 132.910156 251.082031 132.566406 251.691406 132.566406 252.378906 C 132.566406 253.066406 132.910156 253.675781 133.433594 254.050781 L 133.761719 253.476562 C 133.433594 253.222656 133.222656 252.824219 133.222656 252.378906 Z M 133.222656 252.378906 " fill-opacity="1" fill-rule="nonzero"/><path fill="#04e1f9" d="M 134.617188 250.332031 C 134.496094 250.332031 134.382812 250.34375 134.269531 250.363281 L 134.632812 250.988281 C 135.394531 251 136.007812 251.617188 136.007812 252.382812 C 136.007812 253.144531 135.390625 253.761719 134.632812 253.773438 L 134.269531 254.398438 C 134.382812 254.417969 134.496094 254.429688 134.617188 254.429688 C 135.746094 254.429688 136.667969 253.511719 136.667969 252.382812 C 136.667969 251.25 135.75 250.332031 134.617188 250.332031 Z M 134.617188 250.332031 " fill-opacity="1" fill-rule="nonzero"/><path fill="#04e1f9" d="M 82.949219 221.617188 L 82.257812 221.617188 C 82.042969 222.113281 81.550781 222.460938 80.976562 222.460938 C 80.839844 222.460938 80.710938 222.441406 80.589844 222.40625 L 80.253906 222.984375 C 80.476562 223.070312 80.71875 223.117188 80.972656 223.117188 C 81.917969 223.117188 82.710938 222.480469 82.949219 221.617188 Z M 82.949219 221.617188 " fill-opacity="1" fill-rule="nonzero"/><path fill="#04e1f9" d="M 79.582031 221.070312 C 79.582031 220.304688 80.207031 219.679688 80.976562 219.679688 C 81.625 219.679688 82.167969 220.121094 82.320312 220.71875 L 82.996094 220.71875 C 82.828125 219.757812 81.988281 219.019531 80.976562 219.019531 C 79.84375 219.019531 78.925781 219.941406 78.925781 221.070312 C 78.925781 221.621094 79.144531 222.121094 79.5 222.492188 L 79.851562 221.886719 C 79.683594 221.65625 79.582031 221.375 79.582031 221.070312 Z M 79.582031 221.070312 " fill-opacity="1" fill-rule="nonzero"/><path fill="#04e1f9" d="M 80.253906 222.984375 L 80.589844 222.40625 C 80.289062 222.320312 80.03125 222.132812 79.851562 221.886719 L 79.503906 222.492188 C 79.710938 222.707031 79.96875 222.878906 80.253906 222.984375 Z M 80.253906 222.984375 " fill-opacity="1" fill-rule="nonzero"/><path fill="#04e1f9" d="M 82.367188 221.070312 C 82.367188 221.265625 82.328125 221.449219 82.257812 221.617188 L 82.949219 221.617188 C 83 221.445312 83.027344 221.261719 83.027344 221.070312 C 83.027344 220.949219 83.015625 220.835938 82.996094 220.71875 L 82.320312 220.71875 C 82.351562 220.832031 82.367188 220.949219 82.367188 221.070312 Z M 82.367188 221.070312 " fill-opacity="1" fill-rule="nonzero"/><path fill="#04e1f9" d="M 161.5625 38.867188 L 178.5 68.164062 L 160.714844 98.925781 L 125.144531 98.925781 L 107.363281 68.164062 L 125.144531 37.402344 L 158.871094 37.402344 C 158.835938 37.253906 158.816406 37.101562 158.816406 36.941406 C 158.816406 36.792969 158.832031 36.644531 158.863281 36.503906 L 124.628906 36.503906 L 106.324219 68.164062 L 124.625 99.824219 L 161.234375 99.824219 L 179.535156 68.164062 L 162.320312 38.386719 C 162.109375 38.597656 161.851562 38.761719 161.5625 38.867188 Z M 161.5625 38.867188 " fill-opacity="1" fill-rule="nonzero"/><path fill="#04e1f9" d="M 217.066406 62.503906 L 183.214844 62.503906 L 166.320312 33.28125 C 166.09375 33.480469 165.824219 33.628906 165.53125 33.714844 L 182.695312 63.402344 L 217.109375 63.402344 C 217.0625 63.230469 217.035156 63.050781 217.035156 62.863281 C 217.03125 62.738281 217.046875 62.621094 217.066406 62.503906 Z M 217.066406 62.503906 " fill-opacity="1" fill-rule="nonzero"/><path fill="#04e1f9" d="M 219.703125 60.910156 C 219.996094 61.003906 220.257812 61.160156 220.476562 61.363281 L 236.421875 33.785156 C 236.101562 33.761719 235.804688 33.667969 235.539062 33.515625 Z M 219.703125 60.910156 " fill-opacity="1" fill-rule="nonzero"/><path fill="#04e1f9" d="M 183.210938 0.980469 L 218.78125 0.980469 L 235.539062 29.96875 C 235.804688 29.816406 236.101562 29.722656 236.421875 29.699219 L 219.300781 0.0820312 L 182.691406 0.0820312 L 165.527344 29.773438 C 165.824219 29.855469 166.09375 30.003906 166.316406 30.203125 Z M 183.210938 0.980469 " fill-opacity="1" fill-rule="nonzero"/><path fill="#04e1f9" d="M 160.867188 35.550781 C 161.636719 35.550781 162.261719 36.175781 162.261719 36.941406 C 162.261719 37.257812 162.152344 37.550781 161.972656 37.785156 L 162.320312 38.386719 C 162.691406 38.015625 162.917969 37.503906 162.917969 36.941406 C 162.917969 35.8125 161.996094 34.894531 160.867188 34.894531 C 159.886719 34.894531 159.066406 35.585938 158.863281 36.503906 L 159.546875 36.503906 C 159.730469 35.949219 160.253906 35.550781 160.867188 35.550781 Z M 160.867188 35.550781 " fill-opacity="1" fill-rule="nonzero"/><path fill="#04e1f9" d="M 160.867188 38.332031 C 160.261719 38.332031 159.746094 37.941406 159.554688 37.402344 L 158.871094 37.402344 C 159.082031 38.3125 159.898438 38.992188 160.867188 38.992188 C 161.113281 38.992188 161.347656 38.945312 161.5625 38.867188 L 161.226562 38.285156 C 161.113281 38.316406 160.992188 38.332031 160.867188 38.332031 Z M 160.867188 38.332031 " fill-opacity="1" fill-rule="nonzero"/><path fill="#04e1f9" d="M 158.871094 37.402344 L 159.554688 37.402344 C 159.503906 37.257812 159.472656 37.105469 159.472656 36.941406 C 159.472656 36.789062 159.5 36.640625 159.546875 36.503906 L 158.863281 36.503906 C 158.832031 36.644531 158.816406 36.792969 158.816406 36.941406 C 158.816406 37.101562 158.835938 37.253906 158.871094 37.402344 Z M 158.871094 37.402344 " fill-opacity="1" fill-rule="nonzero"/><path fill="#04e1f9" d="M 161.226562 38.285156 L 161.5625 38.867188 C 161.851562 38.761719 162.109375 38.597656 162.324219 38.386719 L 161.976562 37.785156 C 161.789062 38.027344 161.527344 38.203125 161.226562 38.285156 Z M 161.226562 38.285156 " fill-opacity="1" fill-rule="nonzero"/><path fill="#04e1f9" d="M 164.972656 33.132812 C 164.203125 33.132812 163.578125 32.507812 163.578125 31.742188 C 163.578125 30.972656 164.203125 30.351562 164.972656 30.351562 C 165.042969 30.351562 165.113281 30.355469 165.183594 30.367188 L 165.527344 29.769531 C 165.351562 29.722656 165.164062 29.691406 164.972656 29.691406 C 163.839844 29.691406 162.921875 30.613281 162.921875 31.742188 C 162.921875 32.871094 163.839844 33.789062 164.972656 33.789062 C 165.164062 33.789062 165.351562 33.761719 165.527344 33.710938 L 165.183594 33.113281 C 165.113281 33.125 165.042969 33.132812 164.972656 33.132812 Z M 164.972656 33.132812 " fill-opacity="1" fill-rule="nonzero"/><path fill="#04e1f9" d="M 167.023438 31.742188 C 167.023438 31.128906 166.75 30.578125 166.320312 30.203125 L 165.980469 30.785156 C 166.21875 31.039062 166.363281 31.371094 166.363281 31.742188 C 166.363281 32.113281 166.21875 32.449219 165.980469 32.699219 L 166.320312 33.285156 C 166.75 32.90625 167.023438 32.355469 167.023438 31.742188 Z M 167.023438 31.742188 " fill-opacity="1" fill-rule="nonzero"/><path fill="#04e1f9" d="M 165.980469 32.699219 C 165.773438 32.914062 165.496094 33.066406 165.183594 33.113281 L 165.527344 33.710938 C 165.824219 33.628906 166.09375 33.480469 166.316406 33.28125 Z M 165.980469 32.699219 " fill-opacity="1" fill-rule="nonzero"/><path fill="#04e1f9" d="M 165.980469 30.785156 L 166.320312 30.199219 C 166.09375 30.003906 165.824219 29.855469 165.527344 29.769531 L 165.183594 30.367188 C 165.496094 30.417969 165.773438 30.566406 165.980469 30.785156 Z M 165.980469 30.785156 " fill-opacity="1" fill-rule="nonzero"/><path fill="#04e1f9" d="M 217.066406 62.503906 L 217.738281 62.503906 C 217.898438 61.910156 218.441406 61.472656 219.082031 61.472656 C 219.179688 61.472656 219.273438 61.480469 219.363281 61.5 L 219.703125 60.90625 C 219.507812 60.84375 219.300781 60.8125 219.082031 60.8125 C 218.074219 60.8125 217.238281 61.542969 217.066406 62.503906 Z M 217.066406 62.503906 " fill-opacity="1" fill-rule="nonzero"/><path fill="#04e1f9" d="M 220.476562 62.863281 C 220.476562 63.628906 219.851562 64.253906 219.082031 64.253906 C 218.507812 64.253906 218.011719 63.902344 217.800781 63.402344 L 217.109375 63.402344 C 217.34375 64.269531 218.140625 64.910156 219.085938 64.910156 C 220.214844 64.910156 221.136719 63.992188 221.136719 62.863281 C 221.136719 62.269531 220.882812 61.738281 220.480469 61.363281 L 220.136719 61.953125 C 220.347656 62.199219 220.476562 62.515625 220.476562 62.863281 Z M 220.476562 62.863281 " fill-opacity="1" fill-rule="nonzero"/><path fill="#04e1f9" d="M 219.363281 61.5 C 219.667969 61.5625 219.941406 61.726562 220.136719 61.957031 L 220.480469 61.363281 C 220.257812 61.160156 219.996094 61.003906 219.703125 60.910156 Z M 219.363281 61.5 " fill-opacity="1" fill-rule="nonzero"/><path fill="#04e1f9" d="M 217.691406 62.863281 C 217.691406 62.738281 217.707031 62.617188 217.738281 62.503906 L 217.066406 62.503906 C 217.046875 62.621094 217.03125 62.738281 217.03125 62.863281 C 217.03125 63.050781 217.058594 63.230469 217.105469 63.402344 L 217.796875 63.402344 C 217.730469 63.234375 217.691406 63.054688 217.691406 62.863281 Z M 217.691406 62.863281 " fill-opacity="1" fill-rule="nonzero"/><path fill="#04e1f9" d="M 236.5625 29.691406 C 236.515625 29.691406 236.46875 29.695312 236.421875 29.699219 L 236.8125 30.371094 C 237.460938 30.488281 237.957031 31.058594 237.957031 31.742188 C 237.957031 32.421875 237.460938 32.992188 236.8125 33.109375 L 236.421875 33.785156 C 236.46875 33.785156 236.515625 33.789062 236.5625 33.789062 C 237.695312 33.789062 238.617188 32.871094 238.617188 31.742188 C 238.617188 30.613281 237.695312 29.691406 236.5625 29.691406 Z M 236.5625 29.691406 " fill-opacity="1" fill-rule="nonzero"/><path fill="#04e1f9" d="M 235.171875 31.742188 C 235.171875 31.226562 235.453125 30.777344 235.867188 30.539062 L 235.539062 29.96875 C 234.925781 30.324219 234.511719 30.984375 234.511719 31.742188 C 234.511719 32.5 234.925781 33.160156 235.539062 33.515625 L 235.867188 32.945312 C 235.453125 32.703125 235.171875 32.257812 235.171875 31.742188 Z M 235.171875 31.742188 " fill-opacity="1" fill-rule="nonzero"/><path fill="#04e1f9" d="M 235.867188 30.539062 C 236.074219 30.417969 236.308594 30.351562 236.5625 30.351562 C 236.648438 30.351562 236.730469 30.359375 236.8125 30.375 L 236.425781 29.699219 C 236.105469 29.722656 235.804688 29.816406 235.542969 29.96875 Z M 235.867188 30.539062 " fill-opacity="1" fill-rule="nonzero"/><path fill="#04e1f9" d="M 236.5625 33.132812 C 236.308594 33.132812 236.074219 33.0625 235.867188 32.945312 L 235.539062 33.515625 C 235.804688 33.667969 236.101562 33.761719 236.421875 33.785156 L 236.8125 33.109375 C 236.734375 33.125 236.648438 33.132812 236.5625 33.132812 Z M 236.5625 33.132812 " fill-opacity="1" fill-rule="nonzero"/><g clip-path="url(#104088e3f4)"><path fill="#4991c9" d="M 348.65625 261.421875 C 348.632812 261.5 348.546875 261.636719 348.496094 261.625 C 348.449219 261.617188 348.460938 261.464844 348.488281 261.390625 C 348.511719 261.3125 348.5625 261.285156 348.609375 261.296875 C 348.65625 261.304688 348.683594 261.34375 348.65625 261.421875 Z M 348.65625 261.421875 " fill-opacity="1" fill-rule="nonzero"/><path fill="#000000" d="M 348.636719 261.421875 C 348.613281 261.5 348.53125 261.582031 348.484375 261.570312 C 348.4375 261.5625 348.414062 261.453125 348.441406 261.375 C 348.472656 261.277344 348.53125 261.269531 348.578125 261.28125 C 348.632812 261.296875 348.664062 261.34375 348.636719 261.421875 Z M 348.636719 261.421875 " fill-opacity="1" fill-rule="nonzero"/></g><g clip-path="url(#1fa8861581)"><path fill="#afd8f9" d="M 348.839844 260.683594 C 348.882812 260.726562 348.863281 260.769531 348.785156 260.8125 C 348.707031 260.855469 348.648438 260.851562 348.609375 260.808594 C 348.570312 260.761719 348.585938 260.71875 348.664062 260.675781 C 348.742188 260.636719 348.800781 260.636719 348.839844 260.683594 Z M 348.839844 260.683594 " fill-opacity="1" fill-rule="nonzero"/><path fill="#ffffff" d="M 348.671875 260.714844 C 348.710938 260.695312 348.75 260.6875 348.742188 260.679688 C 348.730469 260.671875 348.695312 260.679688 348.660156 260.699219 C 348.621094 260.71875 348.597656 260.742188 348.605469 260.753906 C 348.613281 260.761719 348.636719 260.734375 348.671875 260.714844 Z M 348.671875 260.714844 " fill-opacity="1" fill-rule="nonzero"/><path fill="#000000" d="M 348.96875 260.601562 C 348.992188 260.621094 348.976562 260.65625 348.917969 260.695312 C 348.859375 260.738281 348.820312 260.75 348.792969 260.726562 C 348.765625 260.707031 348.785156 260.671875 348.84375 260.632812 C 348.898438 260.589844 348.941406 260.578125 348.96875 260.601562 Z M 348.96875 260.601562 " fill-opacity="1" fill-rule="nonzero"/></g><g clip-path="url(#57e915e9a9)"><path fill="#afd8f9" d="M 349.0625 260.53125 C 349.113281 260.570312 349.101562 260.617188 349.03125 260.667969 C 348.960938 260.714844 348.90625 260.722656 348.855469 260.679688 C 348.808594 260.640625 348.820312 260.597656 348.890625 260.546875 C 348.957031 260.496094 349.015625 260.492188 349.0625 260.53125 Z M 349.0625 260.53125 " fill-opacity="1" fill-rule="nonzero"/><path fill="#4991c9" d="M 349.058594 260.539062 C 349.085938 260.558594 349.09375 260.578125 349.078125 260.585938 C 349.0625 260.597656 349.042969 260.589844 349.015625 260.570312 C 348.988281 260.546875 348.984375 260.53125 348.996094 260.519531 C 349.011719 260.507812 349.03125 260.515625 349.058594 260.539062 Z M 349.058594 260.539062 " fill-opacity="1" fill-rule="nonzero"/></g><g clip-path="url(#c1021b4089)"><path fill="#ffffff" d="M 348.902344 260.582031 C 348.9375 260.558594 348.972656 260.546875 348.964844 260.539062 C 348.953125 260.53125 348.917969 260.542969 348.886719 260.566406 C 348.851562 260.59375 348.835938 260.617188 348.84375 260.625 C 348.855469 260.636719 348.871094 260.605469 348.902344 260.582031 Z M 348.902344 260.582031 " fill-opacity="1" fill-rule="nonzero"/></g><g clip-path="url(#01747d67c2)"><path fill="#000000" d="M 349.144531 260.503906 L 349.128906 260.507812 C 349.121094 260.5 349.117188 260.496094 349.109375 260.492188 C 349.140625 260.472656 349.152344 260.453125 349.148438 260.441406 C 349.144531 260.433594 349.136719 260.433594 349.128906 260.4375 L 349.082031 260.480469 L 349.015625 260.53125 C 349.023438 260.578125 349.078125 260.585938 349.125 260.554688 C 349.132812 260.546875 349.136719 260.539062 349.136719 260.53125 C 349.144531 260.527344 349.148438 260.527344 349.148438 260.523438 C 349.152344 260.515625 349.160156 260.507812 349.144531 260.503906 Z M 349.144531 260.503906 " fill-opacity="1" fill-rule="nonzero"/><path fill="#4991c9" d="M 349.144531 260.503906 L 349.054688 260.515625 C 349.054688 260.515625 349.058594 260.519531 349.140625 260.507812 C 349.152344 260.507812 349.15625 260.511719 349.152344 260.515625 C 349.144531 260.523438 349.125 260.539062 349.101562 260.542969 C 349.101562 260.542969 349.097656 260.550781 349.097656 260.550781 C 349.09375 260.554688 349.082031 260.5625 349.070312 260.566406 C 349.070312 260.566406 349.089844 260.5625 349.097656 260.554688 C 349.101562 260.550781 349.101562 260.542969 349.101562 260.542969 C 349.136719 260.539062 349.152344 260.523438 349.15625 260.515625 C 349.160156 260.507812 349.152344 260.503906 349.144531 260.503906 Z M 349.144531 260.503906 " fill-opacity="1" fill-rule="nonzero"/></g><g clip-path="url(#13c8c51e75)"><path fill="#000000" d="M 348.691406 261.265625 C 348.691406 261.355469 348.605469 261.402344 348.4375 261.402344 C 348.265625 261.402344 348.179688 261.355469 348.179688 261.265625 C 348.179688 261.171875 348.265625 261.125 348.4375 261.125 C 348.605469 261.125 348.691406 261.171875 348.691406 261.265625 Z M 348.691406 261.265625 " fill-opacity="1" fill-rule="nonzero"/></g><g clip-path="url(#607b436c67)"><path fill="#000000" d="M 348.683594 260.789062 C 348.699219 260.816406 348.65625 260.847656 348.558594 260.878906 C 348.460938 260.914062 348.402344 260.917969 348.386719 260.886719 C 348.371094 260.859375 348.414062 260.832031 348.511719 260.796875 C 348.609375 260.761719 348.667969 260.761719 348.683594 260.789062 Z M 348.683594 260.789062 " fill-opacity="1" fill-rule="nonzero"/></g><g clip-path="url(#42249d4cd7)"><path fill="#4991c9" d="M 348.136719 261.070312 C 348.136719 260.933594 348.269531 260.765625 348.4375 260.765625 C 348.601562 260.765625 348.738281 260.933594 348.738281 261.070312 C 348.738281 261.207031 348.601562 261.261719 348.4375 261.261719 C 348.269531 261.261719 348.136719 261.207031 348.136719 261.070312 Z M 348.136719 261.070312 " fill-opacity="1" fill-rule="nonzero"/></g><g clip-path="url(#b95908cc59)"><path fill="#000000" d="M 348.359375 260.734375 C 348.398438 260.71875 348.433594 260.710938 348.460938 260.753906 C 348.488281 260.792969 348.5 260.867188 348.464844 260.882812 C 348.425781 260.898438 348.351562 260.851562 348.324219 260.808594 C 348.296875 260.765625 348.324219 260.75 348.359375 260.734375 Z M 348.359375 260.734375 " fill-opacity="1" fill-rule="nonzero"/></g><g clip-path="url(#54d3dbf6a5)"><path fill="#31e3d8" d="M 348.117188 261.390625 C 348.089844 261.464844 348.109375 261.566406 348.15625 261.578125 C 348.203125 261.585938 348.292969 261.5 348.320312 261.421875 C 348.351562 261.328125 348.308594 261.296875 348.257812 261.289062 C 348.203125 261.28125 348.144531 261.3125 348.117188 261.390625 Z M 348.117188 261.390625 " fill-opacity="1" fill-rule="nonzero"/><path fill="#afd8f9" d="M 348.117188 261.390625 C 348.089844 261.464844 348.078125 261.617188 348.125 261.625 C 348.171875 261.636719 348.257812 261.503906 348.285156 261.425781 C 348.316406 261.347656 348.289062 261.304688 348.242188 261.296875 C 348.195312 261.285156 348.144531 261.3125 348.117188 261.390625 Z M 348.117188 261.390625 " fill-opacity="1" fill-rule="nonzero"/><path fill="#ffffff" d="M 348.234375 261.304688 C 348.246094 261.316406 348.238281 261.332031 348.207031 261.359375 C 348.175781 261.382812 348.15625 261.390625 348.140625 261.378906 C 348.128906 261.371094 348.136719 261.351562 348.167969 261.328125 C 348.199219 261.304688 348.222656 261.296875 348.234375 261.304688 Z M 348.234375 261.304688 " fill-opacity="1" fill-rule="nonzero"/><path fill="#4991c9" d="M 348.105469 261.421875 C 348.105469 261.433594 348.101562 261.441406 348.101562 261.453125 C 348.105469 261.460938 348.113281 261.464844 348.117188 261.472656 C 348.140625 261.496094 348.164062 261.515625 348.191406 261.535156 C 348.203125 261.539062 348.210938 261.542969 348.21875 261.546875 C 348.222656 261.542969 348.226562 261.539062 348.230469 261.535156 C 348.222656 261.53125 348.214844 261.523438 348.203125 261.519531 C 348.171875 261.5 348.136719 261.472656 348.105469 261.421875 Z M 348.105469 261.421875 " fill-opacity="1" fill-rule="nonzero"/><path fill="#4991c9" d="M 348.097656 261.484375 C 348.09375 261.496094 348.09375 261.503906 348.09375 261.515625 C 348.113281 261.535156 348.136719 261.554688 348.164062 261.570312 C 348.171875 261.578125 348.183594 261.582031 348.191406 261.585938 C 348.195312 261.582031 348.199219 261.578125 348.203125 261.570312 C 348.195312 261.566406 348.183594 261.5625 348.175781 261.558594 C 348.152344 261.542969 348.121094 261.519531 348.097656 261.484375 Z M 348.097656 261.484375 " fill-opacity="1" fill-rule="nonzero"/></g><g clip-path="url(#bce2acd10b)"><path fill="#3e779e" d="M 348.65625 260.976562 C 348.667969 261.019531 348.636719 261.109375 348.574219 261.121094 C 348.515625 261.128906 348.441406 261.050781 348.433594 261.007812 C 348.421875 260.96875 348.644531 260.933594 348.65625 260.976562 Z M 348.65625 260.976562 " fill-opacity="1" fill-rule="nonzero"/><path fill="#31e3d8" d="M 348.628906 260.996094 C 348.640625 261.027344 348.617188 261.101562 348.574219 261.109375 C 348.527344 261.113281 348.472656 261.050781 348.464844 261.019531 C 348.457031 260.984375 348.621094 260.960938 348.628906 260.996094 Z M 348.628906 260.996094 " fill-opacity="1" fill-rule="nonzero"/></g><g clip-path="url(#c62c84cfe1)"><path fill="#000000" d="M 348.261719 260.878906 C 348.273438 260.90625 348.25 260.929688 348.191406 260.945312 C 348.128906 260.960938 348.09375 260.953125 348.078125 260.925781 C 348.066406 260.898438 348.089844 260.875 348.152344 260.859375 C 348.214844 260.84375 348.25 260.847656 348.261719 260.878906 Z M 348.261719 260.878906 " fill-opacity="1" fill-rule="nonzero"/></g><g clip-path="url(#de18adb7b8)"><path fill="#afd8f9" d="M 348.175781 260.886719 C 348.210938 260.933594 348.1875 260.976562 348.105469 261.011719 C 348.023438 261.046875 347.964844 261.042969 347.929688 260.996094 C 347.894531 260.945312 347.921875 260.90625 348 260.867188 C 348.082031 260.832031 348.140625 260.839844 348.175781 260.886719 Z M 348.175781 260.886719 " fill-opacity="1" fill-rule="nonzero"/></g><g clip-path="url(#ed271f93f4)"><path fill="#ffffff" d="M 348.003906 260.910156 C 348.042969 260.890625 348.082031 260.886719 348.078125 260.875 C 348.070312 260.867188 348.03125 260.871094 347.992188 260.890625 C 347.953125 260.90625 347.925781 260.929688 347.933594 260.941406 C 347.941406 260.949219 347.964844 260.925781 348.003906 260.910156 Z M 348.003906 260.910156 " fill-opacity="1" fill-rule="nonzero"/></g><g clip-path="url(#459bbbb525)"><path fill="#000000" d="M 348.027344 261.023438 C 348.054688 261.082031 348.050781 261.117188 348.011719 261.125 C 347.976562 261.132812 347.949219 261.109375 347.921875 261.050781 C 347.894531 260.992188 347.902344 260.960938 347.9375 260.949219 C 347.972656 260.941406 348.003906 260.964844 348.027344 261.023438 Z M 348.027344 261.023438 " fill-opacity="1" fill-rule="nonzero"/></g><g clip-path="url(#72400ff713)"><path fill="#afd8f9" d="M 348.121094 261.054688 C 348.183594 261.113281 348.191406 261.15625 348.136719 261.191406 C 348.085938 261.230469 348.027344 261.21875 347.964844 261.164062 C 347.902344 261.109375 347.898438 261.066406 347.949219 261.027344 C 348.003906 260.992188 348.0625 261 348.121094 261.054688 Z M 348.121094 261.054688 " fill-opacity="1" fill-rule="nonzero"/></g><g clip-path="url(#9603c35fde)"><path fill="#4991c9" d="M 348.15625 261.140625 C 348.167969 261.152344 348.160156 261.167969 348.128906 261.191406 C 348.101562 261.210938 348.078125 261.214844 348.066406 261.203125 C 348.054688 261.191406 348.0625 261.175781 348.089844 261.15625 C 348.121094 261.132812 348.140625 261.128906 348.15625 261.140625 Z M 348.15625 261.140625 " fill-opacity="1" fill-rule="nonzero"/><path fill="#ffffff" d="M 348.074219 261.066406 C 348.105469 261.09375 348.117188 261.121094 348.128906 261.117188 C 348.140625 261.109375 348.125 261.082031 348.09375 261.054688 C 348.066406 261.027344 348.03125 261.011719 348.019531 261.019531 C 348.007812 261.027344 348.042969 261.042969 348.074219 261.066406 Z M 348.074219 261.066406 " fill-opacity="1" fill-rule="nonzero"/><path fill="#000000" d="M 348.089844 261.203125 C 348.078125 261.183594 348.085938 261.160156 348.113281 261.148438 L 348.171875 261.125 L 348.21875 261.199219 L 348.160156 261.222656 C 348.132812 261.230469 348.101562 261.222656 348.089844 261.203125 Z M 348.089844 261.203125 " fill-opacity="1" fill-rule="nonzero"/><path fill="#000000" d="M 348.171875 261.125 L 348.25 261.113281 C 348.257812 261.113281 348.261719 261.121094 348.257812 261.125 C 348.253906 261.136719 348.226562 261.148438 348.183594 261.148438 C 348.160156 261.144531 348.171875 261.125 348.171875 261.125 Z M 348.171875 261.125 " fill-opacity="1" fill-rule="nonzero"/><path fill="#000000" d="M 348.207031 261.179688 L 348.269531 261.195312 C 348.277344 261.199219 348.28125 261.207031 348.273438 261.210938 C 348.261719 261.21875 348.25 261.222656 348.214844 261.203125 C 348.199219 261.195312 348.207031 261.179688 348.207031 261.179688 Z M 348.207031 261.179688 " fill-opacity="1" fill-rule="nonzero"/><path fill="#000000" d="M 348.1875 261.152344 L 348.265625 261.152344 C 348.273438 261.152344 348.28125 261.160156 348.273438 261.164062 C 348.265625 261.175781 348.246094 261.183594 348.199219 261.175781 C 348.183594 261.171875 348.1875 261.152344 348.1875 261.152344 Z M 348.1875 261.152344 " fill-opacity="1" fill-rule="nonzero"/></g><g clip-path="url(#bc33d71008)"><path fill="#000000" d="M 348.757812 260.324219 C 348.785156 260.40625 348.761719 260.457031 348.6875 260.472656 C 348.613281 260.484375 348.5625 260.449219 348.535156 260.367188 C 348.507812 260.28125 348.53125 260.230469 348.605469 260.21875 C 348.679688 260.203125 348.730469 260.238281 348.757812 260.324219 Z M 348.757812 260.324219 " fill-opacity="1" fill-rule="nonzero"/></g><g clip-path="url(#5f246df42c)"><path fill="#afd8f9" d="M 348.695312 260.339844 C 348.753906 260.511719 348.609375 260.761719 348.347656 260.8125 C 348.085938 260.863281 347.808594 260.695312 347.753906 260.523438 C 347.699219 260.351562 347.886719 260.242188 348.148438 260.1875 C 348.40625 260.136719 348.640625 260.167969 348.695312 260.339844 Z M 348.695312 260.339844 " fill-opacity="1" fill-rule="nonzero"/><path fill="#ffffff" d="M 348.035156 260.285156 C 348.054688 260.300781 348 260.3125 347.964844 260.347656 C 347.929688 260.382812 347.929688 260.425781 347.90625 260.414062 C 347.886719 260.398438 347.894531 260.359375 347.929688 260.324219 C 347.964844 260.289062 348.011719 260.273438 348.035156 260.285156 Z M 348.035156 260.285156 " fill-opacity="1" fill-rule="nonzero"/></g><g clip-path="url(#a363b00881)"><path fill="#4991c9" d="M 348.421875 260.324219 C 348.394531 260.339844 348.382812 260.25 348.316406 260.167969 C 348.355469 260.164062 348.390625 260.167969 348.425781 260.167969 C 348.457031 260.242188 348.441406 260.3125 348.421875 260.324219 Z M 348.421875 260.324219 " fill-opacity="1" fill-rule="nonzero"/><path fill="#4991c9" d="M 348.335938 260.328125 C 348.316406 260.347656 348.277344 260.253906 348.175781 260.183594 C 348.214844 260.175781 348.253906 260.171875 348.292969 260.167969 C 348.347656 260.234375 348.355469 260.3125 348.335938 260.328125 Z M 348.335938 260.328125 " fill-opacity="1" fill-rule="nonzero"/></g><g clip-path="url(#0e290c3585)"><path fill="#000000" d="M 347.925781 260.488281 C 347.953125 260.570312 347.929688 260.621094 347.855469 260.636719 C 347.78125 260.648438 347.730469 260.613281 347.703125 260.53125 C 347.675781 260.445312 347.699219 260.394531 347.773438 260.382812 C 347.847656 260.367188 347.898438 260.402344 347.925781 260.488281 Z M 347.925781 260.488281 " fill-opacity="1" fill-rule="nonzero"/></g><g clip-path="url(#49392eb924)"><path fill="#ffffff" d="M 348.667969 260.382812 C 348.710938 260.507812 348.601562 260.699219 348.410156 260.738281 C 348.214844 260.773438 348.003906 260.644531 347.964844 260.523438 C 347.925781 260.398438 348.070312 260.328125 348.265625 260.289062 C 348.457031 260.25 348.628906 260.261719 348.667969 260.382812 Z M 348.667969 260.382812 " fill-opacity="1" fill-rule="nonzero"/><path fill="#000000" d="M 348.671875 260.394531 C 348.710938 260.511719 348.609375 260.699219 348.417969 260.734375 C 348.230469 260.773438 348.027344 260.648438 347.988281 260.527344 C 347.949219 260.40625 348.089844 260.339844 348.277344 260.300781 C 348.46875 260.265625 348.632812 260.273438 348.671875 260.394531 Z M 348.671875 260.394531 " fill-opacity="1" fill-rule="nonzero"/></g><g clip-path="url(#42dc9d4b25)"><path fill="#31e3d8" d="M 348.261719 260.464844 L 348.203125 260.453125 C 348.199219 260.464844 348.203125 260.472656 348.203125 260.480469 C 348.210938 260.507812 348.230469 260.523438 348.25 260.519531 C 348.265625 260.519531 348.269531 260.496094 348.261719 260.46875 C 348.261719 260.46875 348.261719 260.464844 348.261719 260.464844 Z M 348.261719 260.464844 " fill-opacity="1" fill-rule="nonzero"/><path fill="#31e3d8" d="M 348.550781 260.410156 L 348.601562 260.382812 C 348.605469 260.390625 348.609375 260.398438 348.613281 260.40625 C 348.617188 260.433594 348.609375 260.457031 348.59375 260.457031 C 348.578125 260.460938 348.558594 260.441406 348.554688 260.414062 C 348.554688 260.414062 348.550781 260.410156 348.550781 260.410156 Z M 348.550781 260.410156 " fill-opacity="1" fill-rule="nonzero"/><path fill="#31e3d8" d="M 348.390625 260.65625 C 348.386719 260.675781 348.351562 260.683594 348.3125 260.679688 C 348.273438 260.675781 348.242188 260.65625 348.246094 260.636719 C 348.25 260.617188 348.277344 260.652344 348.316406 260.65625 C 348.355469 260.664062 348.394531 260.636719 348.390625 260.65625 Z M 348.390625 260.65625 " fill-opacity="1" fill-rule="nonzero"/></g></svg>