<svg xmlns="http://www.w3.org/2000/svg" xmlns:xlink="http://www.w3.org/1999/xlink" width="1920" zoomAndPan="magnify" viewBox="0 0 1440 809.999993" height="1080" preserveAspectRatio="xMidYMid meet" version="1.0"><defs><clipPath id="b88b37ef6e"><path d="M 0 144.953125 L 1440 144.953125 L 1440 578 L 0 578 Z M 0 144.953125 " clip-rule="nonzero"/></clipPath><clipPath id="2194db6e6c"><path d="M 0 264 L 1440 264 L 1440 696.953125 L 0 696.953125 Z M 0 264 " clip-rule="nonzero"/></clipPath></defs><g clip-path="url(#b88b37ef6e)"><path fill="#ffffff" d="M -315.96875 264.8125 C -69.765625 376.046875 131.066406 398.617188 265.980469 399.652344 C 625.570312 402.417969 797.148438 254.359375 1168.027344 273.089844 C 1371.46875 283.363281 1533.96875 338.726562 1634.871094 380.925781 C 1634.871094 446.425781 1634.871094 511.9375 1634.871094 577.4375 C 1245.738281 221.683594 956.273438 170.871094 764.148438 189.898438 C 562.339844 209.882812 419.597656 311.703125 146.121094 291.03125 C -56.960938 275.675781 -216.839844 201.488281 -315.96875 144.953125 C -315.96875 184.90625 -315.96875 224.859375 -315.96875 264.8125 Z M -315.96875 264.8125 " fill-opacity="1" fill-rule="nonzero"/></g><g clip-path="url(#2194db6e6c)"><path fill="#ffffff" d="M 1634.871094 577.257812 C 1388.667969 466.019531 1187.835938 443.449219 1052.921875 442.414062 C 693.332031 439.652344 521.753906 587.707031 150.875 568.980469 C -52.566406 558.703125 -215.0625 503.339844 -315.96875 461.144531 C -315.96875 395.640625 -315.96875 330.132812 -315.96875 264.628906 C 73.164062 620.382812 362.632812 671.195312 554.757812 652.167969 C 756.5625 632.1875 899.308594 530.367188 1172.78125 551.039062 C 1375.863281 566.390625 1535.742188 640.582031 1634.871094 697.117188 C 1634.871094 657.164062 1634.871094 617.210938 1634.871094 577.257812 Z M 1634.871094 577.257812 " fill-opacity="1" fill-rule="nonzero"/></g><path fill="#ffffff" d="M -315.96875 470.109375 C -69.765625 358.875 131.066406 336.300781 265.980469 335.269531 C 625.570312 332.503906 797.148438 480.5625 1168.027344 461.832031 C 1371.46875 451.558594 1533.96875 396.191406 1634.871094 353.996094 C 1634.871094 288.492188 1634.871094 222.984375 1634.871094 157.480469 C 1245.738281 513.238281 956.273438 564.050781 764.148438 545.023438 C 562.339844 525.039062 419.597656 423.21875 146.121094 443.890625 C -56.960938 459.246094 -216.839844 533.433594 -315.96875 589.96875 C -315.96875 550.015625 -315.96875 510.0625 -315.96875 470.109375 Z M -315.96875 470.109375 " fill-opacity="1" fill-rule="nonzero"/></svg>