<svg xmlns="http://www.w3.org/2000/svg" width="500" height="500" preserveAspectRatio="xMidYMid meet" version="1.0" viewBox="0 0 375 375" zoomAndPan="magnify"><defs><clipPath id="a"><path d="M208 259h134v116H208Zm0 0" clip-rule="nonzero"/></clipPath><clipPath id="b"><path d="M62.2 222H135v63H62.2Zm0 0" clip-rule="nonzero"/></clipPath><clipPath id="c"><path d="M348 261h1v.6h-1Zm0 0" clip-rule="nonzero"/></clipPath><clipPath id="d"><path d="M348 260.1h1v.9h-1Zm0 0" clip-rule="nonzero"/></clipPath><clipPath id="e"><path d="M348 260.1h1.2v.9H348Zm0 0" clip-rule="nonzero"/></clipPath><clipPath id="f"><path d="M348 260.1h1v.9h-1Zm0 0" clip-rule="nonzero"/></clipPath><clipPath id="g"><path d="M349 260.1h.2v.9h-.2Zm0 0" clip-rule="nonzero"/></clipPath><clipPath id="h"><path d="M348 261h1v.6h-1Zm0 0" clip-rule="nonzero"/></clipPath><clipPath id="i"><path d="M348 260.1h1v.9h-1Zm0 0" clip-rule="nonzero"/></clipPath><clipPath id="j"><path d="M348 260.1h1v1.5h-1Zm0 0" clip-rule="nonzero"/></clipPath><clipPath id="k"><path d="M348 260.1h1v.9h-1Zm0 0" clip-rule="nonzero"/></clipPath><clipPath id="l"><path d="M348 261h1v.6h-1Zm0 0" clip-rule="nonzero"/></clipPath><clipPath id="m"><path d="M348 260.1h1v1.5h-1Zm0 0" clip-rule="nonzero"/></clipPath><clipPath id="n"><path d="M348 260.1h1v.9h-1Zm0 0" clip-rule="nonzero"/></clipPath><clipPath id="o"><path d="M347.7 260.1h1.3v1.5h-1.3Zm0 0" clip-rule="nonzero"/></clipPath><clipPath id="p"><path d="M347.7 260.1h1.3v.9h-1.3Zm0 0" clip-rule="nonzero"/></clipPath><clipPath id="q"><path d="M347.7 260.1h1.3v1.5h-1.3Zm0 0" clip-rule="nonzero"/></clipPath><clipPath id="r"><path d="M347.7 261h1.3v.6h-1.3Zm0 0" clip-rule="nonzero"/></clipPath><clipPath id="s"><path d="M348 261h1v.6h-1Zm0 0" clip-rule="nonzero"/></clipPath><clipPath id="t"><path d="M348 260.1h1v.9h-1Zm0 0" clip-rule="nonzero"/></clipPath><clipPath id="u"><path d="M347.7 260.1h1.3v.9h-1.3Zm0 0" clip-rule="nonzero"/></clipPath><clipPath id="v"><path d="M348 260.1h1v.9h-1Zm0 0" clip-rule="nonzero"/></clipPath><clipPath id="w"><path d="M347.7 260.1h.3v.9h-.3Zm0 0" clip-rule="nonzero"/></clipPath><clipPath id="x"><path d="M347.7 260.1h1.3v.9h-1.3Zm0 0" clip-rule="nonzero"/></clipPath><clipPath id="y"><path d="M348 260.1h1v.9h-1Zm0 0" clip-rule="nonzero"/></clipPath></defs><path fill="#04e1f9" fill-opacity="1" fill-rule="nonzero" d="m196.9 70 32.4 56-32.4 56.3h-65L99.4 126 132 69.9h65m1-1.7h-67L97.4 126l33.5 58h67l33.5-58Zm0 0"/><g clip-path="url(#a)"><path fill="#04e1f9" fill-opacity="1" fill-rule="nonzero" d="m307.5 260.8 32.4 56.2-32.4 56.2h-65L210.1 317l32.4-56.2h65m1-1.7h-67L208 317l33.5 58h67l33.5-58Zm0 0"/></g><path fill="#04e1f9" fill-opacity="1" fill-rule="nonzero" d="M233.5 126a4.6 4.6 0 0 1-.8 2.7 4.7 4.7 0 0 1-4.8 2 4.4 4.4 0 0 1-1.7-.7 5 5 0 0 1-1.8-2.1 4.7 4.7 0 1 1 9.1-1.8ZM201.7 68.9a4.9 4.9 0 0 1-.8 2.6 4.7 4.7 0 0 1-4.8 2 5 5 0 0 1-1.7-.7 4.7 4.7 0 0 1-2.1-4 4.9 4.9 0 0 1 .8-2.5 4.5 4.5 0 0 1 1.3-1.3 4.7 4.7 0 0 1 5.2 0 4.7 4.7 0 0 1 2.1 3.9ZM196.9 195.4l32.4 56.1-32.4 56.2h-65l-32.5-56.2 32.5-56.1h65m1-1.8h-67l-33.5 58 33.5 57.9h67l33.5-58Zm0 0"/><path fill="#04e1f9" fill-opacity="1" fill-rule="nonzero" d="M201.5 195.2a4.6 4.6 0 0 1-.3 1.8 4.5 4.5 0 0 1-1.8 2 5 5 0 0 1-1.7.8 4.9 4.9 0 0 1-2.7-.3 5 5 0 0 1-2.1-1.7 4.3 4.3 0 0 1-.8-1.7 4.6 4.6 0 0 1 .3-2.8 4.4 4.4 0 0 1 1-1.5 4.7 4.7 0 0 1 4.3-1.3 5 5 0 0 1 2.4 1.3 5 5 0 0 1 1 1.5 4.4 4.4 0 0 1 .4 1.9ZM233.9 251.5a4.6 4.6 0 0 1-.8 2.7 4.7 4.7 0 0 1-4.9 2 4.5 4.5 0 0 1-1.7-.7 5 5 0 0 1-1.3-1.3 4.4 4.4 0 0 1-.7-1.7 4.6 4.6 0 0 1 .7-3.6 4.7 4.7 0 0 1 4.9-2 4.7 4.7 0 0 1 3.8 4.6ZM246.5 259.9a4.6 4.6 0 0 1-.8 2.6 5 5 0 0 1-1.3 1.3 5 5 0 0 1-1.7.7 4.9 4.9 0 0 1-3.6-.7 4.7 4.7 0 0 1-2-4 4.9 4.9 0 0 1 .7-2.5 4.7 4.7 0 0 1 4.9-2 5 5 0 0 1 1.7.7 5 5 0 0 1 1.3 1.3 4.6 4.6 0 0 1 .8 2.6ZM312.4 260a4.9 4.9 0 0 1-.8 2.6 4.5 4.5 0 0 1-1.3 1.3 5 5 0 0 1-1.7.7 4.6 4.6 0 0 1-2.7-.2 4.9 4.9 0 0 1-2.2-1.8 5 5 0 0 1-.7-1.7 4.9 4.9 0 0 1 .3-2.7 5 5 0 0 1 1-1.5 4.7 4.7 0 0 1 4.3-1.3 5 5 0 0 1 1.7.7 4.7 4.7 0 0 1 2.1 3.9ZM260 214h.2V213.6h-.2v.2ZM257.1 253.2h-17.8l-8-13.7-.3.2 8 14h18.4l8.1-14.1-.4-.2ZM239.3 222.5h7.4l.2-.5h-7.8l-8.1 14 .4.2ZM265.1 236.3l.4-.2-3.2-5.5-.2.4ZM262 230.8l.2-.5-4.8-8.3h-10.2l-.2.5H257ZM252 214h8V213.6h-8.2l-4.9 8.3h.3ZM262 231.3v-.5l-.2.2h-9.9l-5-8.5h-.2l5 8.8ZM266.7 222.5l-4.5 7.8.1.3 4.7-8.1-4.1-7.2-.2.1Zm0 0"/><path fill="#04e1f9" fill-opacity="1" fill-rule="nonzero" d="M262 230.8v.2l.3-.4-.1-.3ZM247 222.5l.2-.5h-.3l-.2.5ZM261.8 215.6c.3 0 .6 0 .9-.2l-.1-.1-.8.1c-.8 0-1.5-.6-1.6-1.5h-.2c0 1 .9 1.7 1.8 1.7ZM261.8 212.2a1.6 1.6 0 0 1 1 3v.1a1.8 1.8 0 0 0-1-3.3c-1 0-1.7.7-1.8 1.7h.2c.1-.8.8-1.5 1.6-1.5Zm0 0"/><path fill="#04e1f9" fill-opacity="1" fill-rule="nonzero" d="M262.6 215.3v.1h.3l-.1-.3-.2.2ZM264.7 237.9c0-.6.2-1 .6-1.3l-.2-.3a1.9 1.9 0 0 0 0 3l.2-.2c-.4-.3-.6-.7-.6-1.2ZM266.2 236l-.7.1.2.3.5-.1a1.6 1.6 0 0 1 0 3.1h-.5l-.2.2.7.1a1.9 1.9 0 0 0 0-3.7Zm0 0"/><path fill="#04e1f9" fill-opacity="1" fill-rule="nonzero" d="m265.3 236.6.4-.2-.2-.3-.4.2ZM265.3 239l-.2.4.4.2.2-.3-.4-.2ZM232.3 237.9c0-.7-.3-1.3-1-1.7v.3a1.5 1.5 0 0 1 0 2.7v.3c.7-.3 1-1 1-1.6ZM230.4 239.4a1.6 1.6 0 0 1 0-3.1h.4l.2-.3a1.9 1.9 0 1 0 0 3.6l-.2-.2h-.4Zm0 0"/><path fill="#04e1f9" fill-opacity="1" fill-rule="nonzero" d="m231.2 236.5.2-.3-.4-.2-.2.3.4.2ZM231.2 239.2l-.4.2.2.3.4-.2ZM195.2 355.7h-17.7l-8-13.8-.4.2 8.1 14h18.3l8.1-14a2 2 0 0 1-.3-.3ZM177.5 324.9h7.3l.3-.5h-7.9l-8.1 14 .4.2ZM203.3 338.7l.3-.2-3.1-5.5-.3.4ZM200 333.2l.3-.5-4.8-8.3h-10.2l-.2.5h10.1Zm0 0"/><path fill="#04e1f9" fill-opacity="1" fill-rule="nonzero" d="M190 316.3h8.1v-.2H190l-4.8 8.3h.2ZM200 333.7l.2-.3-.2-.2v.2h-10l-5-8.5h-.2l5 8.8ZM204.9 324.9l-4.6 7.8.2.3 4.6-8.1-4.1-7.2-.2.2Zm0 0"/><path fill="#04e1f9" fill-opacity="1" fill-rule="nonzero" d="m200 333.2.2.2.3-.4-.2-.3ZM185 324.9l.3-.5h-.2l-.3.5ZM200 318l.8-.1-.1-.2a1.6 1.6 0 0 1-2.3-1.4h-.3c0 1 .9 1.8 1.9 1.8ZM200 314.6a1.6 1.6 0 0 1 .9 3l.1.1a1.8 1.8 0 1 0-2.9-1.6h.3c0-.8.7-1.5 1.6-1.5Zm0 0"/><path fill="#04e1f9" fill-opacity="1" fill-rule="nonzero" d="M200.7 317.7v.2c.2 0 .2-.1.3-.2l-.1-.2-.2.2ZM202.8 340.3c0-.5.2-1 .6-1.3l-.1-.3a1.9 1.9 0 0 0 0 3.1l.1-.3c-.4-.3-.6-.7-.6-1.2ZM204.4 338.4l-.8.1.2.3a1.6 1.6 0 1 1 0 3l-.2.2.8.2a1.9 1.9 0 0 0 0-3.8Zm0 0"/><path fill="#04e1f9" fill-opacity="1" fill-rule="nonzero" d="m203.4 339 .4-.2-.2-.3a2 2 0 0 0-.3.2ZM203.4 341.5l-.1.3.3.2.2-.3-.4-.2ZM170.5 340.3c0-.7-.4-1.3-1-1.7l-.2.3a1.6 1.6 0 0 1 0 2.7l.2.3c.6-.3 1-1 1-1.6ZM168.6 341.8a1.6 1.6 0 1 1 .3-3l.2-.3a1.9 1.9 0 1 0 0 3.6l-.2-.3h-.3Zm0 0"/><path fill="#04e1f9" fill-opacity="1" fill-rule="nonzero" d="m169.3 339 .2-.4-.4-.1-.2.3.4.1ZM169.3 341.6l-.4.2.2.3.4-.2ZM236.8 185.4l-.9-.3-.3.6c.2.2.5.3.8.3l.4-.6ZM236 183c.2-.3.5-.4.8-.4l-.4-.6a2 2 0 0 0-.8.3Zm0 0"/><path fill="#04e1f9" fill-opacity="1" fill-rule="nonzero" d="M185.1 153.2h33.7l16.8 29.1c.2-.1.5-.3.8-.3l-17.1-29.7h-34.1a2 2 0 0 1 0 1ZM218.8 214.8h-35.6L165.4 184l17-29.4a2 2 0 0 1-.7-.5l-17.3 30 18.3 31.6h36.6l17.1-29.7a2 2 0 0 1-.8-.3Zm0 0"/><path fill="#04e1f9" fill-opacity="1" fill-rule="nonzero" d="M235.4 184c0-.4.2-.8.5-1l-.3-.7a2 2 0 0 0 0 3.4l.3-.6c-.3-.2-.5-.6-.5-1ZM236.8 182a2 2 0 0 0-.4 0l.4.6a1.4 1.4 0 0 1 0 2.8l-.4.6h.4a2 2 0 0 0 0-4ZM185.1 153.2h-.7a1.4 1.4 0 0 1-1.6.8l-.4.6.7.1a2 2 0 0 0 2-1.5ZM181.8 152.7a1.4 1.4 0 0 1 2.7-.4h.7a2 2 0 0 0-4.1.4c0 .6.2 1 .6 1.4l.3-.6c-.1-.2-.3-.5-.3-.8Zm0 0"/><path fill="#04e1f9" fill-opacity="1" fill-rule="nonzero" d="m182.4 154.6.4-.6c-.3 0-.6-.2-.8-.5l-.3.6.7.5ZM184.5 152.7v.5h.6a2 2 0 0 0 0-.9h-.6v.4ZM134.6 253.8c-.3 0-.6-.1-.8-.3l-.4.6.9.3.3-.6ZM133.8 251.3c.2-.2.5-.3.8-.3l-.3-.6a2 2 0 0 0-.9.3Zm0 0"/><path fill="#04e1f9" fill-opacity="1" fill-rule="nonzero" d="M83 221.6h33.6l16.8 29.1.9-.3-17.2-29.7H83a2.1 2.1 0 0 1 0 1Zm0 0"/><g clip-path="url(#b)"><path fill="#04e1f9" fill-opacity="1" fill-rule="nonzero" d="M116.6 283.1H81l-17.7-30.7 17-29.4a2 2 0 0 1-.8-.5l-17.3 29.9L80.5 284h36.6l17.2-29.6a2 2 0 0 1-.9-.3Zm0 0"/></g><path fill="#04e1f9" fill-opacity="1" fill-rule="nonzero" d="M133.2 252.4c0-.5.2-.9.6-1.1l-.4-.6a2 2 0 0 0 0 3.4l.4-.6c-.4-.3-.6-.7-.6-1.1ZM134.6 250.3a2 2 0 0 0-.3 0l.3.7a1.4 1.4 0 0 1 0 2.8l-.3.6h.3a2 2 0 0 0 0-4ZM83 221.6h-.7a1.4 1.4 0 0 1-1.7.8l-.3.6.7.1a2 2 0 0 0 2-1.5ZM79.6 221a1.4 1.4 0 0 1 2.7-.3h.7a2 2 0 0 0-4 .4c0 .5.1 1 .5 1.4l.4-.6c-.2-.2-.3-.5-.3-.8Zm0 0"/><path fill="#04e1f9" fill-opacity="1" fill-rule="nonzero" d="m80.3 223 .3-.6c-.3 0-.6-.3-.7-.5l-.4.6.8.5ZM82.4 221l-.1.6h.6a2 2 0 0 0 .1-.9h-.7v.4ZM161.6 38.9l16.9 29.3-17.8 30.7h-35.6l-17.7-30.7L125 37.4H159a2 2 0 0 1 0-.9h-34.3l-18.3 31.7 18.3 31.6h36.6l18.3-31.6-17.2-29.8a2 2 0 0 1-.7.5ZM217 62.5h-33.8l-16.9-29.2a2 2 0 0 1-.8.4l17.2 29.7h34.4a2 2 0 0 1 0-.9ZM219.7 61c.3 0 .6.2.8.4l16-27.6a2 2 0 0 1-1-.3ZM183.2 1h35.6l16.7 29c.3-.2.6-.3 1-.3L219.2.1h-36.6l-17.2 29.7c.3 0 .6.2.8.4Zm0 0"/><path fill="#04e1f9" fill-opacity="1" fill-rule="nonzero" d="M160.9 35.6a1.4 1.4 0 0 1 1 2.2l.4.6c.4-.4.6-.9.6-1.5a2 2 0 0 0-4-.4h.6c.2-.6.8-1 1.4-1ZM160.9 38.3c-.6 0-1.2-.4-1.3-.9h-.7a2 2 0 0 0 2.7 1.5l-.4-.6h-.3Zm0 0"/><path fill="#04e1f9" fill-opacity="1" fill-rule="nonzero" d="M158.9 37.4h.7a1.4 1.4 0 0 1 0-.9h-.7a2 2 0 0 0 0 .9ZM161.2 38.3l.4.6.7-.5-.3-.6-.8.5ZM165 33.1c-.8 0-1.4-.6-1.4-1.4a1.4 1.4 0 0 1 1.6-1.3l.3-.6-.5-.1a2 2 0 0 0 0 4h.5l-.3-.6h-.2ZM167 31.7a2 2 0 0 0-.7-1.5l-.3.6a1.4 1.4 0 0 1 0 1.9l.3.6c.4-.4.7-1 .7-1.6Zm0 0"/><path fill="#04e1f9" fill-opacity="1" fill-rule="nonzero" d="M166 32.7c-.2.2-.5.4-.8.4l.3.6c.3 0 .6-.2.8-.4ZM166 30.8l.3-.6-.8-.4-.3.6c.3 0 .6.2.8.4ZM217 62.5h.7a1.4 1.4 0 0 1 1.7-1l.3-.6a2 2 0 0 0-2.6 1.6ZM220.5 62.9a1.4 1.4 0 0 1-2.7.5h-.7a2 2 0 1 0 3.4-2l-.4.6c.2.2.4.5.4.9Zm0 0"/><path fill="#04e1f9" fill-opacity="1" fill-rule="nonzero" d="M219.4 61.5c.3 0 .5.2.7.5l.4-.6-.8-.5ZM217.7 62.9v-.4h-.6v.9h.7l-.1-.5ZM236.6 29.7h-.2l.4.7c.7 0 1.2.7 1.2 1.3 0 .7-.5 1.3-1.2 1.4l-.4.7h.2a2 2 0 1 0 0-4.1ZM235.2 31.7c0-.5.3-1 .7-1.2l-.4-.5a2 2 0 0 0 0 3.5l.4-.6c-.4-.2-.7-.6-.7-1.2Zm0 0"/><path fill="#04e1f9" fill-opacity="1" fill-rule="nonzero" d="M235.9 30.5a1.4 1.4 0 0 1 1-.1l-.5-.7a2 2 0 0 0-.9.3ZM236.6 33.1c-.3 0-.5 0-.7-.2l-.4.6c.3.2.6.3 1 .3l.3-.7h-.2Zm0 0"/><g clip-path="url(#c)"><path fill="#4991c9" fill-opacity="1" fill-rule="nonzero" d="m348.7 261.4-.2.2v-.2l.1-.1v.1Zm0 0"/><path fill="#000" fill-opacity="1" fill-rule="nonzero" d="m348.6 261.4-.1.2V261.3c.1 0 .2 0 .1.1Zm0 0"/></g><g clip-path="url(#d)"><path fill="#afd8f9" fill-opacity="1" fill-rule="nonzero" d="M348.8 260.7v.1h-.2v-.1h.2Zm0 0"/><path fill="#fff" fill-opacity="1" fill-rule="nonzero" d="M348.7 260.7s-.1 0 0 0Zm0 0"/><path fill="#000" fill-opacity="1" fill-rule="nonzero" d="M349 260.6v.1h-.2l.2-.1Zm0 0"/></g><g clip-path="url(#e)"><path fill="#afd8f9" fill-opacity="1" fill-rule="nonzero" d="M349 260.5c.1 0 .1.1 0 .2h-.1v-.2h.2Zm0 0"/><path fill="#4991c9" fill-opacity="1" fill-rule="nonzero" d="M349 260.5c0 .1 0 0 0 0Zm0 0"/></g><g clip-path="url(#f)"><path fill="#fff" fill-opacity="1" fill-rule="nonzero" d="M348.9 260.6Zm0 0"/></g><g clip-path="url(#g)"><path fill="#000" fill-opacity="1" fill-rule="nonzero" d="M349.1 260.5Zm0 0"/><path fill="#4991c9" fill-opacity="1" fill-rule="nonzero" d="M349.1 260.5Zm0 0"/></g><g clip-path="url(#h)"><path fill="#000" fill-opacity="1" fill-rule="nonzero" d="m348.7 261.3-.3.1-.2-.1c0-.1 0-.2.2-.2s.3 0 .3.2Zm0 0"/></g><g clip-path="url(#i)"><path fill="#000" fill-opacity="1" fill-rule="nonzero" d="M348.7 260.8h-.1c-.1.1-.2.1-.2 0H348.7Zm0 0"/></g><g clip-path="url(#j)"><path fill="#4991c9" fill-opacity="1" fill-rule="nonzero" d="m348.1 261 .3-.2c.2 0 .3.1.3.3 0 .1-.1.2-.3.2-.1 0-.3 0-.3-.2Zm0 0"/></g><g clip-path="url(#k)"><path fill="#000" fill-opacity="1" fill-rule="nonzero" d="M348.4 260.7s.1.2 0 .2c-.1-.1 0-.1 0-.2Zm0 0"/></g><g clip-path="url(#l)"><path fill="#31e3d8" fill-opacity="1" fill-rule="nonzero" d="M348.1 261.4v.2l.2-.2v-.1h-.2Zm0 0"/><path fill="#afd8f9" fill-opacity="1" fill-rule="nonzero" d="M348.1 261.4v.2l.2-.2v-.1h-.2Zm0 0"/><path fill="#fff" fill-opacity="1" fill-rule="nonzero" d="M348.2 261.3Zm0 0"/><path fill="#4991c9" fill-opacity="1" fill-rule="nonzero" d="M348.1 261.4v.1h.1ZM348.1 261.5h.1-.1Zm0 0"/></g><g clip-path="url(#m)"><path fill="#3e779e" fill-opacity="1" fill-rule="nonzero" d="m348.7 261-.1.1h-.2c0-.1.2-.2.3-.1Zm0 0"/><path fill="#31e3d8" fill-opacity="1" fill-rule="nonzero" d="M348.6 261v.1h-.1l.1-.1Zm0 0"/></g><g clip-path="url(#n)"><path fill="#000" fill-opacity="1" fill-rule="nonzero" d="M348.3 260.9h-.2.2Zm0 0"/></g><g clip-path="url(#o)"><path fill="#afd8f9" fill-opacity="1" fill-rule="nonzero" d="M348.2 260.9v.1h-.3l.1-.1h.2Zm0 0"/></g><g clip-path="url(#p)"><path fill="#fff" fill-opacity="1" fill-rule="nonzero" d="M348 261v-.1Zm0 0"/></g><g clip-path="url(#q)"><path fill="#000" fill-opacity="1" fill-rule="nonzero" d="M348 261v.1c-.1-.1-.1-.1 0-.2v.1Zm0 0"/></g><g clip-path="url(#r)"><path fill="#afd8f9" fill-opacity="1" fill-rule="nonzero" d="M348.1 261v.2h-.1c-.1 0-.1-.1 0-.2h.1Zm0 0"/></g><g clip-path="url(#s)"><path fill="#4991c9" fill-opacity="1" fill-rule="nonzero" d="m348.2 261.1-.1.1Zm0 0"/><path fill="#fff" fill-opacity="1" fill-rule="nonzero" d="m348 261 .1.1Zm0 0"/><path fill="#000" fill-opacity="1" fill-rule="nonzero" d="M348 261.2h.2-.1ZM348.2 261.1ZM348.2 261.2ZM348.2 261.2Zm0 0"/></g><g clip-path="url(#t)"><path fill="#000" fill-opacity="1" fill-rule="nonzero" d="m348.8 260.3-.1.2-.2-.1.1-.2.2.1Zm0 0"/></g><g clip-path="url(#u)"><path fill="#afd8f9" fill-opacity="1" fill-rule="nonzero" d="M348.7 260.3c0 .2 0 .5-.4.5-.2 0-.5-.1-.5-.3-.1-.1 0-.3.3-.3l.6.1Zm0 0"/><path fill="#fff" fill-opacity="1" fill-rule="nonzero" d="M348 260.3v.1c-.1 0-.1 0 0 0v-.1Zm0 0"/></g><g clip-path="url(#v)"><path fill="#4991c9" fill-opacity="1" fill-rule="nonzero" d="M348.4 260.3v-.1.1ZM348.3 260.3l-.1-.1.1.1Zm0 0"/></g><g clip-path="url(#w)"><path fill="#000" fill-opacity="1" fill-rule="nonzero" d="m348 260.5-.1.1h-.2v-.2h.2Zm0 0"/></g><g clip-path="url(#x)"><path fill="#fff" fill-opacity="1" fill-rule="nonzero" d="M348.7 260.4c0 .1-.1.3-.3.3-.2 0-.4 0-.4-.2 0-.1 0-.2.3-.2h.4Zm0 0"/><path fill="#000" fill-opacity="1" fill-rule="nonzero" d="M348.7 260.4c0 .1 0 .3-.3.3-.2 0-.4 0-.4-.2 0 0 0-.2.3-.2h.4Zm0 0"/></g><g clip-path="url(#y)"><path fill="#31e3d8" fill-opacity="1" fill-rule="nonzero" d="M348.3 260.5h-.1ZM348.6 260.4ZM348.4 260.7h-.2.1Zm0 0"/></g></svg>