<svg xmlns="http://www.w3.org/2000/svg" xmlns:xlink="http://www.w3.org/1999/xlink" width="500" zoomAndPan="magnify" viewBox="0 0 375 374.999991" height="500" preserveAspectRatio="xMidYMid meet" version="1.0"><defs><clipPath id="10e0dee993"><path d="M 115.78125 85 L 258 85 L 258 375 L 115.78125 375 Z M 115.78125 85 " clip-rule="nonzero"/></clipPath><clipPath id="a3c3f5d6c0"><path d="M 115.78125 0 L 220 0 L 220 222 L 115.78125 222 Z M 115.78125 0 " clip-rule="nonzero"/></clipPath><clipPath id="325afa6c5b"><path d="M 115.78125 211 L 197 211 L 197 375 L 115.78125 375 Z M 115.78125 211 " clip-rule="nonzero"/></clipPath><clipPath id="cb0772879b"><path d="M 334 246 L 337.78125 246 L 337.78125 251 L 334 251 Z M 334 246 " clip-rule="nonzero"/></clipPath></defs><g clip-path="url(#10e0dee993)"><path fill="#6acfc9" d="M 257.929688 375 L 115.882812 375 L 115.882812 85.53125 L 148.507812 152.011719 L 156.1875 167.664062 L 169.171875 194.125 Z M 257.929688 375 " fill-opacity="1" fill-rule="nonzero"/></g><g clip-path="url(#a3c3f5d6c0)"><path fill="#04e1f9" d="M 219.863281 0 L 148.507812 152.011719 L 118.402344 216.148438 L 115.882812 221.507812 L 115.882812 0 Z M 219.863281 0 " fill-opacity="1" fill-rule="nonzero"/></g><g clip-path="url(#325afa6c5b)"><path fill="#04e1f9" d="M 196.351562 375 L 115.882812 375 L 115.882812 211.019531 L 118.402344 216.148438 Z M 196.351562 375 " fill-opacity="1" fill-rule="nonzero"/></g><path fill="#04e1f9" d="M 260.300781 0 L 169.171875 194.125 L 146.191406 243.085938 L 146.175781 243.078125 L 133.199219 216.636719 L 156.1875 167.664062 L 234.894531 0 Z M 260.300781 0 " fill-opacity="1" fill-rule="nonzero"/><g clip-path="url(#cb0772879b)"><path fill="#04e1f9" d="M 335.28125 246.199219 L 337.390625 250.5 L 334.007812 248.914062 Z M 335.28125 246.199219 " fill-opacity="1" fill-rule="nonzero"/></g></svg>