<svg xmlns="http://www.w3.org/2000/svg" xmlns:xlink="http://www.w3.org/1999/xlink" width="500" zoomAndPan="magnify" viewBox="0 0 375 374.999991" height="500" preserveAspectRatio="xMidYMid meet" version="1.0"><defs><clipPath id="4e63681d39"><path d="M 44.402344 155 L 310 155 L 310 255 L 44.402344 255 Z M 44.402344 155 " clip-rule="nonzero"/></clipPath><clipPath id="8b39c85a5b"><path d="M 63 159 L 310.652344 159 L 310.652344 268.320312 L 63 268.320312 Z M 63 159 " clip-rule="nonzero"/></clipPath></defs><g clip-path="url(#4e63681d39)"><path fill="#04e1f9" d="M 44.402344 244.066406 C 49.566406 247.429688 54.746094 250.808594 59.90625 254.175781 C 95.585938 188.863281 167.933594 150.019531 242.195312 158.070312 C 265.75 160.625 288.433594 167.890625 309.347656 178.957031 C 288.097656 167.832031 265.183594 160.289062 241.382812 157.097656 C 164.988281 146.832031 88.886719 181.582031 44.402344 244.066406 Z M 44.402344 244.066406 " fill-opacity="1" fill-rule="nonzero"/></g><g clip-path="url(#8b39c85a5b)"><path fill="#04e1f9" d="M 79.285156 268.289062 C 92.179688 233.289062 116.429688 203.542969 148.542969 184.4375 C 177.171875 167.410156 210.867188 159.40625 244.09375 161.726562 C 267.316406 163.351562 289.753906 169.980469 310.40625 180.667969 C 289.304688 169.878906 266.488281 162.929688 242.863281 160.726562 C 169.324219 153.863281 98.210938 193.039062 63.792969 258.179688 C 68.945312 261.542969 74.105469 264.921875 79.285156 268.289062 Z M 79.285156 268.289062 " fill-opacity="1" fill-rule="nonzero"/></g></svg>