<?xml version="1.0" standalone="no"?>
<!DOCTYPE svg PUBLIC "-//W3C//DTD SVG 20010904//EN"
 "http://www.w3.org/TR/2001/REC-SVG-20010904/DTD/svg10.dtd">
<svg version="1.0" xmlns="http://www.w3.org/2000/svg"
 width="300.000000pt" height="300.000000pt" viewBox="0 0 300.000000 300.000000"
 preserveAspectRatio="xMidYMid meet">
<metadata>
Created by potrace 1.10, written by Peter Selinger 2001-2011
</metadata>
<g transform="translate(0.000000,300.000000) scale(0.100000,-0.100000)"
fill="#000000" stroke="none">
<path d="M1687 1938 c-23 -24 -75 -78 -115 -120 -40 -43 -97 -94 -125 -115
-29 -20 -54 -40 -57 -43 -3 -3 -22 -14 -42 -24 -32 -17 -41 -18 -77 -7 -31 9
-51 9 -83 0 -39 -10 -44 -9 -63 13 -33 39 -67 58 -103 58 -41 0 -91 -21 -116
-49 -11 -11 -30 -21 -44 -21 -14 0 -33 -7 -43 -16 -17 -15 -19 -15 -34 0 -9 9
-20 16 -24 16 -4 0 -25 16 -45 36 -32 31 -42 35 -69 30 -17 -3 -38 -13 -47
-21 -14 -12 -19 -12 -45 5 -41 27 -70 25 -100 -7 -24 -27 -26 -33 -24 -135 2
-141 8 -148 129 -144 86 3 110 0 110 -14 0 -15 -35 -23 -133 -30 -75 -6 -105
-12 -125 -27 -39 -29 -39 -50 3 -93 45 -46 43 -68 -7 -95 -52 -27 -66 -57 -44
-90 21 -32 52 -32 116 0 62 31 83 62 87 128 1 28 7 55 11 59 5 5 67 25 138 43
71 19 195 56 275 82 143 47 148 48 190 34 38 -12 46 -12 90 7 41 17 50 18 60
6 15 -18 44 -18 73 1 21 14 24 14 36 0 14 -17 51 -20 66 -5 7 7 22 5 48 -5 40
-17 86 -13 120 11 15 10 24 10 55 -6 30 -15 47 -17 101 -10 36 5 77 6 92 3 16
-3 34 0 42 6 11 10 21 9 46 -4 23 -12 39 -14 58 -7 15 5 37 6 48 1 12 -4 51
-4 88 1 36 4 75 6 87 3 11 -3 31 0 44 7 14 8 31 9 42 4 10 -4 49 -9 86 -10 64
-2 69 0 89 27 l21 29 25 -30 c53 -64 112 -20 112 84 0 58 2 64 30 84 37 27 39
60 6 91 -22 21 -31 22 -142 19 -104 -2 -121 -5 -141 -24 -13 -12 -23 -25 -23
-31 0 -5 -34 -9 -75 -10 -41 -1 -82 -6 -91 -11 -11 -6 -30 -4 -56 6 -31 12
-48 13 -78 5 -37 -9 -41 -8 -66 20 -21 24 -31 28 -56 23 -17 -3 -41 0 -56 8
-33 16 -50 11 -81 -25 -13 -16 -32 -29 -41 -29 -10 0 -23 -7 -30 -15 -12 -14
-15 -14 -36 0 -28 18 -56 19 -71 4 -9 -9 -21 -7 -49 6 -25 12 -48 15 -75 11
-22 -3 -39 -3 -39 1 0 3 52 59 114 123 134 137 153 179 96 210 -19 10 -26 6
-63 -32z m63 -9 c0 -29 -261 -288 -322 -319 -27 -14 -48 -28 -48 -32 0 -3 14
0 31 9 24 12 36 13 55 4 21 -9 24 -17 24 -70 0 -33 3 -66 6 -75 5 -12 0 -16
-19 -16 -25 0 -26 3 -29 63 -3 59 -4 62 -28 62 -24 0 -25 -3 -28 -62 -3 -59
-4 -63 -27 -63 -24 0 -25 3 -25 66 0 55 -2 65 -14 55 -7 -6 -16 -29 -20 -50
-10 -67 -74 -98 -130 -63 -30 18 -30 18 -125 -18 -107 -40 -394 -126 -456
-135 -22 -4 -51 -16 -65 -27 -22 -18 -23 -21 -7 -30 14 -8 16 -13 6 -24 -8
-10 -9 -17 0 -28 19 -22 -15 -74 -62 -96 -59 -26 -81 -28 -85 -7 -2 10 3 17
12 17 26 0 86 33 86 47 0 7 4 13 8 13 4 0 8 15 8 34 0 19 -4 32 -8 30 -14 -9
-21 25 -9 40 10 12 5 13 -29 9 -32 -5 -40 -3 -40 10 0 24 14 28 99 32 90 4
205 30 370 82 84 27 108 39 94 44 -11 4 -30 20 -42 35 -43 55 -16 175 44 190
42 10 98 -3 117 -28 23 -30 22 -34 -4 -42 -16 -4 -27 0 -37 14 -7 11 -24 20
-37 20 -36 0 -54 -26 -54 -80 0 -39 4 -52 22 -64 30 -21 35 -20 63 10 17 18
30 24 44 19 17 -5 19 -10 11 -26 -12 -22 -7 -24 21 -9 14 8 19 21 19 50 0 70
77 104 134 59 25 -20 26 -20 53 -2 16 10 41 25 57 33 66 34 236 192 314 293
40 52 52 58 52 26z m-1190 -341 c8 -36 18 -69 21 -72 3 -3 13 28 23 69 18 75
18 75 51 75 l34 0 3 -115 c3 -114 3 -115 -19 -115 -22 0 -23 4 -24 88 l-1 87
-21 -88 c-19 -84 -22 -88 -46 -85 -22 3 -26 10 -42 81 -9 43 -20 81 -24 85 -4
4 -5 -32 -4 -81 4 -85 3 -87 -18 -87 -23 0 -23 2 -23 116 l0 115 37 -3 38 -3
15 -67z m1400 -43 l0 -115 -25 0 -25 0 0 115 0 115 25 0 25 0 0 -115z m105 47
c5 2 11 -5 13 -14 2 -11 -3 -18 -12 -18 -12 0 -16 -11 -16 -50 0 -38 4 -50 15
-50 20 0 19 -29 -1 -37 -8 -3 -26 -1 -40 5 -22 10 -24 18 -24 72 0 33 -4 60
-10 60 -5 0 -10 7 -10 15 0 8 5 15 10 15 6 0 10 8 10 19 0 10 10 25 23 34 21
14 22 13 27 -19 3 -19 9 -33 15 -32z m465 -47 l0 -115 -25 0 -25 0 0 115 0
115 25 0 25 0 0 -115z m210 95 c0 -16 -7 -20 -35 -20 l-35 0 0 -95 c0 -95 0
-95 -25 -95 -25 0 -25 0 -25 95 l0 95 -35 0 c-28 0 -35 4 -35 20 0 19 7 20 95
20 88 0 95 -1 95 -20z m-1956 -105 l19 -60 21 63 c17 53 23 62 44 62 19 0 23
-4 17 -17 -4 -10 -17 -48 -30 -84 -30 -86 -51 -125 -70 -133 -31 -11 -53 -6
-58 14 -4 16 0 20 19 20 37 0 38 19 4 106 -36 94 -36 96 -7 92 17 -2 26 -16
41 -63z m864 49 c12 -8 22 -19 22 -25 0 -13 -44 -11 -57 2 -13 13 -43 6 -43
-9 0 -6 20 -15 44 -21 52 -13 70 -32 62 -65 -7 -29 -55 -51 -93 -41 -29 7 -63
32 -63 47 0 11 48 10 55 -2 9 -14 55 -12 55 3 0 6 -21 19 -48 27 -39 12 -48
20 -50 42 -6 49 68 76 116 42z m114 -51 c3 -65 4 -68 28 -68 24 0 25 3 28 68
3 64 4 67 27 67 25 0 25 -1 25 -85 0 -78 -2 -85 -20 -85 -11 0 -20 4 -20 10 0
5 -13 2 -29 -8 -23 -13 -34 -14 -54 -5 -26 12 -37 46 -37 118 0 46 5 55 31 55
15 0 19 -10 21 -67z m460 55 c11 -9 17 -36 20 -89 l5 -76 -26 7 c-14 4 -36 2
-48 -3 -29 -13 -68 4 -76 32 -8 31 19 60 64 67 23 4 39 12 39 20 0 16 -41 19
-56 4 -11 -11 -44 -3 -44 11 0 31 91 51 122 27z m103 2 c4 -7 12 -7 25 0 28
15 48 12 70 -10 16 -16 20 -33 20 -85 0 -63 -1 -65 -25 -65 -24 0 -25 2 -25
66 l0 65 -27 -3 c-27 -3 -28 -5 -31 -69 -3 -64 -4 -66 -27 -61 -24 4 -25 7
-25 88 0 76 2 84 19 84 11 0 23 -5 26 -10z m-1286 -33 c8 -10 7 -17 -1 -25
-18 -18 -38 -14 -38 6 0 32 20 42 39 19z"/>
<path d="M1188 1535 c-6 -14 -9 -28 -5 -31 4 -5 44 13 77 34 8 5 -24 22 -43
22 -9 0 -23 -11 -29 -25z"/>
<path d="M1222 1491 c-33 -17 -34 -31 -2 -31 20 0 44 24 38 39 -1 5 -18 2 -36
-8z"/>
<path d="M2170 1500 c-35 -8 -40 -40 -5 -40 24 0 41 19 33 38 -1 4 -14 6 -28
2z"/>
</g>
</svg>
