<svg xmlns="http://www.w3.org/2000/svg" xmlns:xlink="http://www.w3.org/1999/xlink" width="500" zoomAndPan="magnify" viewBox="0 0 375 374.999991" height="500" preserveAspectRatio="xMidYMid meet" version="1.0"><defs><clipPath id="8dae2f35e3"><path d="M 74.363281 220 L 300.863281 220 L 300.863281 299.78125 L 74.363281 299.78125 Z M 74.363281 220 " clip-rule="nonzero"/></clipPath><clipPath id="8fcc7e48ef"><path d="M 124 48.53125 L 251 48.53125 L 251 263 L 124 263 Z M 124 48.53125 " clip-rule="nonzero"/></clipPath></defs><g clip-path="url(#8dae2f35e3)"><path fill="#000000" d="M 74.519531 258.953125 C 74.519531 281.5 125.160156 299.78125 187.613281 299.78125 C 250.066406 299.78125 300.710938 281.5 300.710938 258.953125 C 300.710938 240.609375 267.15625 225.15625 221.101562 220.007812 L 198.988281 267.367188 C 198.480469 268.445312 197.832031 269.433594 197.042969 270.328125 C 196.253906 271.222656 195.355469 271.992188 194.351562 272.628906 C 193.34375 273.269531 192.265625 273.753906 191.121094 274.085938 C 189.976562 274.421875 188.808594 274.585938 187.613281 274.585938 C 186.421875 274.585938 185.253906 274.421875 184.105469 274.085938 C 182.960938 273.753906 181.886719 273.269531 180.878906 272.628906 C 179.871094 271.992188 178.972656 271.222656 178.1875 270.328125 C 177.398438 269.433594 176.75 268.445312 176.242188 267.367188 L 154.125 220.007812 C 108.070312 225.15625 74.519531 240.609375 74.519531 258.953125 Z M 74.519531 258.953125 " fill-opacity="1" fill-rule="nonzero"/></g><g clip-path="url(#8fcc7e48ef)"><path fill="#000000" d="M 243.722656 141.742188 C 244.4375 140.316406 245.101562 138.863281 245.710938 137.382812 C 246.320312 135.90625 246.875 134.40625 247.371094 132.890625 C 247.871094 131.371094 248.3125 129.835938 248.695312 128.285156 C 249.078125 126.734375 249.40625 125.167969 249.671875 123.59375 C 249.941406 122.019531 250.152344 120.433594 250.300781 118.84375 C 250.453125 117.253906 250.542969 115.65625 250.574219 114.058594 C 250.609375 112.460938 250.582031 110.863281 250.496094 109.269531 C 250.40625 107.671875 250.261719 106.082031 250.058594 104.496094 C 249.855469 102.914062 249.589844 101.335938 249.269531 99.773438 C 248.949219 98.207031 248.570312 96.65625 248.132812 95.117188 C 247.699219 93.578125 247.207031 92.058594 246.65625 90.558594 C 246.105469 89.058594 245.503906 87.578125 244.84375 86.125 C 244.1875 84.667969 243.472656 83.238281 242.707031 81.832031 C 241.945312 80.429688 241.128906 79.058594 240.261719 77.714844 C 239.394531 76.371094 238.480469 75.0625 237.515625 73.785156 C 236.550781 72.511719 235.542969 71.273438 234.484375 70.074219 C 233.765625 69.234375 233.019531 68.410156 232.253906 67.609375 C 231.488281 66.808594 230.699219 66.027344 229.890625 65.269531 C 229.082031 64.511719 228.253906 63.773438 227.40625 63.058594 C 226.558594 62.347656 225.691406 61.65625 224.804688 60.988281 C 223.921875 60.320312 223.019531 59.675781 222.097656 59.058594 C 221.179688 58.4375 220.242188 57.84375 219.289062 57.277344 C 218.339844 56.707031 217.371094 56.164062 216.390625 55.648438 C 215.410156 55.132812 214.414062 54.644531 213.40625 54.179688 C 212.398438 53.714844 211.378906 53.28125 210.347656 52.875 C 209.316406 52.464844 208.277344 52.085938 207.226562 51.734375 C 206.171875 51.382812 205.113281 51.058594 204.042969 50.761719 C 202.976562 50.46875 201.898438 50.203125 200.816406 49.964844 C 199.734375 49.726562 198.644531 49.519531 197.550781 49.34375 C 196.453125 49.164062 195.355469 49.015625 194.253906 48.894531 C 193.152344 48.777344 192.046875 48.6875 190.9375 48.628906 C 189.832031 48.566406 188.722656 48.539062 187.613281 48.539062 C 186.503906 48.539062 185.398438 48.566406 184.289062 48.628906 C 183.183594 48.6875 182.078125 48.777344 180.976562 48.894531 C 179.871094 49.015625 178.773438 49.164062 177.679688 49.34375 C 176.585938 49.519531 175.496094 49.726562 174.414062 49.964844 C 173.328125 50.203125 172.253906 50.46875 171.183594 50.761719 C 170.117188 51.058594 169.054688 51.382812 168.003906 51.734375 C 166.953125 52.085938 165.910156 52.464844 164.878906 52.875 C 163.847656 53.28125 162.828125 53.714844 161.820312 54.179688 C 160.8125 54.644531 159.820312 55.132812 158.839844 55.648438 C 157.855469 56.164062 156.890625 56.707031 155.9375 57.277344 C 154.988281 57.84375 154.050781 58.4375 153.128906 59.058594 C 152.210938 59.675781 151.308594 60.320312 150.421875 60.988281 C 149.539062 61.65625 148.671875 62.347656 147.824219 63.058594 C 146.972656 63.773438 146.144531 64.511719 145.335938 65.269531 C 144.53125 66.027344 143.742188 66.808594 142.976562 67.609375 C 142.210938 68.410156 141.464844 69.234375 140.742188 70.074219 C 139.6875 71.273438 138.675781 72.511719 137.714844 73.785156 C 136.75 75.0625 135.835938 76.371094 134.96875 77.714844 C 134.101562 79.058594 133.285156 80.429688 132.519531 81.832031 C 131.753906 83.238281 131.042969 84.667969 130.382812 86.125 C 129.726562 87.578125 129.121094 89.058594 128.574219 90.558594 C 128.023438 92.058594 127.53125 93.578125 127.09375 95.117188 C 126.660156 96.65625 126.28125 98.207031 125.957031 99.773438 C 125.636719 101.335938 125.375 102.914062 125.171875 104.496094 C 124.964844 106.082031 124.820312 107.671875 124.734375 109.269531 C 124.648438 110.863281 124.621094 112.460938 124.652344 114.058594 C 124.6875 115.65625 124.777344 117.253906 124.925781 118.84375 C 125.078125 120.433594 125.289062 122.019531 125.554688 123.59375 C 125.824219 125.167969 126.148438 126.734375 126.535156 128.285156 C 126.917969 129.835938 127.359375 131.371094 127.855469 132.890625 C 128.355469 134.40625 128.910156 135.90625 129.515625 137.382812 C 130.125 138.863281 130.789062 140.316406 131.507812 141.742188 L 187.613281 262.09375 Z M 149.917969 111.34375 C 149.917969 110.109375 149.976562 108.875 150.097656 107.648438 C 150.21875 106.417969 150.398438 105.199219 150.640625 103.988281 C 150.882812 102.777344 151.179688 101.582031 151.539062 100.402344 C 151.898438 99.21875 152.3125 98.058594 152.785156 96.917969 C 153.257812 95.777344 153.785156 94.664062 154.367188 93.574219 C 154.949219 92.488281 155.582031 91.429688 156.269531 90.402344 C 156.957031 89.378906 157.691406 88.386719 158.472656 87.433594 C 159.257812 86.480469 160.085938 85.566406 160.957031 84.691406 C 161.832031 83.820312 162.746094 82.992188 163.699219 82.210938 C 164.652344 81.425781 165.644531 80.691406 166.671875 80.007812 C 167.695312 79.320312 168.753906 78.6875 169.84375 78.105469 C 170.933594 77.523438 172.046875 76.996094 173.1875 76.523438 C 174.328125 76.050781 175.488281 75.636719 176.671875 75.277344 C 177.851562 74.917969 179.050781 74.621094 180.261719 74.378906 C 181.472656 74.136719 182.691406 73.957031 183.917969 73.835938 C 185.148438 73.714844 186.378906 73.65625 187.613281 73.65625 C 188.847656 73.65625 190.082031 73.714844 191.308594 73.835938 C 192.539062 73.957031 193.757812 74.136719 194.96875 74.378906 C 196.179688 74.621094 197.375 74.917969 198.558594 75.277344 C 199.738281 75.636719 200.898438 76.050781 202.039062 76.523438 C 203.179688 76.996094 204.296875 77.523438 205.386719 78.105469 C 206.472656 78.6875 207.53125 79.320312 208.558594 80.007812 C 209.585938 80.691406 210.574219 81.425781 211.53125 82.210938 C 212.484375 82.992188 213.398438 83.820312 214.269531 84.691406 C 215.144531 85.566406 215.972656 86.480469 216.753906 87.433594 C 217.539062 88.386719 218.273438 89.378906 218.960938 90.402344 C 219.644531 91.429688 220.28125 92.488281 220.863281 93.574219 C 221.445312 94.664062 221.96875 95.777344 222.441406 96.917969 C 222.914062 98.058594 223.332031 99.21875 223.691406 100.402344 C 224.046875 101.582031 224.347656 102.777344 224.589844 103.988281 C 224.828125 105.199219 225.011719 106.417969 225.132812 107.648438 C 225.253906 108.875 225.3125 110.109375 225.3125 111.34375 C 225.3125 112.578125 225.253906 113.808594 225.132812 115.035156 C 225.011719 116.265625 224.828125 117.484375 224.589844 118.695312 C 224.347656 119.90625 224.046875 121.101562 223.691406 122.28125 C 223.332031 123.464844 222.914062 124.625 222.441406 125.765625 C 221.96875 126.90625 221.445312 128.019531 220.863281 129.109375 C 220.28125 130.195312 219.644531 131.253906 218.960938 132.28125 C 218.273438 133.304688 217.539062 134.296875 216.753906 135.25 C 215.972656 136.203125 215.144531 137.117188 214.269531 137.992188 C 213.398438 138.863281 212.484375 139.691406 211.53125 140.476562 C 210.574219 141.257812 209.585938 141.992188 208.558594 142.679688 C 207.53125 143.363281 206.472656 143.996094 205.386719 144.578125 C 204.296875 145.160156 203.179688 145.6875 202.039062 146.160156 C 200.898438 146.632812 199.738281 147.046875 198.558594 147.40625 C 197.375 147.765625 196.179688 148.0625 194.96875 148.304688 C 193.757812 148.546875 192.539062 148.726562 191.308594 148.847656 C 190.082031 148.96875 188.847656 149.03125 187.613281 149.03125 C 186.378906 149.03125 185.148438 148.96875 183.917969 148.847656 C 182.691406 148.726562 181.472656 148.546875 180.261719 148.304688 C 179.050781 148.0625 177.851562 147.765625 176.671875 147.40625 C 175.488281 147.046875 174.328125 146.632812 173.1875 146.160156 C 172.046875 145.6875 170.933594 145.160156 169.84375 144.578125 C 168.753906 143.996094 167.695312 143.363281 166.671875 142.679688 C 165.644531 141.992188 164.652344 141.257812 163.699219 140.476562 C 162.746094 139.691406 161.832031 138.863281 160.957031 137.992188 C 160.085938 137.117188 159.257812 136.203125 158.472656 135.25 C 157.691406 134.296875 156.957031 133.304688 156.269531 132.28125 C 155.582031 131.253906 154.949219 130.195312 154.367188 129.109375 C 153.785156 128.019531 153.257812 126.90625 152.785156 125.765625 C 152.3125 124.625 151.898438 123.464844 151.539062 122.28125 C 151.179688 121.101562 150.882812 119.90625 150.640625 118.695312 C 150.398438 117.484375 150.21875 116.265625 150.097656 115.035156 C 149.976562 113.808594 149.917969 112.578125 149.917969 111.34375 Z M 149.917969 111.34375 " fill-opacity="1" fill-rule="nonzero"/></g></svg>