<svg xmlns="http://www.w3.org/2000/svg" xmlns:xlink="http://www.w3.org/1999/xlink" width="500" zoomAndPan="magnify" viewBox="0 0 375 374.999991" height="500" preserveAspectRatio="xMidYMid meet" version="1.0"><defs><clipPath id="094df7c4a2"><path d="M 144 71 L 322.398438 71 L 322.398438 250 L 144 250 Z M 144 71 " clip-rule="nonzero"/></clipPath><clipPath id="6e4b1fabda"><path d="M 63.648438 172 L 218 172 L 218 293.75 L 63.648438 293.75 Z M 63.648438 172 " clip-rule="nonzero"/></clipPath></defs><g clip-path="url(#094df7c4a2)"><path fill="#000000" d="M 233.453125 71.082031 C 184.332031 71.082031 144.507812 110.945312 144.507812 160.117188 C 144.507812 162.34375 146.328125 164.164062 148.550781 164.164062 C 150.773438 164.164062 152.59375 162.34375 152.59375 160.117188 C 152.59375 115.398438 188.777344 79.175781 233.453125 79.175781 C 278.128906 79.175781 314.3125 115.398438 314.3125 160.117188 C 314.3125 204.839844 278.128906 241.058594 233.453125 241.058594 C 231.230469 241.058594 229.410156 242.882812 229.410156 245.105469 C 229.410156 247.332031 231.230469 249.152344 233.453125 249.152344 C 282.574219 249.152344 322.398438 209.289062 322.398438 160.117188 C 322.398438 110.945312 282.574219 71.082031 233.453125 71.082031 Z M 233.453125 71.082031 " fill-opacity="1" fill-rule="nonzero"/></g><path fill="#000000" d="M 108.121094 168.210938 C 117.015625 168.210938 124.292969 160.925781 124.292969 152.023438 L 124.292969 147.976562 C 124.292969 139.074219 117.015625 131.789062 108.121094 131.789062 C 99.226562 131.789062 91.949219 139.074219 91.949219 147.976562 L 91.949219 152.023438 C 91.949219 160.925781 99.226562 168.210938 108.121094 168.210938 Z M 108.121094 168.210938 " fill-opacity="1" fill-rule="nonzero"/><path fill="#000000" d="M 239.71875 172.867188 L 258.722656 193.304688 C 259.53125 194.113281 260.542969 194.519531 261.753906 194.519531 C 262.765625 194.519531 263.777344 194.113281 264.585938 193.507812 C 266.203125 191.886719 266.402344 189.460938 264.785156 187.839844 L 245.582031 167.199219 C 246.796875 165.175781 247.605469 162.75 247.605469 160.117188 C 247.605469 153.640625 243.359375 148.382812 237.496094 146.558594 L 237.496094 111.550781 C 237.496094 109.328125 235.675781 107.503906 233.453125 107.503906 C 231.230469 107.503906 229.410156 109.328125 229.410156 111.550781 L 229.410156 146.558594 C 223.546875 148.382812 219.304688 153.640625 219.304688 160.117188 C 219.304688 168.007812 225.570312 174.28125 233.453125 174.28125 C 235.675781 174.28125 237.902344 173.675781 239.71875 172.867188 Z M 239.71875 172.867188 " fill-opacity="1" fill-rule="nonzero"/><g clip-path="url(#6e4b1fabda)"><path fill="#000000" d="M 209.195312 212.730469 L 185.34375 212.730469 L 202.726562 178.128906 C 203.738281 176.105469 202.929688 173.675781 200.90625 172.664062 C 198.886719 171.652344 196.460938 172.460938 195.449219 174.484375 L 176.449219 212.730469 L 155.828125 212.730469 C 156.234375 211.515625 156.636719 210.097656 156.636719 208.683594 C 156.636719 202.003906 151.179688 196.542969 144.507812 196.542969 L 124.699219 196.542969 L 124.699219 194.519531 C 124.699219 182.175781 114.589844 172.257812 102.257812 172.257812 C 94.171875 172.257812 87.097656 176.507812 83.257812 182.984375 C 81.035156 181.363281 78.609375 180.351562 75.777344 180.351562 C 69.105469 180.351562 63.648438 185.816406 63.648438 192.496094 L 63.648438 228.917969 C 63.648438 241.058594 69.914062 251.785156 79.617188 257.855469 L 71.9375 288.613281 C 71.332031 290.839844 72.746094 293.066406 74.96875 293.46875 C 75.375 293.46875 75.574219 293.671875 75.980469 293.671875 C 77.800781 293.671875 79.417969 292.457031 79.820312 290.636719 L 87.097656 261.496094 C 90.535156 262.710938 94.171875 263.320312 98.214844 263.320312 L 109.738281 263.320312 L 116.613281 290.636719 C 117.015625 292.457031 118.632812 293.671875 120.453125 293.671875 C 120.855469 293.671875 121.058594 293.671875 121.464844 293.46875 C 123.6875 292.863281 124.898438 290.636719 124.496094 288.613281 L 117.824219 263.320312 L 120.25 263.320312 C 121.261719 263.320312 122.070312 263.117188 122.878906 262.914062 L 130.359375 285.78125 C 131.976562 290.433594 136.21875 293.46875 141.070312 293.46875 C 144.304688 293.46875 147.539062 292.054688 149.5625 289.625 C 151.785156 287.195312 152.59375 283.960938 152.191406 280.722656 L 146.933594 237.011719 L 197.066406 237.011719 L 197.066406 271.414062 L 170.789062 271.414062 C 168.5625 271.414062 166.746094 273.234375 166.746094 275.460938 C 166.746094 277.6875 168.5625 279.507812 170.789062 279.507812 L 197.066406 279.507812 L 197.066406 287.601562 C 197.066406 289.828125 198.886719 291.648438 201.109375 291.648438 C 203.332031 291.648438 205.152344 289.828125 205.152344 287.601562 L 205.152344 237.011719 L 209.195312 237.011719 C 213.644531 237.011719 217.28125 233.371094 217.28125 228.917969 L 217.28125 220.824219 C 217.28125 216.371094 213.644531 212.730469 209.195312 212.730469 Z M 112.164062 239.035156 L 102.058594 239.035156 C 96.398438 239.035156 91.546875 235.796875 89.320312 230.941406 L 108.121094 230.941406 C 110.34375 230.941406 112.164062 232.761719 112.164062 234.988281 Z M 144.507812 212.730469 L 114.1875 212.730469 C 112.367188 212.730469 110.75 211.515625 110.34375 209.898438 L 106.101562 195.53125 C 105.492188 193.304688 103.269531 192.089844 101.046875 192.898438 C 98.824219 193.507812 97.609375 195.730469 98.417969 197.957031 L 102.664062 212.324219 C 104.078125 217.382812 108.726562 220.824219 114.1875 220.824219 L 124.699219 220.824219 L 132.984375 224.265625 C 135.613281 225.480469 137.636719 227.90625 138.039062 230.738281 L 144.710938 282.136719 C 144.914062 283.351562 144.304688 284.160156 143.902344 284.566406 C 143.496094 284.972656 142.6875 285.578125 141.476562 285.578125 C 140.0625 285.578125 138.847656 284.769531 138.445312 283.351562 L 130.15625 258.460938 C 131.773438 256.4375 132.582031 254.011719 132.582031 251.179688 C 132.582031 244.5 127.125 239.035156 120.453125 239.035156 L 120.453125 234.988281 C 120.453125 228.3125 114.996094 222.847656 108.324219 222.847656 L 87.90625 222.847656 L 87.90625 194.519531 C 87.90625 186.625 94.375 180.351562 102.257812 180.351562 C 110.144531 180.351562 116.613281 186.625 116.613281 194.519531 L 116.613281 204.636719 L 144.507812 204.636719 C 146.730469 204.636719 148.550781 206.457031 148.550781 208.683594 C 148.550781 210.910156 146.730469 212.730469 144.507812 212.730469 Z M 144.507812 212.730469 " fill-opacity="1" fill-rule="nonzero"/></g><path fill="#000000" d="M 237.496094 91.316406 C 237.496094 91.582031 237.46875 91.84375 237.417969 92.105469 C 237.367188 92.367188 237.289062 92.621094 237.1875 92.867188 C 237.085938 93.109375 236.960938 93.34375 236.816406 93.566406 C 236.667969 93.785156 236.5 93.992188 236.3125 94.179688 C 236.125 94.367188 235.921875 94.535156 235.699219 94.683594 C 235.480469 94.828125 235.246094 94.953125 235 95.054688 C 234.753906 95.15625 234.503906 95.234375 234.242188 95.285156 C 233.980469 95.339844 233.71875 95.363281 233.453125 95.363281 C 233.1875 95.363281 232.925781 95.339844 232.664062 95.285156 C 232.40625 95.234375 232.152344 95.15625 231.90625 95.054688 C 231.660156 94.953125 231.429688 94.828125 231.207031 94.683594 C 230.988281 94.535156 230.78125 94.367188 230.59375 94.179688 C 230.40625 93.992188 230.238281 93.785156 230.09375 93.566406 C 229.945312 93.34375 229.820312 93.109375 229.71875 92.867188 C 229.617188 92.621094 229.539062 92.367188 229.488281 92.105469 C 229.4375 91.84375 229.410156 91.582031 229.410156 91.316406 C 229.410156 91.050781 229.4375 90.789062 229.488281 90.527344 C 229.539062 90.265625 229.617188 90.011719 229.71875 89.769531 C 229.820312 89.523438 229.945312 89.289062 230.09375 89.066406 C 230.238281 88.847656 230.40625 88.644531 230.59375 88.453125 C 230.78125 88.265625 230.988281 88.097656 231.207031 87.953125 C 231.429688 87.804688 231.660156 87.679688 231.90625 87.578125 C 232.152344 87.476562 232.40625 87.398438 232.664062 87.347656 C 232.925781 87.296875 233.1875 87.269531 233.453125 87.269531 C 233.71875 87.269531 233.980469 87.296875 234.242188 87.347656 C 234.503906 87.398438 234.753906 87.476562 235 87.578125 C 235.246094 87.679688 235.480469 87.804688 235.699219 87.953125 C 235.921875 88.097656 236.125 88.265625 236.3125 88.453125 C 236.5 88.644531 236.667969 88.847656 236.816406 89.066406 C 236.960938 89.289062 237.085938 89.523438 237.1875 89.769531 C 237.289062 90.011719 237.367188 90.265625 237.417969 90.527344 C 237.46875 90.789062 237.496094 91.050781 237.496094 91.316406 Z M 237.496094 91.316406 " fill-opacity="1" fill-rule="nonzero"/><path fill="#000000" d="M 237.496094 228.917969 C 237.496094 229.183594 237.46875 229.449219 237.417969 229.707031 C 237.367188 229.96875 237.289062 230.222656 237.1875 230.46875 C 237.085938 230.714844 236.960938 230.945312 236.816406 231.167969 C 236.667969 231.386719 236.5 231.59375 236.3125 231.78125 C 236.125 231.96875 235.921875 232.136719 235.699219 232.285156 C 235.480469 232.429688 235.246094 232.554688 235 232.65625 C 234.753906 232.757812 234.503906 232.835938 234.242188 232.886719 C 233.980469 232.941406 233.71875 232.964844 233.453125 232.964844 C 233.1875 232.964844 232.925781 232.941406 232.664062 232.886719 C 232.40625 232.835938 232.152344 232.757812 231.90625 232.65625 C 231.660156 232.554688 231.429688 232.429688 231.207031 232.285156 C 230.988281 232.136719 230.78125 231.96875 230.59375 231.78125 C 230.40625 231.59375 230.238281 231.386719 230.09375 231.167969 C 229.945312 230.945312 229.820312 230.714844 229.71875 230.46875 C 229.617188 230.222656 229.539062 229.96875 229.488281 229.707031 C 229.4375 229.449219 229.410156 229.183594 229.410156 228.917969 C 229.410156 228.652344 229.4375 228.390625 229.488281 228.128906 C 229.539062 227.867188 229.617188 227.617188 229.71875 227.371094 C 229.820312 227.125 229.945312 226.890625 230.09375 226.671875 C 230.238281 226.449219 230.40625 226.246094 230.59375 226.058594 C 230.78125 225.867188 230.988281 225.703125 231.207031 225.554688 C 231.429688 225.40625 231.660156 225.28125 231.90625 225.179688 C 232.152344 225.078125 232.40625 225 232.664062 224.949219 C 232.925781 224.898438 233.1875 224.871094 233.453125 224.871094 C 233.71875 224.871094 233.980469 224.898438 234.242188 224.949219 C 234.503906 225 234.753906 225.078125 235 225.179688 C 235.246094 225.28125 235.480469 225.40625 235.699219 225.554688 C 235.921875 225.703125 236.125 225.867188 236.3125 226.058594 C 236.5 226.246094 236.667969 226.449219 236.816406 226.671875 C 236.960938 226.890625 237.085938 227.125 237.1875 227.371094 C 237.289062 227.617188 237.367188 227.867188 237.417969 228.128906 C 237.46875 228.390625 237.496094 228.652344 237.496094 228.917969 Z M 237.496094 228.917969 " fill-opacity="1" fill-rule="nonzero"/><path fill="#000000" d="M 306.226562 160.117188 C 306.226562 160.382812 306.199219 160.648438 306.148438 160.90625 C 306.097656 161.167969 306.019531 161.421875 305.917969 161.667969 C 305.816406 161.910156 305.691406 162.144531 305.546875 162.367188 C 305.398438 162.585938 305.230469 162.792969 305.042969 162.980469 C 304.855469 163.167969 304.652344 163.335938 304.429688 163.484375 C 304.210938 163.628906 303.976562 163.753906 303.730469 163.855469 C 303.484375 163.957031 303.234375 164.035156 302.972656 164.085938 C 302.710938 164.140625 302.449219 164.164062 302.183594 164.164062 C 301.917969 164.164062 301.65625 164.140625 301.394531 164.085938 C 301.136719 164.035156 300.882812 163.957031 300.636719 163.855469 C 300.390625 163.753906 300.160156 163.628906 299.9375 163.484375 C 299.71875 163.335938 299.511719 163.167969 299.324219 162.980469 C 299.136719 162.792969 298.96875 162.585938 298.824219 162.367188 C 298.675781 162.144531 298.550781 161.910156 298.449219 161.667969 C 298.347656 161.421875 298.269531 161.167969 298.21875 160.90625 C 298.167969 160.648438 298.140625 160.382812 298.140625 160.117188 C 298.140625 159.851562 298.167969 159.589844 298.21875 159.328125 C 298.269531 159.066406 298.347656 158.8125 298.449219 158.570312 C 298.550781 158.324219 298.675781 158.089844 298.824219 157.871094 C 298.96875 157.648438 299.136719 157.445312 299.324219 157.257812 C 299.511719 157.066406 299.71875 156.898438 299.9375 156.753906 C 300.160156 156.605469 300.390625 156.480469 300.636719 156.378906 C 300.882812 156.277344 301.136719 156.199219 301.394531 156.148438 C 301.65625 156.097656 301.917969 156.070312 302.183594 156.070312 C 302.449219 156.070312 302.710938 156.097656 302.972656 156.148438 C 303.234375 156.199219 303.484375 156.277344 303.730469 156.378906 C 303.976562 156.480469 304.210938 156.605469 304.429688 156.753906 C 304.652344 156.898438 304.855469 157.066406 305.042969 157.257812 C 305.230469 157.445312 305.398438 157.648438 305.546875 157.871094 C 305.691406 158.089844 305.816406 158.324219 305.917969 158.570312 C 306.019531 158.8125 306.097656 159.066406 306.148438 159.328125 C 306.199219 159.589844 306.226562 159.851562 306.226562 160.117188 Z M 306.226562 160.117188 " fill-opacity="1" fill-rule="nonzero"/><path fill="#000000" d="M 168.765625 160.117188 C 168.765625 160.382812 168.738281 160.648438 168.6875 160.90625 C 168.636719 161.167969 168.558594 161.421875 168.457031 161.667969 C 168.355469 161.910156 168.230469 162.144531 168.085938 162.367188 C 167.9375 162.585938 167.769531 162.792969 167.582031 162.980469 C 167.394531 163.167969 167.191406 163.335938 166.96875 163.484375 C 166.75 163.628906 166.515625 163.753906 166.269531 163.855469 C 166.023438 163.957031 165.773438 164.035156 165.511719 164.085938 C 165.25 164.140625 164.988281 164.164062 164.722656 164.164062 C 164.457031 164.164062 164.195312 164.140625 163.933594 164.085938 C 163.675781 164.035156 163.421875 163.957031 163.175781 163.855469 C 162.929688 163.753906 162.699219 163.628906 162.476562 163.484375 C 162.257812 163.335938 162.050781 163.167969 161.863281 162.980469 C 161.675781 162.792969 161.507812 162.585938 161.363281 162.367188 C 161.214844 162.144531 161.089844 161.910156 160.988281 161.667969 C 160.886719 161.421875 160.808594 161.167969 160.757812 160.90625 C 160.707031 160.648438 160.679688 160.382812 160.679688 160.117188 C 160.679688 159.851562 160.707031 159.589844 160.757812 159.328125 C 160.808594 159.066406 160.886719 158.8125 160.988281 158.570312 C 161.089844 158.324219 161.214844 158.089844 161.363281 157.871094 C 161.507812 157.648438 161.675781 157.445312 161.863281 157.257812 C 162.050781 157.066406 162.257812 156.898438 162.476562 156.753906 C 162.699219 156.605469 162.929688 156.480469 163.175781 156.378906 C 163.421875 156.277344 163.675781 156.199219 163.933594 156.148438 C 164.195312 156.097656 164.457031 156.070312 164.722656 156.070312 C 164.988281 156.070312 165.25 156.097656 165.511719 156.148438 C 165.773438 156.199219 166.023438 156.277344 166.269531 156.378906 C 166.515625 156.480469 166.75 156.605469 166.96875 156.753906 C 167.191406 156.898438 167.394531 157.066406 167.582031 157.257812 C 167.769531 157.445312 167.9375 157.648438 168.085938 157.871094 C 168.230469 158.089844 168.355469 158.324219 168.457031 158.570312 C 168.558594 158.8125 168.636719 159.066406 168.6875 159.328125 C 168.738281 159.589844 168.765625 159.851562 168.765625 160.117188 Z M 168.765625 160.117188 " fill-opacity="1" fill-rule="nonzero"/><path fill="#000000" d="M 284.78125 205.902344 C 284.96875 206.089844 285.136719 206.292969 285.285156 206.515625 C 285.433594 206.734375 285.558594 206.96875 285.660156 207.214844 C 285.761719 207.460938 285.835938 207.714844 285.890625 207.972656 C 285.941406 208.234375 285.96875 208.5 285.96875 208.765625 C 285.96875 209.03125 285.941406 209.292969 285.890625 209.554688 C 285.835938 209.8125 285.761719 210.066406 285.660156 210.3125 C 285.558594 210.558594 285.433594 210.792969 285.285156 211.011719 C 285.136719 211.234375 284.96875 211.4375 284.78125 211.625 C 284.59375 211.8125 284.390625 211.980469 284.171875 212.128906 C 283.949219 212.277344 283.714844 212.402344 283.472656 212.503906 C 283.226562 212.605469 282.972656 212.679688 282.710938 212.734375 C 282.453125 212.785156 282.1875 212.8125 281.925781 212.8125 C 281.660156 212.8125 281.394531 212.785156 281.136719 212.734375 C 280.875 212.679688 280.621094 212.605469 280.375 212.503906 C 280.132812 212.402344 279.898438 212.277344 279.679688 212.128906 C 279.457031 211.980469 279.253906 211.8125 279.066406 211.625 C 278.878906 211.4375 278.710938 211.234375 278.5625 211.011719 C 278.414062 210.792969 278.289062 210.558594 278.1875 210.3125 C 278.085938 210.066406 278.011719 209.8125 277.957031 209.554688 C 277.90625 209.292969 277.882812 209.03125 277.882812 208.765625 C 277.882812 208.5 277.90625 208.234375 277.957031 207.972656 C 278.011719 207.714844 278.085938 207.460938 278.1875 207.214844 C 278.289062 206.96875 278.414062 206.738281 278.5625 206.515625 C 278.710938 206.292969 278.878906 206.089844 279.066406 205.902344 C 279.253906 205.714844 279.457031 205.546875 279.675781 205.398438 C 279.898438 205.25 280.132812 205.125 280.375 205.023438 C 280.621094 204.921875 280.875 204.847656 281.136719 204.792969 C 281.394531 204.742188 281.660156 204.714844 281.921875 204.714844 C 282.1875 204.714844 282.453125 204.742188 282.710938 204.792969 C 282.972656 204.847656 283.226562 204.921875 283.472656 205.023438 C 283.714844 205.125 283.949219 205.25 284.171875 205.398438 C 284.390625 205.546875 284.59375 205.714844 284.78125 205.902344 Z M 284.78125 205.902344 " fill-opacity="1" fill-rule="nonzero"/><path fill="#000000" d="M 187.707031 108.441406 C 187.894531 108.628906 188.0625 108.835938 188.207031 109.054688 C 188.355469 109.277344 188.480469 109.507812 188.582031 109.753906 C 188.683594 110 188.761719 110.253906 188.8125 110.515625 C 188.863281 110.773438 188.890625 111.039062 188.890625 111.304688 C 188.890625 111.570312 188.863281 111.832031 188.8125 112.09375 C 188.761719 112.355469 188.683594 112.605469 188.582031 112.851562 C 188.480469 113.097656 188.355469 113.332031 188.207031 113.550781 C 188.0625 113.773438 187.894531 113.976562 187.707031 114.164062 C 187.519531 114.351562 187.3125 114.519531 187.09375 114.667969 C 186.871094 114.816406 186.640625 114.941406 186.394531 115.042969 C 186.148438 115.144531 185.894531 115.222656 185.636719 115.273438 C 185.375 115.324219 185.113281 115.351562 184.847656 115.351562 C 184.582031 115.351562 184.320312 115.324219 184.058594 115.273438 C 183.796875 115.222656 183.546875 115.144531 183.300781 115.042969 C 183.054688 114.941406 182.820312 114.816406 182.601562 114.667969 C 182.378906 114.519531 182.175781 114.355469 181.988281 114.164062 C 181.800781 113.976562 181.632812 113.773438 181.484375 113.550781 C 181.335938 113.332031 181.214844 113.097656 181.113281 112.851562 C 181.011719 112.605469 180.933594 112.355469 180.882812 112.09375 C 180.828125 111.832031 180.804688 111.570312 180.804688 111.304688 C 180.804688 111.039062 180.828125 110.773438 180.882812 110.515625 C 180.933594 110.253906 181.011719 110 181.113281 109.753906 C 181.214844 109.507812 181.335938 109.277344 181.484375 109.054688 C 181.632812 108.835938 181.800781 108.628906 181.988281 108.441406 C 182.175781 108.253906 182.378906 108.085938 182.601562 107.9375 C 182.820312 107.792969 183.054688 107.667969 183.300781 107.566406 C 183.542969 107.464844 183.796875 107.386719 184.058594 107.335938 C 184.320312 107.28125 184.582031 107.257812 184.847656 107.257812 C 185.113281 107.257812 185.375 107.28125 185.636719 107.335938 C 185.894531 107.386719 186.148438 107.464844 186.394531 107.566406 C 186.640625 107.667969 186.871094 107.792969 187.09375 107.9375 C 187.3125 108.085938 187.519531 108.253906 187.707031 108.441406 Z M 187.707031 108.441406 " fill-opacity="1" fill-rule="nonzero"/><path fill="#000000" d="M 284.921875 108.726562 C 285.113281 108.914062 285.277344 109.121094 285.425781 109.339844 C 285.574219 109.5625 285.699219 109.796875 285.800781 110.039062 C 285.902344 110.285156 285.976562 110.539062 286.03125 110.800781 C 286.082031 111.0625 286.109375 111.324219 286.109375 111.589844 C 286.109375 111.855469 286.082031 112.117188 286.03125 112.378906 C 285.980469 112.640625 285.902344 112.894531 285.800781 113.136719 C 285.699219 113.382812 285.574219 113.617188 285.425781 113.839844 C 285.277344 114.058594 285.113281 114.261719 284.925781 114.453125 C 284.734375 114.640625 284.53125 114.808594 284.3125 114.953125 C 284.089844 115.101562 283.859375 115.226562 283.613281 115.328125 C 283.367188 115.429688 283.113281 115.507812 282.855469 115.558594 C 282.59375 115.609375 282.332031 115.636719 282.066406 115.636719 C 281.800781 115.636719 281.535156 115.609375 281.277344 115.558594 C 281.015625 115.507812 280.761719 115.429688 280.519531 115.328125 C 280.273438 115.226562 280.039062 115.101562 279.820312 114.953125 C 279.597656 114.808594 279.394531 114.640625 279.207031 114.453125 C 279.019531 114.261719 278.851562 114.058594 278.703125 113.839844 C 278.554688 113.617188 278.429688 113.382812 278.328125 113.136719 C 278.226562 112.894531 278.152344 112.640625 278.101562 112.378906 C 278.046875 112.117188 278.023438 111.855469 278.023438 111.589844 C 278.023438 111.324219 278.046875 111.0625 278.101562 110.800781 C 278.152344 110.539062 278.226562 110.285156 278.328125 110.039062 C 278.429688 109.796875 278.554688 109.5625 278.703125 109.339844 C 278.851562 109.121094 279.019531 108.914062 279.207031 108.726562 C 279.394531 108.539062 279.597656 108.371094 279.820312 108.226562 C 280.039062 108.078125 280.273438 107.953125 280.519531 107.851562 C 280.761719 107.75 281.015625 107.671875 281.277344 107.621094 C 281.535156 107.570312 281.800781 107.542969 282.066406 107.542969 C 282.332031 107.542969 282.59375 107.570312 282.855469 107.621094 C 283.113281 107.671875 283.367188 107.75 283.613281 107.851562 C 283.855469 107.953125 284.089844 108.078125 284.3125 108.222656 C 284.53125 108.371094 284.734375 108.539062 284.921875 108.726562 Z M 284.921875 108.726562 " fill-opacity="1" fill-rule="nonzero"/></svg>