<svg xmlns="http://www.w3.org/2000/svg" xmlns:xlink="http://www.w3.org/1999/xlink" width="500" zoomAndPan="magnify" viewBox="0 0 375 374.999991" height="500" preserveAspectRatio="xMidYMid meet" version="1.0"><defs><clipPath id="e435fda86e"><path d="M 65.488281 58.730469 L 322.738281 58.730469 L 322.738281 315.980469 L 65.488281 315.980469 Z M 65.488281 58.730469 " clip-rule="nonzero"/></clipPath></defs><g clip-path="url(#e435fda86e)"><path fill="#000000" d="M 194.113281 58.730469 C 123.175781 58.730469 65.488281 116.421875 65.488281 187.355469 C 65.488281 258.292969 123.175781 315.980469 194.113281 315.980469 C 265.046875 315.980469 322.738281 258.292969 322.738281 187.355469 C 322.738281 116.421875 265.046875 58.730469 194.113281 58.730469 Z M 194.113281 306.957031 C 128.070312 306.957031 74.511719 253.398438 74.511719 187.355469 C 74.511719 121.316406 128.070312 67.753906 194.113281 67.753906 C 260.152344 67.753906 313.714844 121.316406 313.714844 187.355469 C 313.714844 253.398438 260.152344 306.957031 194.113281 306.957031 Z M 194.113281 306.957031 " fill-opacity="1" fill-rule="nonzero"/></g><path fill="#000000" d="M 258.871094 145.921875 L 215.324219 187.355469 L 258.871094 228.792969 C 260.039062 227.199219 260.785156 225.429688 261.113281 223.480469 L 261.113281 151.234375 C 260.785156 149.285156 260.039062 147.515625 258.871094 145.921875 Z M 258.871094 145.921875 " fill-opacity="1" fill-rule="nonzero"/><path fill="#000000" d="M 194.113281 207.546875 L 176.195312 190.492188 L 132.679688 231.894531 C 134.726562 233.246094 136.976562 233.917969 139.429688 233.910156 L 248.792969 233.910156 C 251.246094 233.917969 253.496094 233.246094 255.546875 231.894531 L 212.03125 190.492188 Z M 194.113281 207.546875 " fill-opacity="1" fill-rule="nonzero"/><path fill="#000000" d="M 129.351562 145.921875 C 128.183594 147.515625 127.4375 149.285156 127.113281 151.234375 L 127.113281 223.480469 C 127.4375 225.429688 128.183594 227.199219 129.351562 228.792969 L 172.898438 187.355469 Z M 129.351562 145.921875 " fill-opacity="1" fill-rule="nonzero"/><path fill="#000000" d="M 176.195312 184.222656 L 194.113281 201.308594 L 255.546875 142.816406 C 253.496094 141.46875 251.246094 140.796875 248.792969 140.800781 L 139.429688 140.800781 C 136.976562 140.796875 134.726562 141.46875 132.679688 142.816406 Z M 176.195312 184.222656 " fill-opacity="1" fill-rule="nonzero"/></svg>