<svg xmlns="http://www.w3.org/2000/svg" xmlns:xlink="http://www.w3.org/1999/xlink" width="500" zoomAndPan="magnify" viewBox="0 0 375 374.999991" height="500" preserveAspectRatio="xMidYMid meet" version="1.0"><defs><clipPath id="bc95995ce6"><path d="M 89.710938 165 L 186 165 L 186 290 L 89.710938 290 Z M 89.710938 165 " clip-rule="nonzero"/></clipPath><clipPath id="3e942e5a2c"><path d="M 159 30.09375 L 283 30.09375 L 283 110 L 159 110 Z M 159 30.09375 " clip-rule="nonzero"/></clipPath><clipPath id="4bec5b2a53"><path d="M 221 174.152344 L 285.417969 174.152344 L 285.417969 252.125 L 221 252.125 Z M 221 174.152344 " clip-rule="nonzero"/></clipPath><clipPath id="88f3a01651"><path d="M 225.714844 295 L 274.730469 295 L 274.730469 345.089844 L 225.714844 345.089844 Z M 225.714844 295 " clip-rule="nonzero"/></clipPath></defs><g clip-path="url(#bc95995ce6)"><path fill="#828442" d="M 89.765625 240.460938 C 89.800781 237.515625 90.261719 234.613281 90.65625 231.707031 C 91.382812 226.378906 92.132812 221.050781 92.984375 215.738281 C 94.621094 205.539062 96.679688 195.441406 100.460938 185.769531 C 101.453125 183.242188 102.578125 180.78125 103.933594 178.421875 C 106.605469 173.777344 110.558594 170.84375 115.683594 169.40625 C 119.125 168.445312 122.648438 167.988281 126.179688 167.542969 C 130.058594 167.050781 133.941406 166.554688 137.824219 166.074219 C 140.425781 165.753906 143.03125 165.453125 145.632812 165.144531 C 145.578125 165.664062 145.832031 166.09375 146.058594 166.523438 C 146.808594 167.9375 147.605469 169.328125 148.304688 170.765625 C 150.460938 175.203125 152.566406 179.667969 154.722656 184.105469 C 156.105469 186.945312 157.609375 189.730469 158.9375 192.59375 C 160.195312 195.296875 161.496094 197.96875 162.941406 200.574219 C 163.609375 201.78125 164.339844 202.941406 165.164062 204.042969 C 165.9375 205.078125 166.988281 205.429688 168.226562 205.207031 C 168.839844 205.097656 169.382812 204.765625 169.886719 204.386719 C 171.730469 203.007812 173.550781 201.59375 175.421875 200.253906 C 177.511719 198.757812 179.636719 197.304688 181.769531 195.871094 C 182.332031 195.492188 182.667969 194.785156 183.417969 194.621094 C 183.847656 195.46875 183.332031 196.171875 183.324219 196.90625 C 183.304688 199.96875 183.140625 203.035156 183.113281 206.089844 C 183.03125 214.582031 182.855469 223.082031 183.316406 231.570312 C 183.460938 234.183594 183.308594 236.800781 183.527344 239.425781 C 183.800781 242.644531 183.691406 245.898438 183.804688 249.140625 C 183.921875 252.511719 184.320312 255.875 184.128906 259.257812 C 184.125 259.347656 184.117188 259.441406 184.140625 259.523438 C 184.707031 261.5625 184.257812 263.667969 184.605469 265.742188 C 184.898438 267.472656 184.835938 269.289062 184.855469 271.046875 C 184.898438 274.421875 185.320312 277.785156 185.199219 281.164062 C 185.175781 281.875 185.078125 282.617188 185.230469 283.296875 C 185.671875 285.21875 185.242188 287.203125 185.742188 289.109375 C 184.21875 288.816406 182.691406 288.527344 181.167969 288.234375 C 177.679688 287.5625 174.183594 286.953125 170.660156 286.492188 C 168.105469 286.152344 165.550781 285.855469 162.980469 285.648438 C 159.753906 285.386719 156.535156 284.988281 153.3125 284.65625 C 150.042969 284.324219 146.789062 283.902344 143.539062 283.410156 C 143.296875 282.28125 143.28125 282.207031 142.328125 282.242188 C 139.917969 282.324219 137.566406 281.785156 135.179688 281.628906 C 134.144531 281.5625 133.042969 281.578125 132.039062 281.160156 C 131.605469 280.382812 131.296875 279.574219 131.148438 278.679688 C 130.449219 274.527344 130.199219 270.328125 129.925781 266.144531 C 129.703125 262.789062 129.457031 259.421875 129.546875 256.054688 C 130.628906 255.824219 130.65625 255.824219 130.65625 254.804688 C 130.65625 251.742188 130.503906 248.683594 130.445312 245.628906 C 130.296875 237.710938 130.394531 229.789062 130.394531 221.871094 C 130.394531 221.515625 130.417969 221.15625 130.382812 220.804688 C 130.332031 220.242188 129.863281 219.785156 129.367188 219.757812 C 128.828125 219.730469 128.234375 220.226562 128.277344 220.847656 C 128.402344 222.589844 127.960938 224.289062 127.972656 226.023438 C 128.042969 235.488281 127.832031 244.957031 128.257812 254.417969 C 126.480469 253.871094 124.691406 253.347656 122.925781 252.769531 C 114.660156 250.058594 106.402344 247.328125 98.136719 244.605469 C 96.210938 243.972656 94.28125 243.351562 92.429688 242.75 C 91.027344 242.214844 89.742188 242.285156 89.765625 240.460938 " fill-opacity="1" fill-rule="nonzero"/></g><path fill="#fab685" d="M 275.839844 245.746094 C 275.839844 246.78125 276.183594 247.761719 276.46875 248.730469 C 277.292969 251.527344 277.433594 254.40625 277.707031 257.277344 C 277.914062 259.4375 278.175781 261.597656 278.417969 263.753906 C 278.542969 264.855469 278.582031 265.964844 278.699219 267.070312 C 278.917969 269.097656 278.929688 271.148438 279.050781 273.1875 C 279.347656 278.113281 279.410156 283.046875 279.648438 287.972656 C 279.933594 293.890625 279.855469 299.804688 279.757812 305.71875 C 279.714844 308.09375 279.449219 310.484375 278.886719 312.839844 C 278.230469 315.613281 276.863281 317.945312 275.019531 320.042969 C 273.996094 321.207031 273.054688 322.464844 271.753906 323.359375 C 271.53125 323.511719 271.347656 323.703125 271.0625 323.734375 C 270.765625 322.542969 270.433594 322.339844 269.300781 322.816406 C 267.292969 323.65625 265.304688 324.550781 263.300781 325.40625 C 261.871094 326.015625 260.414062 326.570312 258.996094 327.203125 C 257.4375 327.902344 255.847656 327.542969 254.265625 327.4375 C 252.21875 327.300781 250.183594 327.023438 248.296875 326.199219 C 246.503906 325.414062 244.765625 324.496094 243.039062 323.574219 C 240.960938 322.457031 239.335938 320.84375 238.089844 318.835938 C 236.941406 316.988281 235.738281 315.167969 234.597656 313.3125 C 232.585938 310.050781 230.902344 306.621094 229.5625 303.023438 C 228.757812 300.855469 228.140625 298.628906 227.457031 296.421875 C 227.273438 295.839844 227.195312 295.164062 226.398438 295.042969 C 225.882812 292.886719 225.363281 290.726562 224.847656 288.566406 C 223.46875 282.777344 222.121094 276.984375 221.023438 271.136719 C 219.515625 263.109375 217.972656 255.082031 216.085938 247.136719 C 213.089844 234.523438 209.78125 221.980469 206.78125 209.363281 C 206.332031 207.480469 205.824219 205.570312 204.761719 203.894531 C 204.640625 203.054688 204.140625 202.410156 203.675781 201.746094 C 203.285156 200.824219 202.644531 200.121094 201.808594 199.574219 C 201.066406 199.085938 200.324219 198.589844 199.652344 198.019531 C 196.847656 195.640625 194.726562 192.824219 193.988281 189.117188 C 193.554688 186.929688 193.417969 184.726562 193.449219 182.507812 C 194.148438 182.441406 194.289062 181.980469 194.292969 181.378906 C 194.292969 180.175781 194.195312 178.957031 194.363281 177.777344 C 194.609375 176.066406 194.488281 174.34375 194.753906 172.609375 C 195.394531 172.121094 196.078125 171.625 196.734375 171.09375 C 197.621094 170.375 198.6875 170.105469 199.742188 170.285156 C 201.996094 170.667969 204.285156 170.214844 206.523438 170.714844 C 207.027344 170.832031 207.546875 170.679688 207.609375 170.03125 C 207.671875 169.40625 207.261719 169.207031 206.699219 169.136719 C 204.449219 168.871094 202.191406 168.726562 199.933594 168.585938 C 197.917969 168.457031 196.289062 169.09375 194.800781 170.363281 C 193.855469 171.175781 192.828125 171.898438 191.648438 172.339844 C 190.308594 172.839844 188.960938 172.941406 187.726562 172.007812 C 186.953125 171.425781 186.910156 171.175781 187.535156 170.394531 C 189.121094 168.410156 190.871094 166.578125 192.621094 164.738281 C 193.289062 164.039062 194 163.761719 194.964844 163.742188 C 198.550781 163.664062 202.039062 164.289062 205.527344 164.984375 C 206.4375 165.167969 207.363281 165.285156 208.285156 165.40625 C 208.664062 165.457031 209.015625 165.324219 209.160156 164.9375 C 209.332031 164.476562 209.046875 164.167969 208.695312 163.9375 C 208.359375 163.71875 207.980469 163.605469 207.574219 163.539062 C 206.21875 163.316406 204.867188 163.0625 203.515625 162.816406 C 200.671875 162.304688 197.824219 161.851562 194.921875 161.921875 C 193.578125 161.957031 192.34375 162.324219 191.46875 163.378906 C 190.074219 165.0625 188.375 166.457031 187.066406 168.210938 C 186.566406 168.878906 185.835938 169.046875 185.074219 169.136719 C 183.324219 169.347656 181.71875 168.941406 180.234375 168 C 179.070312 167.257812 179.023438 166.949219 179.957031 165.976562 C 180.945312 164.949219 181.96875 163.957031 182.925781 162.898438 C 184.984375 160.621094 186.992188 158.296875 189.222656 156.1875 C 189.828125 155.613281 190.5 155.023438 191.398438 154.972656 C 192.550781 154.902344 193.722656 154.84375 194.863281 155.050781 C 198.710938 155.742188 202.496094 156.714844 206.265625 157.742188 C 207.464844 158.066406 208.679688 158.324219 209.890625 158.609375 C 210.425781 158.738281 210.910156 158.617188 211.078125 158.058594 C 211.25 157.488281 210.863281 157.140625 210.382812 156.925781 C 210.222656 156.855469 210.035156 156.851562 209.863281 156.8125 C 209.257812 156.675781 208.648438 156.546875 208.046875 156.390625 C 203.574219 155.246094 199.136719 153.976562 194.566406 153.242188 C 191.902344 152.808594 189.582031 153.199219 187.625 155.296875 C 185.746094 157.3125 183.773438 159.246094 181.953125 161.324219 C 181.308594 162.058594 180.605469 162.113281 179.800781 161.761719 C 179.355469 161.566406 178.933594 161.304688 178.523438 161.039062 C 176.515625 159.738281 177.039062 159.503906 178.121094 158.199219 C 180.082031 155.832031 182.296875 153.695312 184.488281 151.542969 C 185.679688 150.378906 187.050781 149.660156 188.808594 149.871094 C 189.382812 149.9375 189.945312 150.039062 190.515625 150.128906 C 194.726562 150.789062 198.925781 151.523438 202.972656 152.910156 C 203.316406 153.027344 203.648438 153.152344 204.011719 153.097656 C 204.664062 153 204.9375 152.304688 204.527344 151.785156 C 204.328125 151.527344 204.027344 151.410156 203.738281 151.3125 C 202.808594 151.003906 201.886719 150.671875 200.9375 150.433594 C 197.28125 149.515625 193.585938 148.785156 189.851562 148.226562 C 188.148438 147.96875 186.570312 147.980469 185.089844 148.886719 C 184.222656 149.421875 183.355469 149.476562 182.410156 149.195312 C 181.859375 149.027344 181.28125 148.941406 180.722656 148.800781 C 178.253906 148.175781 175.851562 147.378906 173.742188 145.898438 C 172.074219 144.726562 170.921875 143.230469 170.878906 141.101562 C 171.417969 140.585938 172.03125 140.503906 172.664062 140.566406 C 174.429688 140.738281 176.199219 140.894531 177.957031 141.132812 C 180.460938 141.476562 182.945312 141.941406 185.4375 142.359375 C 191.34375 143.355469 197.238281 144.402344 203.039062 145.925781 C 204.972656 146.433594 206.898438 146.972656 208.804688 147.566406 C 211.15625 148.300781 212.65625 150.078125 213.898438 152.0625 C 215.382812 154.4375 216.960938 156.765625 218.109375 159.335938 C 218.472656 160.15625 218.988281 160.535156 219.882812 160.28125 C 220.480469 163.59375 220.644531 166.941406 220.785156 170.292969 C 220.835938 171.617188 221.074219 172.925781 221.046875 174.253906 C 221.242188 175.882812 221.386719 177.523438 221.644531 179.140625 C 222.59375 185.089844 224.53125 190.769531 226.441406 196.453125 C 227.179688 198.648438 228.066406 200.777344 229.140625 202.839844 C 231.5 207.378906 233.777344 211.960938 236.15625 216.492188 C 239.753906 223.34375 243.433594 230.152344 247.03125 237.003906 C 249.039062 240.820312 250.945312 244.691406 252.898438 248.535156 C 252.550781 249.011719 252.574219 249.484375 252.753906 250.042969 C 255.320312 257.890625 257.707031 265.789062 260.023438 273.714844 C 261.054688 277.25 262.058594 280.789062 262.792969 284.398438 C 263.039062 285.613281 263.214844 286.851562 263.730469 287.996094 C 263.960938 288.511719 264.34375 288.792969 264.898438 288.574219 C 265.40625 288.375 265.425781 287.925781 265.316406 287.449219 C 264.917969 285.765625 264.550781 284.082031 264.140625 282.402344 C 261.890625 273.214844 259.089844 264.191406 256.167969 255.199219 C 255.828125 254.148438 255.34375 253.136719 255.230469 252.015625 C 256.042969 252.097656 256.8125 251.878906 257.566406 251.621094 C 262.167969 250.039062 266.765625 248.433594 271.371094 246.863281 C 272.828125 246.367188 274.304688 245.941406 275.839844 245.746094 " fill-opacity="1" fill-rule="nonzero"/><path fill="#fab685" d="M 143.539062 283.410156 C 146.789062 283.902344 150.042969 284.324219 153.3125 284.65625 C 156.535156 284.988281 159.753906 285.386719 162.980469 285.648438 C 165.550781 285.855469 168.105469 286.152344 170.660156 286.492188 C 174.183594 286.953125 177.679688 287.5625 181.167969 288.234375 C 182.691406 288.527344 184.21875 288.816406 185.742188 289.109375 C 186.519531 289.355469 187.316406 289.507812 188.132812 289.578125 C 188.597656 289.714844 189.058594 289.875 189.527344 289.988281 C 194.285156 291.121094 199.0625 292.140625 203.902344 292.835938 C 206.359375 293.191406 208.800781 293.710938 211.308594 293.710938 C 215.109375 293.71875 218.703125 294.601562 222.03125 296.484375 C 223.460938 297.292969 224.917969 298.046875 226.359375 298.828125 L 226.351562 298.8125 C 226.382812 298.953125 226.480469 299.03125 226.617188 299.0625 C 226.804688 299.703125 226.980469 300.34375 227.175781 300.980469 C 228.230469 304.382812 229.539062 307.683594 231.257812 310.8125 C 232.820312 313.660156 234.566406 316.398438 236.296875 319.144531 C 237.632812 321.265625 239.21875 323.171875 241.40625 324.5 C 243.421875 325.726562 245.527344 326.78125 247.679688 327.738281 C 248.1875 327.964844 248.585938 328.253906 248.921875 328.683594 C 250.257812 330.402344 251.605469 332.109375 252.964844 333.808594 C 254.746094 336.03125 256.671875 338.121094 258.546875 340.257812 C 259.078125 340.867188 259.757812 341.414062 260.039062 342.289062 C 259.25 342.765625 258.488281 342.949219 257.601562 342.8125 C 256.078125 342.570312 254.710938 341.984375 253.445312 341.117188 C 252.125 340.214844 250.769531 339.359375 249.453125 338.445312 C 247.996094 337.433594 246.519531 336.417969 245.285156 335.144531 C 244.761719 334.601562 244.3125 334.296875 243.59375 334.386719 C 243.042969 334.222656 242.75 333.742188 242.375 333.375 C 240.03125 331.066406 237.808594 328.625 235.117188 326.6875 C 233.589844 325.582031 231.992188 324.597656 230.113281 324.285156 C 228.484375 324.015625 226.808594 324.082031 225.183594 324.292969 C 222.515625 324.640625 219.964844 324.21875 217.433594 323.488281 C 216.238281 323.140625 215.0625 322.726562 213.910156 322.261719 C 211.789062 321.402344 209.621094 321.207031 207.386719 321.601562 C 204.890625 322.042969 202.375 322.261719 199.84375 322.355469 C 195.890625 322.5 191.9375 322.652344 187.992188 322.925781 C 183.964844 323.199219 179.945312 323.585938 175.925781 323.988281 C 173.28125 324.25 170.648438 324.65625 168.003906 324.953125 C 165.886719 325.1875 163.761719 325.335938 161.644531 325.554688 C 159.570312 325.769531 157.5 326.015625 155.429688 326.253906 C 152.742188 326.558594 150.046875 326.832031 147.363281 327.179688 C 143.949219 327.621094 140.519531 327.480469 137.101562 327.390625 C 134.710938 327.328125 132.328125 327.015625 129.949219 326.71875 C 128.277344 326.511719 126.601562 326.332031 124.929688 326.121094 C 121.316406 325.660156 117.722656 325.089844 114.160156 324.355469 C 112.246094 323.964844 110.335938 323.566406 108.453125 323.03125 C 105.769531 322.265625 103.640625 320.664062 101.972656 318.542969 C 97.308594 312.609375 94.164062 305.9375 92.769531 298.496094 C 92.410156 296.582031 92.246094 294.632812 92.121094 292.679688 C 91.617188 284.757812 91.875 276.832031 91.996094 268.914062 C 92.066406 264.375 92.113281 259.835938 92.109375 255.300781 C 92.109375 252.277344 91.851562 249.257812 91.910156 246.230469 C 91.914062 245.8125 91.714844 243.457031 92.429688 242.75 C 94.28125 243.351562 96.210938 243.972656 98.136719 244.605469 C 106.402344 247.328125 114.660156 250.058594 122.925781 252.769531 C 124.691406 253.347656 126.480469 253.871094 128.257812 254.417969 C 128.609375 254.578125 128.957031 254.742188 129.261719 254.878906 C 129.484375 255.28125 129.273438 255.726562 129.546875 256.054688 C 129.457031 259.421875 129.703125 262.789062 129.925781 266.144531 C 130.199219 270.328125 130.449219 274.527344 131.148438 278.679688 C 131.296875 279.574219 131.605469 280.382812 132.039062 281.160156 C 129.625 280.855469 127.214844 280.550781 124.800781 280.25 C 122.300781 279.933594 119.800781 279.617188 117.300781 279.320312 C 117 279.289062 116.675781 279.328125 116.382812 279.40625 C 116.109375 279.480469 115.972656 279.726562 115.964844 280.019531 C 115.953125 280.320312 116.078125 280.53125 116.371094 280.628906 C 116.582031 280.703125 116.789062 280.820312 117.003906 280.824219 C 118.558594 280.875 120.066406 281.269531 121.605469 281.4375 C 123.40625 281.632812 125.203125 281.890625 127 282.125 C 129.277344 282.429688 131.554688 282.746094 133.835938 283.039062 C 135.894531 283.296875 137.957031 283.574219 140.023438 283.757812 C 141.203125 283.863281 142.421875 284.066406 143.539062 283.410156 " fill-opacity="1" fill-rule="nonzero"/><path fill="#fab583" d="M 161.515625 88.148438 C 161.953125 89.5 162.007812 90.660156 161.761719 91.875 C 161.59375 92.703125 161.457031 93.53125 161.25 94.347656 C 161.140625 94.769531 161.382812 95.042969 161.722656 95.203125 C 162.152344 95.40625 162.386719 95.078125 162.570312 94.777344 C 162.683594 94.59375 162.691406 94.351562 162.765625 94.148438 C 163.417969 92.390625 163.3125 90.5625 163.277344 88.738281 C 163.25 87.464844 162.878906 86.277344 162.195312 85.214844 C 161.4375 84.035156 160.390625 83.261719 158.898438 83.296875 C 158.414062 83.308594 157.835938 83.230469 157.71875 83.878906 C 157.59375 84.5625 158.171875 84.636719 158.644531 84.761719 C 158.816406 84.808594 158.984375 84.863281 159.160156 84.894531 C 160.121094 85.078125 160.625 85.75 161.109375 86.605469 C 160.511719 86.871094 159.972656 86.726562 159.464844 86.800781 C 159.007812 86.863281 158.722656 87.097656 158.742188 87.585938 C 158.757812 88.0625 159.105469 88.144531 159.488281 88.148438 C 160.148438 88.152344 160.808594 88.148438 161.515625 88.148438 Z M 243.402344 117.121094 C 244.519531 115.675781 245.769531 115.140625 247.363281 115.511719 C 247.710938 115.589844 248.039062 115.726562 248.378906 115.839844 C 248.839844 115.996094 249.300781 116 249.519531 115.496094 C 249.742188 114.980469 249.355469 114.667969 248.972656 114.421875 C 248.753906 114.277344 248.5 114.167969 248.25 114.089844 C 245.789062 113.316406 243.773438 114.023438 242.167969 116.152344 C 241.417969 117.152344 240.886719 118.285156 240.429688 119.441406 C 240.105469 120.257812 239.851562 121.128906 240.03125 122.039062 C 240.113281 122.4375 240.382812 122.644531 240.796875 122.625 C 241.183594 122.605469 241.34375 122.355469 241.335938 122.003906 C 241.316406 121.128906 241.683594 120.355469 241.964844 119.570312 C 242.300781 118.640625 242.5 118.539062 243.457031 118.75 C 244.03125 118.878906 244.601562 118.867188 245.175781 118.890625 C 245.617188 118.910156 246.171875 118.984375 246.277344 118.417969 C 246.390625 117.820312 245.953125 117.578125 245.398438 117.5 C 244.796875 117.414062 244.203125 117.273438 243.402344 117.121094 Z M 204.84375 132.210938 C 205.765625 132.210938 206.523438 132.253906 207.277344 132.199219 C 207.855469 132.152344 208.289062 131.789062 208.363281 131.191406 C 208.441406 130.539062 207.980469 130.25 207.429688 130.078125 C 207.046875 129.957031 206.660156 129.898438 206.253906 129.871094 C 204.644531 129.761719 203.050781 129.992188 201.476562 130.21875 C 198.210938 130.6875 195.097656 131.78125 192.007812 132.910156 C 191.09375 133.242188 190.203125 133.679688 189.53125 134.4375 C 189.160156 134.855469 189.058594 135.285156 189.394531 135.761719 C 189.761719 136.28125 190.214844 136.207031 190.679688 135.929688 C 192.648438 134.738281 194.832031 134.132812 197.015625 133.519531 C 199.632812 132.78125 202.277344 132.238281 204.84375 132.210938 Z M 221.738281 94.75 C 222.941406 94.664062 224.304688 94.46875 225.660156 94.199219 C 228.523438 93.636719 231.402344 93.53125 234.289062 94.011719 C 234.464844 94.039062 234.640625 94.078125 234.816406 94.09375 C 235.417969 94.144531 235.871094 93.929688 236.050781 93.320312 C 236.21875 92.757812 235.902344 92.269531 235.195312 92.023438 C 234.90625 91.921875 234.59375 91.871094 234.285156 91.828125 C 231.351562 91.390625 228.429688 91.480469 225.519531 92.035156 C 224.253906 92.277344 222.992188 92.574219 221.703125 92.65625 C 220.054688 92.765625 219.316406 92.144531 219.085938 90.503906 C 219.023438 90.0625 219.046875 89.613281 218.980469 89.175781 C 218.894531 88.628906 218.570312 88.265625 217.992188 88.289062 C 217.476562 88.304688 217.21875 88.660156 217.105469 89.140625 C 216.40625 92.089844 218.566406 94.808594 221.738281 94.75 Z M 186.75 80.871094 C 185.996094 80.890625 185.382812 80.660156 184.757812 80.792969 C 184.238281 80.902344 183.859375 81.1875 183.832031 81.769531 C 183.804688 82.339844 184.109375 82.71875 184.648438 82.820312 C 185.257812 82.9375 185.882812 83.007812 186.5 83.027344 C 188.113281 83.078125 189.664062 83.417969 191.191406 83.929688 C 193.152344 84.585938 194.914062 85.597656 196.609375 86.753906 C 197.566406 87.40625 198.546875 88.019531 199.71875 88.226562 C 201.769531 88.59375 203.929688 87.03125 204.21875 84.980469 C 204.289062 84.480469 204.144531 84.085938 203.675781 83.882812 C 203.199219 83.679688 202.796875 83.863281 202.523438 84.277344 C 202.328125 84.570312 202.199219 84.910156 202.015625 85.214844 C 201.40625 86.234375 200.644531 86.488281 199.53125 86.046875 C 198.738281 85.734375 198.066406 85.222656 197.375 84.734375 C 194.148438 82.449219 190.601562 81.054688 186.75 80.871094 Z M 201.253906 105.867188 C 201.253906 105.253906 201.328125 104.675781 200.628906 104.488281 C 200.09375 104.339844 199.660156 104.660156 199.367188 105.398438 C 199.285156 105.601562 199.210938 105.8125 199.152344 106.027344 C 198.71875 107.59375 197.941406 108.960938 196.949219 110.25 C 195.757812 111.800781 194.484375 113.277344 193.195312 114.742188 C 191.6875 116.460938 191.585938 118.441406 193.042969 119.851562 C 194.621094 121.378906 196.5625 122.222656 198.714844 122.582031 C 199.023438 122.636719 199.332031 122.605469 199.628906 122.472656 C 200.082031 122.273438 200.347656 121.929688 200.371094 121.449219 C 200.390625 121 200.074219 120.707031 199.691406 120.550781 C 199.324219 120.398438 198.929688 120.292969 198.535156 120.242188 C 197.210938 120.078125 196.085938 119.464844 195.058594 118.667969 C 194.109375 117.9375 194.0625 117.40625 194.699219 116.394531 C 194.941406 116.015625 195.234375 115.691406 195.542969 115.367188 C 197.265625 113.558594 198.730469 111.546875 200.027344 109.425781 C 200.699219 108.328125 201.066406 107.078125 201.253906 105.867188 Z M 177.203125 115.410156 C 178.324219 115.492188 179.390625 115.335938 180.351562 114.636719 C 181.703125 113.65625 181.894531 112.089844 180.78125 110.828125 C 180.167969 110.136719 179.386719 109.742188 178.523438 109.484375 C 177.164062 109.082031 175.796875 108.757812 174.378906 108.585938 C 173.476562 108.476562 172.6875 108.636719 171.9375 108.964844 C 170.550781 109.574219 170.140625 110.933594 170.804688 112.304688 C 171.105469 112.917969 171.527344 113.40625 172.089844 113.804688 C 173.621094 114.882812 175.277344 115.546875 177.203125 115.410156 Z M 223.117188 126.363281 C 223.730469 126.464844 224.4375 126.199219 225.136719 125.90625 C 225.753906 125.640625 226.171875 125.160156 226.304688 124.53125 C 226.589844 123.21875 226.269531 122.042969 225.226562 121.160156 C 223.777344 119.929688 222.074219 119.160156 220.253906 118.683594 C 219.015625 118.359375 217.765625 118.132812 216.539062 118.949219 C 215.535156 119.613281 215.253906 120.097656 215.613281 121.253906 C 216.445312 123.925781 219.90625 126.335938 223.117188 126.363281 Z M 184.234375 92.128906 C 184.140625 92.65625 183.753906 92.855469 183.5 93.152344 C 181.992188 94.894531 180.9375 96.886719 180.296875 99.089844 C 179.929688 100.347656 179.855469 101.628906 180.101562 102.921875 C 180.746094 106.28125 183.917969 107.65625 186.808594 105.820312 C 187.839844 105.167969 188.664062 104.304688 189.3125 103.269531 C 191.261719 100.160156 191.652344 96.796875 190.917969 93.257812 C 190.703125 92.214844 190.09375 91.398438 189.195312 90.808594 C 187.457031 89.675781 185.570312 89.421875 183.574219 89.925781 C 182.5625 90.179688 181.683594 90.710938 180.914062 91.398438 C 180.300781 91.945312 180.210938 92.5625 180.609375 93.03125 C 180.984375 93.476562 181.507812 93.496094 182.160156 93.082031 C 182.421875 92.914062 182.652344 92.699219 182.921875 92.539062 C 183.292969 92.324219 183.644531 92.019531 184.234375 92.128906 Z M 221.691406 101.324219 C 222.417969 101.535156 222.894531 102.046875 223.296875 102.652344 C 223.46875 102.910156 223.605469 103.199219 223.804688 103.433594 C 224.214844 103.933594 224.773438 104.0625 225.214844 103.765625 C 225.683594 103.449219 225.8125 102.980469 225.597656 102.476562 C 225.078125 101.257812 224.269531 100.285156 223.113281 99.601562 C 219.902344 97.703125 216.148438 98.1875 214.050781 100.855469 C 213.144531 102.007812 212.351562 103.261719 211.765625 104.605469 C 210.917969 106.546875 210.699219 108.554688 211.421875 110.589844 C 212.585938 113.851562 215.710938 114.773438 218.496094 112.6875 C 219.476562 111.949219 220.203125 111.003906 220.738281 109.910156 C 222.039062 107.234375 222.292969 104.464844 221.445312 101.609375 C 221.527344 101.511719 221.609375 101.417969 221.691406 101.324219 Z M 251.769531 109.121094 C 253.9375 110.324219 254.488281 112.296875 253.972656 114.589844 C 253.5 116.691406 252.417969 118.457031 251.136719 120.125 C 249.859375 121.785156 248.363281 123.253906 246.882812 124.730469 C 246.050781 125.558594 245.105469 126.214844 244.121094 126.824219 C 242.476562 127.839844 240.691406 127.960938 238.84375 127.542969 C 238.328125 127.425781 237.820312 127.285156 237.242188 127.136719 C 236.136719 129.046875 235.066406 130.9375 233.953125 132.808594 C 231.554688 136.832031 228.863281 140.632812 225.519531 143.949219 C 223.1875 146.257812 220.46875 148.019531 217.679688 149.683594 C 216.914062 150.140625 216.117188 150.53125 215.332031 150.957031 C 215.078125 150.828125 214.972656 150.578125 214.824219 150.355469 C 213.234375 147.980469 211.140625 146.351562 208.316406 145.585938 C 204.976562 144.683594 201.636719 143.796875 198.273438 142.976562 C 193.960938 141.921875 189.550781 141.40625 185.207031 140.535156 C 182.46875 139.988281 179.707031 139.585938 176.933594 139.277344 C 175.171875 139.078125 173.410156 138.804688 171.625 138.929688 C 169.867188 139.046875 169.140625 139.820312 169.148438 141.546875 C 169.152344 142.375 169.414062 143.117188 169.734375 143.855469 C 169.910156 144.257812 170.210938 144.613281 170.242188 145.078125 C 169.332031 144.730469 168.910156 143.878906 168.679688 143.105469 C 168.3125 141.867188 167.566406 140.929688 166.808594 139.972656 C 166.347656 139.390625 165.773438 138.902344 165.382812 138.253906 C 165.242188 138.023438 165.003906 137.886719 164.714844 137.898438 C 163.792969 135.445312 162.890625 132.984375 162.113281 130.484375 C 161.046875 127.042969 160.261719 123.546875 159.761719 119.976562 C 159.457031 117.820312 159.308594 115.652344 159.0625 113.496094 C 158.816406 111.363281 159.195312 109.242188 159.410156 107.121094 C 159.527344 105.941406 159.683594 104.765625 159.832031 103.511719 C 158.757812 103.324219 157.859375 102.992188 156.980469 102.570312 C 154.25 101.257812 152.847656 98.988281 152.390625 96.109375 C 151.777344 92.257812 151.757812 88.402344 152.875 84.621094 C 153.433594 82.734375 154.191406 80.9375 155.925781 79.753906 C 157.007812 79.015625 158.15625 78.695312 159.453125 78.917969 C 161.394531 79.707031 162.582031 81.207031 163.378906 83.074219 C 163.601562 83.589844 163.882812 84.011719 164.476562 84.140625 C 164.941406 83.765625 164.8125 83.042969 165.347656 82.632812 C 165.617188 82.675781 165.917969 82.71875 166.21875 82.765625 C 168.339844 83.109375 170.070312 82.410156 171.46875 80.816406 C 172.328125 79.839844 173.074219 78.789062 173.640625 77.621094 C 174.402344 76.0625 175.125 74.484375 175.859375 72.914062 C 176.425781 71.703125 177.035156 70.511719 177.859375 69.449219 C 180.683594 65.820312 184.375 64.394531 188.917969 65.058594 C 190.664062 65.3125 192.242188 66.027344 193.847656 66.671875 C 194.335938 66.863281 194.734375 66.902344 195.238281 66.707031 C 197.667969 65.761719 200.203125 65.679688 202.734375 66.089844 C 206.625 66.722656 209.96875 68.492188 212.777344 71.261719 C 214.710938 73.171875 216.640625 75.074219 218.863281 76.660156 C 223.273438 79.808594 228.058594 82.265625 233.039062 84.339844 C 238.554688 86.632812 244.175781 88.601562 250.269531 88.589844 C 250.945312 89.332031 251.109375 90.183594 251.058594 91.171875 C 250.917969 93.804688 250.335938 96.371094 250.007812 98.972656 C 249.902344 99.820312 249.617188 100.613281 249.285156 101.394531 C 248.222656 103.894531 247.167969 106.394531 246.121094 108.898438 C 246 109.191406 245.667969 109.496094 246.070312 109.898438 C 247.886719 109.164062 249.769531 108.667969 251.769531 109.121094 " fill-opacity="1" fill-rule="nonzero"/><g clip-path="url(#3e942e5a2c)"><path fill="#261916" d="M 251.769531 109.121094 C 249.769531 108.667969 247.886719 109.164062 246.070312 109.898438 C 245.667969 109.496094 246 109.191406 246.121094 108.898438 C 247.167969 106.394531 248.222656 103.894531 249.285156 101.394531 C 249.617188 100.613281 249.902344 99.820312 250.007812 98.972656 C 250.335938 96.371094 250.917969 93.804688 251.058594 91.171875 C 251.109375 90.183594 250.945312 89.332031 250.269531 88.589844 C 244.175781 88.601562 238.554688 86.632812 233.039062 84.339844 C 228.058594 82.265625 223.273438 79.808594 218.863281 76.660156 C 216.640625 75.074219 214.710938 73.171875 212.777344 71.261719 C 209.96875 68.492188 206.625 66.722656 202.734375 66.089844 C 200.203125 65.679688 197.667969 65.761719 195.238281 66.707031 C 194.734375 66.902344 194.335938 66.863281 193.847656 66.671875 C 192.242188 66.027344 190.664062 65.3125 188.917969 65.058594 C 184.375 64.394531 180.683594 65.820312 177.859375 69.449219 C 177.035156 70.511719 176.425781 71.703125 175.859375 72.914062 C 175.125 74.484375 174.402344 76.0625 173.640625 77.621094 C 173.074219 78.789062 172.328125 79.839844 171.46875 80.816406 C 170.070312 82.410156 168.339844 83.109375 166.21875 82.765625 C 165.917969 82.71875 165.617188 82.675781 165.347656 82.632812 C 164.8125 83.042969 164.941406 83.765625 164.476562 84.140625 C 163.882812 84.011719 163.601562 83.589844 163.378906 83.074219 C 162.582031 81.207031 161.394531 79.707031 159.453125 78.917969 C 159.527344 75.359375 159.394531 71.792969 159.796875 68.238281 C 160.929688 58.265625 164.597656 49.480469 171.90625 42.421875 C 175.183594 39.257812 178.949219 36.847656 183.355469 35.519531 C 183.996094 35.328125 184.648438 35.039062 185.128906 35.761719 C 193.394531 31.414062 202.3125 30.558594 211.351562 30.3125 C 219.390625 30.09375 227.121094 31.722656 234.652344 34.355469 C 239.839844 36.164062 244.414062 39.085938 248.546875 42.691406 C 249.625 43.628906 250.664062 44.605469 251.773438 45.503906 C 257.054688 49.773438 263.140625 52.261719 269.769531 53.488281 C 271.613281 53.832031 273.488281 53.878906 275.363281 53.761719 C 276.476562 53.695312 277.589844 53.660156 278.703125 53.632812 C 279.28125 53.617188 279.855469 53.675781 280.417969 53.847656 C 281.679688 54.238281 282.15625 54.941406 281.976562 56.253906 C 281.816406 57.429688 281.242188 58.445312 280.617188 59.421875 C 278.660156 62.460938 276.472656 65.328125 274.058594 68.019531 C 273.703125 68.414062 273.335938 68.804688 272.964844 69.191406 C 270.25 72.011719 267.246094 74.417969 263.542969 75.625 C 263.25 75.976562 263.328125 76.300781 263.320312 76.605469 C 263.292969 78.039062 263.109375 79.457031 262.699219 80.828125 C 261.316406 85.429688 260.222656 90.117188 258.679688 94.675781 C 258.039062 96.578125 257.273438 98.425781 256.351562 100.210938 C 254.820312 103.179688 253.296875 106.152344 251.769531 109.121094 " fill-opacity="1" fill-rule="nonzero"/></g><g clip-path="url(#4bec5b2a53)"><path fill="#828442" d="M 275.839844 245.746094 C 274.304688 245.941406 272.828125 246.367188 271.371094 246.863281 C 266.765625 248.433594 262.167969 250.039062 257.566406 251.621094 C 256.8125 251.878906 256.042969 252.097656 255.230469 252.015625 C 254.832031 251.324219 254.628906 250.558594 254.367188 249.8125 C 254.125 249.125 253.785156 248.507812 252.898438 248.535156 C 250.945312 244.691406 249.039062 240.820312 247.03125 237.003906 C 243.433594 230.152344 239.753906 223.34375 236.15625 216.492188 C 233.777344 211.960938 231.5 207.378906 229.140625 202.839844 C 228.066406 200.777344 227.179688 198.648438 226.441406 196.453125 C 224.53125 190.769531 222.59375 185.089844 221.644531 179.140625 C 221.386719 177.523438 221.242188 175.882812 221.046875 174.253906 C 225.347656 176.367188 229.871094 177.785156 234.585938 178.621094 C 237.308594 179.101562 240.054688 179.347656 242.808594 179.515625 C 246.761719 179.753906 250.71875 179.964844 254.65625 180.378906 C 258.703125 180.804688 262.378906 182.070312 265.394531 184.929688 C 267.226562 186.671875 268.648438 188.695312 269.722656 190.976562 C 272.042969 195.898438 273.953125 200.972656 275.449219 206.207031 C 278.429688 216.648438 281.359375 227.101562 284.488281 237.496094 C 284.902344 238.859375 285.207031 240.246094 285.417969 241.8125 C 282.261719 243.195312 279.054688 244.480469 275.839844 245.746094 " fill-opacity="1" fill-rule="nonzero"/></g><path fill="#828442" d="M 147.503906 164.878906 C 149.117188 164.613281 150.730469 164.347656 152.347656 164.085938 C 153.046875 163.972656 153.746094 163.867188 154.445312 163.757812 C 155.566406 163.855469 156.628906 163.4375 157.699219 163.460938 C 158.433594 162.15625 158.726562 162.109375 159.566406 163.226562 C 160.132812 163.976562 160.835938 164.597656 161.410156 165.328125 C 165.90625 171.007812 170.90625 176.25 175.542969 181.808594 C 178.15625 184.945312 180.910156 187.964844 183.601562 191.035156 C 183.601562 191.429688 183.398438 191.71875 183.097656 191.933594 C 181.335938 193.199219 179.738281 194.675781 177.902344 195.851562 C 176.261719 196.902344 174.648438 197.996094 173.113281 199.210938 C 171.554688 200.449219 169.898438 201.5625 168.316406 202.773438 C 167.753906 203.199219 167.351562 203.097656 166.945312 202.621094 C 166.773438 202.417969 166.621094 202.199219 166.464844 201.988281 C 165.378906 200.515625 164.539062 198.894531 163.726562 197.269531 C 160.542969 190.914062 157.421875 184.523438 154.277344 178.144531 C 154.175781 177.945312 154.078125 177.746094 153.992188 177.542969 C 152.734375 174.644531 151.28125 171.847656 149.777344 169.074219 C 149.015625 167.675781 148.09375 166.367188 147.503906 164.878906 " fill-opacity="1" fill-rule="nonzero"/><path fill="#fab685" d="M 183.601562 191.035156 C 180.910156 187.964844 178.15625 184.945312 175.542969 181.808594 C 170.90625 176.25 165.90625 171.007812 161.410156 165.328125 C 160.835938 164.597656 160.132812 163.976562 159.566406 163.226562 C 158.726562 162.109375 158.433594 162.15625 157.699219 163.460938 C 156.628906 163.4375 155.566406 163.855469 154.445312 163.757812 C 155.707031 162.9375 157.027344 162.21875 158.382812 161.566406 C 161.5 160.0625 163.253906 157.582031 163.796875 154.1875 C 163.957031 153.183594 164.214844 152.199219 164.425781 151.203125 C 164.507812 151.238281 164.636719 151.25 164.664062 151.308594 C 165.25 152.613281 166.332031 153.246094 167.632812 153.71875 C 170.375 154.707031 173.1875 155.433594 176.03125 156.039062 C 176.472656 156.132812 176.894531 156.210938 177.195312 156.582031 C 176.851562 157.046875 176.488281 157.496094 176.164062 157.972656 C 175.019531 159.664062 175.214844 160.707031 176.878906 161.902344 C 177.773438 162.542969 178.703125 163.121094 179.871094 163.582031 C 179.203125 164.28125 178.601562 164.855469 178.066406 165.488281 C 177.078125 166.648438 177.222656 167.949219 178.457031 168.824219 C 180.152344 170.03125 181.976562 170.894531 184.136719 170.769531 C 184.4375 170.75 184.757812 170.710938 185.070312 170.886719 C 185.414062 171.472656 185.449219 172.210938 185.984375 172.753906 C 187.4375 174.253906 189.121094 174.828125 191.179688 174.339844 C 191.707031 174.214844 192.230469 173.878906 192.988281 174.121094 C 192.59375 176.71875 192.722656 179.328125 192.664062 181.933594 C 190.050781 184.214844 188.050781 186.996094 186.230469 189.917969 C 185.152344 189.8125 184.441406 190.585938 183.601562 191.035156 " fill-opacity="1" fill-rule="nonzero"/><path fill="#757633" d="M 183.601562 191.035156 C 184.441406 190.585938 185.152344 189.8125 186.230469 189.917969 C 186.4375 190.414062 186.96875 190.753906 186.621094 191.476562 C 186.125 192.515625 186.214844 192.53125 187.179688 193.269531 C 189.695312 195.214844 192.238281 197.128906 194.746094 199.085938 C 196.347656 200.335938 197.839844 201.730469 199.535156 202.855469 C 200.671875 203.609375 201.367188 203.539062 202.390625 202.613281 C 202.777344 202.265625 203.0625 201.761719 203.675781 201.746094 C 204.140625 202.410156 204.640625 203.054688 204.761719 203.894531 C 204.25 203.875 204 204.289062 203.648438 204.546875 C 201.929688 205.820312 200.589844 206.234375 198.558594 204.855469 C 197.238281 203.960938 196.015625 202.941406 194.777344 201.929688 C 192.722656 200.253906 190.601562 198.648438 188.53125 196.988281 C 187.625 196.257812 186.785156 195.398438 185.742188 194.910156 C 185.433594 195.109375 185.472656 195.347656 185.46875 195.5625 C 185.375 200.445312 185.464844 205.328125 185.261719 210.21875 C 185.082031 214.558594 185.085938 218.917969 185.410156 223.277344 C 185.746094 227.789062 185.277344 232.332031 185.703125 236.863281 C 185.953125 239.511719 185.78125 242.179688 185.917969 244.84375 C 186.089844 248.117188 186.242188 251.40625 186.25 254.691406 C 186.253906 257.3125 186.722656 259.910156 186.539062 262.535156 C 186.53125 262.625 186.53125 262.71875 186.554688 262.800781 C 187.109375 264.886719 186.675781 267.035156 187.011719 269.15625 C 187.332031 271.152344 187.117188 273.21875 187.273438 275.261719 C 187.5 278.261719 187.355469 281.289062 187.574219 284.304688 C 187.703125 286.074219 187.867188 287.828125 188.132812 289.578125 C 187.316406 289.507812 186.519531 289.355469 185.742188 289.109375 C 185.242188 287.203125 185.671875 285.21875 185.230469 283.296875 C 185.078125 282.617188 185.175781 281.875 185.199219 281.164062 C 185.320312 277.785156 184.898438 274.421875 184.855469 271.046875 C 184.835938 269.289062 184.898438 267.472656 184.605469 265.742188 C 184.257812 263.667969 184.707031 261.5625 184.140625 259.523438 C 184.117188 259.441406 184.125 259.347656 184.128906 259.257812 C 184.320312 255.875 183.921875 252.511719 183.804688 249.140625 C 183.691406 245.898438 183.800781 242.644531 183.527344 239.425781 C 183.308594 236.800781 183.460938 234.183594 183.316406 231.570312 C 182.855469 223.082031 183.03125 214.582031 183.113281 206.089844 C 183.140625 203.035156 183.304688 199.96875 183.324219 196.90625 C 183.332031 196.171875 183.847656 195.46875 183.417969 194.621094 C 182.667969 194.785156 182.332031 195.492188 181.769531 195.871094 C 179.636719 197.304688 177.511719 198.757812 175.421875 200.253906 C 173.550781 201.59375 171.730469 203.007812 169.886719 204.386719 C 169.382812 204.765625 168.839844 205.097656 168.226562 205.207031 C 166.988281 205.429688 165.9375 205.078125 165.164062 204.042969 C 164.339844 202.941406 163.609375 201.78125 162.941406 200.574219 C 161.496094 197.96875 160.195312 195.296875 158.9375 192.59375 C 157.609375 189.730469 156.105469 186.945312 154.722656 184.105469 C 152.566406 179.667969 150.460938 175.203125 148.304688 170.765625 C 147.605469 169.328125 146.808594 167.9375 146.058594 166.523438 C 145.832031 166.09375 145.578125 165.664062 145.632812 165.144531 C 146.171875 164.46875 146.800781 164.425781 147.503906 164.878906 C 148.09375 166.367188 149.015625 167.675781 149.777344 169.074219 C 151.28125 171.847656 152.734375 174.644531 153.992188 177.542969 C 154.078125 177.746094 154.175781 177.945312 154.277344 178.144531 C 157.421875 184.523438 160.542969 190.914062 163.726562 197.269531 C 164.539062 198.894531 165.378906 200.515625 166.464844 201.988281 C 166.621094 202.199219 166.773438 202.417969 166.945312 202.621094 C 167.351562 203.097656 167.753906 203.199219 168.316406 202.773438 C 169.898438 201.5625 171.554688 200.449219 173.113281 199.210938 C 174.648438 197.996094 176.261719 196.902344 177.902344 195.851562 C 179.738281 194.675781 181.335938 193.199219 183.097656 191.933594 C 183.398438 191.71875 183.601562 191.429688 183.601562 191.035156 " fill-opacity="1" fill-rule="nonzero"/><path fill="#da654b" d="M 192.664062 181.933594 C 192.722656 179.328125 192.59375 176.71875 192.988281 174.121094 C 192.230469 173.878906 191.707031 174.214844 191.179688 174.339844 C 189.121094 174.828125 187.4375 174.253906 185.984375 172.753906 C 185.449219 172.210938 185.414062 171.472656 185.070312 170.886719 C 184.757812 170.710938 184.4375 170.75 184.136719 170.769531 C 181.976562 170.894531 180.152344 170.03125 178.457031 168.824219 C 177.222656 167.949219 177.078125 166.648438 178.066406 165.488281 C 178.601562 164.855469 179.203125 164.28125 179.871094 163.582031 C 178.703125 163.121094 177.773438 162.542969 176.878906 161.902344 C 175.214844 160.707031 175.019531 159.664062 176.164062 157.972656 C 176.488281 157.496094 176.851562 157.046875 177.195312 156.582031 C 177.636719 156.089844 178.0625 155.582031 178.523438 155.109375 C 179.675781 153.933594 180.84375 152.78125 182 151.609375 C 182.199219 151.40625 182.523438 151.230469 182.332031 150.789062 C 180.285156 150.539062 178.324219 149.875 176.351562 149.226562 C 174.054688 148.464844 172.238281 147.007812 170.550781 145.351562 C 170.441406 145.257812 170.335938 145.164062 170.226562 145.070312 L 170.242188 145.078125 C 170.210938 144.613281 169.910156 144.257812 169.734375 143.855469 C 169.414062 143.117188 169.152344 142.375 169.148438 141.546875 C 169.140625 139.820312 169.867188 139.046875 171.625 138.929688 C 173.410156 138.804688 175.171875 139.078125 176.933594 139.277344 C 179.707031 139.585938 182.46875 139.988281 185.207031 140.535156 C 189.550781 141.40625 193.960938 141.921875 198.273438 142.976562 C 201.636719 143.796875 204.976562 144.683594 208.316406 145.585938 C 211.140625 146.351562 213.234375 147.980469 214.824219 150.355469 C 214.972656 150.578125 215.078125 150.828125 215.332031 150.957031 C 216.234375 152.464844 217.121094 153.988281 218.046875 155.484375 C 218.675781 156.5 219.1875 157.570312 219.722656 158.632812 C 219.996094 159.171875 220.109375 159.703125 219.882812 160.28125 C 218.988281 160.535156 218.472656 160.15625 218.109375 159.335938 C 216.960938 156.765625 215.382812 154.4375 213.898438 152.0625 C 212.65625 150.078125 211.15625 148.300781 208.804688 147.566406 C 206.898438 146.972656 204.972656 146.433594 203.039062 145.925781 C 197.238281 144.402344 191.34375 143.355469 185.4375 142.359375 C 182.945312 141.941406 180.460938 141.476562 177.957031 141.132812 C 176.199219 140.894531 174.429688 140.738281 172.664062 140.566406 C 172.03125 140.503906 171.417969 140.585938 170.878906 141.101562 C 170.921875 143.230469 172.074219 144.726562 173.742188 145.898438 C 175.851562 147.378906 178.253906 148.175781 180.722656 148.800781 C 181.28125 148.941406 181.859375 149.027344 182.410156 149.195312 C 183.355469 149.476562 184.222656 149.421875 185.089844 148.886719 C 186.570312 147.980469 188.148438 147.96875 189.851562 148.226562 C 193.585938 148.785156 197.28125 149.515625 200.9375 150.433594 C 201.886719 150.671875 202.808594 151.003906 203.738281 151.3125 C 204.027344 151.410156 204.328125 151.527344 204.527344 151.785156 C 204.9375 152.304688 204.664062 153 204.011719 153.097656 C 203.648438 153.152344 203.316406 153.027344 202.972656 152.910156 C 198.925781 151.523438 194.726562 150.789062 190.515625 150.128906 C 189.945312 150.039062 189.382812 149.9375 188.808594 149.871094 C 187.050781 149.660156 185.679688 150.378906 184.488281 151.542969 C 182.296875 153.695312 180.082031 155.832031 178.121094 158.199219 C 177.039062 159.503906 176.515625 159.738281 178.523438 161.039062 C 178.933594 161.304688 179.355469 161.566406 179.800781 161.761719 C 180.605469 162.113281 181.308594 162.058594 181.953125 161.324219 C 183.773438 159.246094 185.746094 157.3125 187.625 155.296875 C 189.582031 153.199219 191.902344 152.808594 194.566406 153.242188 C 199.136719 153.976562 203.574219 155.246094 208.046875 156.390625 C 208.648438 156.546875 209.257812 156.675781 209.863281 156.8125 C 210.035156 156.851562 210.222656 156.855469 210.382812 156.925781 C 210.863281 157.140625 211.25 157.488281 211.078125 158.058594 C 210.910156 158.617188 210.425781 158.738281 209.890625 158.609375 C 208.679688 158.324219 207.464844 158.066406 206.265625 157.742188 C 202.496094 156.714844 198.710938 155.742188 194.863281 155.050781 C 193.722656 154.84375 192.550781 154.902344 191.398438 154.972656 C 190.5 155.023438 189.828125 155.613281 189.222656 156.1875 C 186.992188 158.296875 184.984375 160.621094 182.925781 162.898438 C 181.96875 163.957031 180.945312 164.949219 179.957031 165.976562 C 179.023438 166.949219 179.070312 167.257812 180.234375 168 C 181.71875 168.941406 183.324219 169.347656 185.074219 169.136719 C 185.835938 169.046875 186.566406 168.878906 187.066406 168.210938 C 188.375 166.457031 190.074219 165.0625 191.46875 163.378906 C 192.34375 162.324219 193.578125 161.957031 194.921875 161.921875 C 197.824219 161.851562 200.671875 162.304688 203.515625 162.816406 C 204.867188 163.0625 206.21875 163.316406 207.574219 163.539062 C 207.980469 163.605469 208.359375 163.71875 208.695312 163.9375 C 209.046875 164.167969 209.332031 164.476562 209.160156 164.9375 C 209.015625 165.324219 208.664062 165.457031 208.285156 165.40625 C 207.363281 165.285156 206.4375 165.167969 205.527344 164.984375 C 202.039062 164.289062 198.550781 163.664062 194.964844 163.742188 C 194 163.761719 193.289062 164.039062 192.621094 164.738281 C 190.871094 166.578125 189.121094 168.410156 187.535156 170.394531 C 186.910156 171.175781 186.953125 171.425781 187.726562 172.007812 C 188.960938 172.941406 190.308594 172.839844 191.648438 172.339844 C 192.828125 171.898438 193.855469 171.175781 194.800781 170.363281 C 196.289062 169.09375 197.917969 168.457031 199.933594 168.585938 C 202.191406 168.726562 204.449219 168.871094 206.699219 169.136719 C 207.261719 169.207031 207.671875 169.40625 207.609375 170.03125 C 207.546875 170.679688 207.027344 170.832031 206.523438 170.714844 C 204.285156 170.214844 201.996094 170.667969 199.742188 170.285156 C 198.6875 170.105469 197.621094 170.375 196.734375 171.09375 C 196.078125 171.625 195.394531 172.121094 194.753906 172.609375 C 194.488281 174.34375 194.609375 176.066406 194.363281 177.777344 C 194.195312 178.957031 194.292969 180.175781 194.292969 181.378906 C 194.289062 181.980469 194.148438 182.441406 193.449219 182.507812 C 193.1875 182.316406 192.925781 182.125 192.664062 181.933594 " fill-opacity="1" fill-rule="nonzero"/><g clip-path="url(#88f3a01651)"><path fill="#da684c" d="M 260.914062 328.304688 C 260.789062 328.679688 260.90625 328.917969 261.042969 329.152344 C 261.613281 330.15625 262.15625 331.175781 262.765625 332.15625 C 264.550781 335.023438 266.585938 337.71875 268.570312 340.449219 C 269.339844 341.503906 270.074219 341.746094 271.269531 341.40625 C 273.101562 340.890625 273.21875 340.683594 272.222656 339.140625 C 270.320312 336.191406 268.300781 333.316406 266.636719 330.21875 C 266.136719 329.28125 265.589844 328.363281 265.050781 327.441406 C 264.84375 327.089844 264.589844 326.707031 264.109375 326.910156 C 263.019531 327.367188 261.863281 327.695312 260.914062 328.304688 Z M 268.109375 342.910156 C 267.855469 342.035156 267.351562 341.414062 266.863281 340.789062 C 265.058594 338.480469 263.320312 336.136719 261.769531 333.640625 C 260.949219 332.316406 260.25 330.929688 259.429688 329.613281 C 259.160156 329.179688 258.910156 328.949219 258.371094 329.074219 C 256.96875 329.398438 255.5625 329.332031 254.148438 329.085938 C 253.25 328.929688 252.332031 328.894531 251.433594 328.808594 C 251.367188 329.125 251.480469 329.320312 251.617188 329.492188 C 252.414062 330.5 253.214844 331.503906 254.027344 332.503906 C 255.882812 334.769531 257.820312 336.964844 259.769531 339.148438 C 260.441406 339.898438 261.347656 340.539062 261.679688 341.507812 C 261.957031 342.308594 262.535156 342.589844 263.167969 342.898438 C 263.816406 343.207031 264.515625 343.410156 265.214844 343.4375 C 266.152344 343.472656 267.171875 343.75 268.109375 342.910156 Z M 243.59375 334.386719 C 244.3125 334.296875 244.761719 334.601562 245.285156 335.144531 C 246.519531 336.417969 247.996094 337.433594 249.453125 338.445312 C 250.769531 339.359375 252.125 340.214844 253.445312 341.117188 C 254.710938 341.984375 256.078125 342.570312 257.601562 342.8125 C 258.488281 342.949219 259.25 342.765625 260.039062 342.289062 C 259.757812 341.414062 259.078125 340.867188 258.546875 340.257812 C 256.671875 338.121094 254.746094 336.03125 252.964844 333.808594 C 251.605469 332.109375 250.257812 330.402344 248.921875 328.683594 C 248.585938 328.253906 248.1875 327.964844 247.679688 327.738281 C 245.527344 326.78125 243.421875 325.726562 241.40625 324.5 C 239.21875 323.171875 237.632812 321.265625 236.296875 319.144531 C 234.566406 316.398438 232.820312 313.660156 231.257812 310.8125 C 229.539062 307.683594 228.230469 304.382812 227.175781 300.980469 C 226.980469 300.34375 226.804688 299.703125 226.617188 299.0625 C 226.527344 298.980469 226.4375 298.894531 226.351562 298.8125 L 226.359375 298.828125 C 226.472656 297.96875 226.152344 297.175781 225.933594 296.375 C 225.777344 295.800781 225.789062 295.328125 226.398438 295.042969 C 227.195312 295.164062 227.273438 295.839844 227.457031 296.421875 C 228.140625 298.628906 228.757812 300.855469 229.5625 303.023438 C 230.902344 306.621094 232.585938 310.050781 234.597656 313.3125 C 235.738281 315.167969 236.941406 316.988281 238.089844 318.835938 C 239.335938 320.84375 240.960938 322.457031 243.039062 323.574219 C 244.765625 324.496094 246.503906 325.414062 248.296875 326.199219 C 250.183594 327.023438 252.21875 327.300781 254.265625 327.4375 C 255.847656 327.542969 257.4375 327.902344 258.996094 327.203125 C 260.414062 326.570312 261.871094 326.015625 263.300781 325.40625 C 265.304688 324.550781 267.292969 323.65625 269.300781 322.816406 C 270.433594 322.339844 270.765625 322.542969 271.0625 323.734375 C 269.765625 324.910156 268.160156 325.605469 266.722656 326.460938 C 266.527344 326.917969 266.816406 327.191406 266.96875 327.5 C 268.101562 329.78125 269.632812 331.808594 271.089844 333.878906 C 272.375 335.699219 273.609375 337.535156 274.347656 339.667969 C 274.789062 340.945312 274.632812 341.527344 273.453125 342.199219 C 273.183594 342.351562 272.902344 342.496094 272.609375 342.601562 C 271.761719 342.90625 270.738281 342.875 270.277344 343.878906 C 268.601562 344.613281 266.9375 345.386719 265.023438 344.976562 C 264.023438 344.761719 263.015625 344.554688 262.121094 344.035156 C 261.570312 343.714844 261.085938 343.667969 260.492188 343.945312 C 258.867188 344.707031 257.210938 344.578125 255.558594 343.992188 C 254.457031 343.609375 253.449219 343.054688 252.46875 342.433594 C 249.757812 340.71875 247.183594 338.816406 244.757812 336.71875 C 244.074219 336.125 243.242188 335.53125 243.59375 334.386719 " fill-opacity="1" fill-rule="nonzero"/></g><path fill="#f48469" d="M 170.550781 145.351562 C 172.238281 147.007812 174.054688 148.464844 176.351562 149.226562 C 178.324219 149.875 180.285156 150.539062 182.332031 150.789062 C 182.523438 151.230469 182.199219 151.40625 182 151.609375 C 180.84375 152.78125 179.675781 153.933594 178.523438 155.109375 C 178.0625 155.582031 177.636719 156.089844 177.195312 156.582031 C 176.894531 156.210938 176.472656 156.132812 176.03125 156.039062 C 173.1875 155.433594 170.375 154.707031 167.632812 153.71875 C 166.332031 153.246094 165.25 152.613281 164.664062 151.308594 C 164.636719 151.25 164.507812 151.238281 164.425781 151.203125 C 164.570312 148.054688 164.722656 144.90625 164.847656 141.753906 C 164.902344 140.46875 164.863281 139.179688 164.714844 137.898438 C 165.003906 137.886719 165.242188 138.023438 165.382812 138.253906 C 165.773438 138.902344 166.347656 139.390625 166.808594 139.972656 C 167.566406 140.929688 168.3125 141.867188 168.679688 143.105469 C 168.910156 143.878906 169.332031 144.730469 170.242188 145.078125 C 170.242188 145.078125 170.226562 145.070312 170.226562 145.070312 C 170.28125 145.222656 170.394531 145.3125 170.550781 145.351562 " fill-opacity="1" fill-rule="nonzero"/><path fill="#757633" d="M 129.546875 256.054688 C 129.273438 255.726562 129.484375 255.28125 129.261719 254.878906 C 128.957031 254.742188 128.609375 254.578125 128.257812 254.417969 C 127.832031 244.957031 128.042969 235.488281 127.972656 226.023438 C 127.960938 224.289062 128.402344 222.589844 128.277344 220.847656 C 128.234375 220.226562 128.828125 219.730469 129.367188 219.757812 C 129.863281 219.785156 130.332031 220.242188 130.382812 220.804688 C 130.417969 221.15625 130.394531 221.515625 130.394531 221.871094 C 130.394531 229.789062 130.296875 237.710938 130.445312 245.628906 C 130.503906 248.683594 130.65625 251.742188 130.65625 254.804688 C 130.65625 255.824219 130.628906 255.824219 129.546875 256.054688 " fill-opacity="1" fill-rule="nonzero"/><path fill="#d8664b" d="M 143.539062 283.410156 C 142.421875 284.066406 141.203125 283.863281 140.023438 283.757812 C 137.957031 283.574219 135.894531 283.296875 133.835938 283.039062 C 131.554688 282.746094 129.277344 282.429688 127 282.125 C 125.203125 281.890625 123.40625 281.632812 121.605469 281.4375 C 120.066406 281.269531 118.558594 280.875 117.003906 280.824219 C 116.789062 280.820312 116.582031 280.703125 116.371094 280.628906 C 116.078125 280.53125 115.953125 280.320312 115.964844 280.019531 C 115.972656 279.726562 116.109375 279.480469 116.382812 279.40625 C 116.675781 279.328125 117 279.289062 117.300781 279.320312 C 119.800781 279.617188 122.300781 279.933594 124.800781 280.25 C 127.214844 280.550781 129.625 280.855469 132.039062 281.160156 C 133.042969 281.578125 134.144531 281.5625 135.179688 281.628906 C 137.566406 281.785156 139.917969 282.324219 142.328125 282.242188 C 143.28125 282.207031 143.296875 282.28125 143.539062 283.410156 " fill-opacity="1" fill-rule="nonzero"/><path fill="#828442" d="M 226.398438 295.042969 C 225.789062 295.328125 225.777344 295.800781 225.933594 296.375 C 226.152344 297.175781 226.472656 297.96875 226.359375 298.828125 C 224.917969 298.046875 223.460938 297.292969 222.03125 296.484375 C 218.703125 294.601562 215.109375 293.71875 211.308594 293.710938 C 208.800781 293.710938 206.359375 293.191406 203.902344 292.835938 C 199.0625 292.140625 194.285156 291.121094 189.527344 289.988281 C 189.058594 289.875 188.597656 289.714844 188.132812 289.578125 C 187.867188 287.828125 187.703125 286.074219 187.574219 284.304688 C 187.355469 281.289062 187.5 278.261719 187.273438 275.261719 C 187.117188 273.21875 187.332031 271.152344 187.011719 269.15625 C 186.675781 267.035156 187.109375 264.886719 186.554688 262.800781 C 186.53125 262.71875 186.53125 262.625 186.539062 262.535156 C 186.722656 259.910156 186.253906 257.3125 186.25 254.691406 C 186.242188 251.40625 186.089844 248.117188 185.917969 244.84375 C 185.78125 242.179688 185.953125 239.511719 185.703125 236.863281 C 185.277344 232.332031 185.746094 227.789062 185.410156 223.277344 C 185.085938 218.917969 185.082031 214.558594 185.261719 210.21875 C 185.464844 205.328125 185.375 200.445312 185.46875 195.5625 C 185.472656 195.347656 185.433594 195.109375 185.742188 194.910156 C 186.785156 195.398438 187.625 196.257812 188.53125 196.988281 C 190.601562 198.648438 192.722656 200.253906 194.777344 201.929688 C 196.015625 202.941406 197.238281 203.960938 198.558594 204.855469 C 200.589844 206.234375 201.929688 205.820312 203.648438 204.546875 C 204 204.289062 204.25 203.875 204.761719 203.894531 C 205.824219 205.570312 206.332031 207.480469 206.78125 209.363281 C 209.78125 221.980469 213.089844 234.523438 216.085938 247.136719 C 217.972656 255.082031 219.515625 263.109375 221.023438 271.136719 C 222.121094 276.984375 223.46875 282.777344 224.847656 288.566406 C 225.363281 290.726562 225.882812 292.886719 226.398438 295.042969 " fill-opacity="1" fill-rule="nonzero"/><path fill="#838343" d="M 192.664062 181.933594 C 192.925781 182.125 193.1875 182.316406 193.449219 182.507812 C 193.417969 184.726562 193.554688 186.929688 193.988281 189.117188 C 194.726562 192.824219 196.847656 195.640625 199.652344 198.019531 C 200.324219 198.589844 201.066406 199.085938 201.808594 199.574219 C 202.644531 200.121094 203.285156 200.824219 203.675781 201.746094 C 203.0625 201.761719 202.777344 202.265625 202.390625 202.613281 C 201.367188 203.539062 200.671875 203.609375 199.535156 202.855469 C 197.839844 201.730469 196.347656 200.335938 194.746094 199.085938 C 192.238281 197.128906 189.695312 195.214844 187.179688 193.269531 C 186.214844 192.53125 186.125 192.515625 186.621094 191.476562 C 186.96875 190.753906 186.4375 190.414062 186.230469 189.917969 C 188.050781 186.996094 190.050781 184.214844 192.664062 181.933594 " fill-opacity="1" fill-rule="nonzero"/><path fill="#da654b" d="M 252.898438 248.535156 C 253.785156 248.507812 254.125 249.125 254.367188 249.8125 C 254.628906 250.558594 254.832031 251.324219 255.230469 252.015625 C 255.34375 253.136719 255.828125 254.148438 256.167969 255.199219 C 259.089844 264.191406 261.890625 273.214844 264.140625 282.402344 C 264.550781 284.082031 264.917969 285.765625 265.316406 287.449219 C 265.425781 287.925781 265.40625 288.375 264.898438 288.574219 C 264.34375 288.792969 263.960938 288.511719 263.730469 287.996094 C 263.214844 286.851562 263.039062 285.613281 262.792969 284.398438 C 262.058594 280.789062 261.054688 277.25 260.023438 273.714844 C 257.707031 265.789062 255.320312 257.890625 252.753906 250.042969 C 252.574219 249.484375 252.550781 249.011719 252.898438 248.535156 " fill-opacity="1" fill-rule="nonzero"/><path fill="#828442" d="M 226.351562 298.8125 C 226.4375 298.894531 226.527344 298.980469 226.617188 299.0625 C 226.480469 299.03125 226.382812 298.953125 226.351562 298.8125 " fill-opacity="1" fill-rule="nonzero"/><path fill="#13110f" d="M 184.234375 92.128906 C 183.644531 92.019531 183.292969 92.324219 182.921875 92.539062 C 182.652344 92.699219 182.421875 92.914062 182.160156 93.082031 C 181.507812 93.496094 180.984375 93.476562 180.609375 93.03125 C 180.210938 92.5625 180.300781 91.945312 180.914062 91.398438 C 181.683594 90.710938 182.5625 90.179688 183.574219 89.925781 C 185.570312 89.421875 187.457031 89.675781 189.195312 90.808594 C 190.09375 91.398438 190.703125 92.214844 190.917969 93.257812 C 191.652344 96.796875 191.261719 100.160156 189.3125 103.269531 C 188.664062 104.304688 187.839844 105.167969 186.808594 105.820312 C 183.917969 107.65625 180.746094 106.28125 180.101562 102.921875 C 179.855469 101.628906 179.929688 100.347656 180.296875 99.089844 C 180.9375 96.886719 181.992188 94.894531 183.5 93.152344 C 183.753906 92.855469 184.140625 92.65625 184.234375 92.128906 " fill-opacity="1" fill-rule="nonzero"/><path fill="#13110f" d="M 221.445312 101.609375 C 222.292969 104.464844 222.039062 107.234375 220.738281 109.910156 C 220.203125 111.003906 219.476562 111.949219 218.496094 112.6875 C 215.710938 114.773438 212.585938 113.851562 211.421875 110.589844 C 210.699219 108.554688 210.917969 106.546875 211.765625 104.605469 C 212.351562 103.261719 213.144531 102.007812 214.050781 100.855469 C 216.148438 98.1875 219.902344 97.703125 223.113281 99.601562 C 224.269531 100.285156 225.078125 101.257812 225.597656 102.476562 C 225.8125 102.980469 225.683594 103.449219 225.214844 103.765625 C 224.773438 104.0625 224.214844 103.933594 223.804688 103.433594 C 223.605469 103.199219 223.46875 102.910156 223.296875 102.652344 C 222.894531 102.046875 222.417969 101.535156 221.691406 101.324219 C 221.589844 101.246094 221.46875 101.164062 221.363281 101.285156 C 221.265625 101.402344 221.339844 101.519531 221.445312 101.609375 " fill-opacity="1" fill-rule="nonzero"/><path fill="#ec694f" d="M 223.117188 126.363281 C 219.90625 126.335938 216.445312 123.925781 215.613281 121.253906 C 215.253906 120.097656 215.535156 119.613281 216.539062 118.949219 C 217.765625 118.132812 219.015625 118.359375 220.253906 118.683594 C 222.074219 119.160156 223.777344 119.929688 225.226562 121.160156 C 226.269531 122.042969 226.589844 123.21875 226.304688 124.53125 C 226.171875 125.160156 225.753906 125.640625 225.136719 125.90625 C 224.4375 126.199219 223.730469 126.464844 223.117188 126.363281 " fill-opacity="1" fill-rule="nonzero"/><path fill="#ec694f" d="M 177.203125 115.410156 C 175.277344 115.546875 173.621094 114.882812 172.089844 113.804688 C 171.527344 113.40625 171.105469 112.917969 170.804688 112.304688 C 170.140625 110.933594 170.550781 109.574219 171.9375 108.964844 C 172.6875 108.636719 173.476562 108.476562 174.378906 108.585938 C 175.796875 108.757812 177.164062 109.082031 178.523438 109.484375 C 179.386719 109.742188 180.167969 110.136719 180.78125 110.828125 C 181.894531 112.089844 181.703125 113.65625 180.351562 114.636719 C 179.390625 115.335938 178.324219 115.492188 177.203125 115.410156 " fill-opacity="1" fill-rule="nonzero"/><path fill="#d9674a" d="M 201.253906 105.867188 C 201.066406 107.078125 200.699219 108.328125 200.027344 109.425781 C 198.730469 111.546875 197.265625 113.558594 195.542969 115.367188 C 195.234375 115.691406 194.941406 116.015625 194.699219 116.394531 C 194.0625 117.40625 194.109375 117.9375 195.058594 118.667969 C 196.085938 119.464844 197.210938 120.078125 198.535156 120.242188 C 198.929688 120.292969 199.324219 120.398438 199.691406 120.550781 C 200.074219 120.707031 200.390625 121 200.371094 121.449219 C 200.347656 121.929688 200.082031 122.273438 199.628906 122.472656 C 199.332031 122.605469 199.023438 122.636719 198.714844 122.582031 C 196.5625 122.222656 194.621094 121.378906 193.042969 119.851562 C 191.585938 118.441406 191.6875 116.460938 193.195312 114.742188 C 194.484375 113.277344 195.757812 111.800781 196.949219 110.25 C 197.941406 108.960938 198.71875 107.59375 199.152344 106.027344 C 199.210938 105.8125 199.285156 105.601562 199.367188 105.398438 C 199.660156 104.660156 200.09375 104.339844 200.628906 104.488281 C 201.328125 104.675781 201.253906 105.253906 201.253906 105.867188 " fill-opacity="1" fill-rule="nonzero"/><path fill="#31201b" d="M 186.75 80.871094 C 190.601562 81.054688 194.148438 82.449219 197.375 84.734375 C 198.066406 85.222656 198.738281 85.734375 199.53125 86.046875 C 200.644531 86.488281 201.40625 86.234375 202.015625 85.214844 C 202.199219 84.910156 202.328125 84.570312 202.523438 84.277344 C 202.796875 83.863281 203.199219 83.679688 203.675781 83.882812 C 204.144531 84.085938 204.289062 84.480469 204.21875 84.980469 C 203.929688 87.03125 201.769531 88.59375 199.71875 88.226562 C 198.546875 88.019531 197.566406 87.40625 196.609375 86.753906 C 194.914062 85.597656 193.152344 84.585938 191.191406 83.929688 C 189.664062 83.417969 188.113281 83.078125 186.5 83.027344 C 185.882812 83.007812 185.257812 82.9375 184.648438 82.820312 C 184.109375 82.71875 183.804688 82.339844 183.832031 81.769531 C 183.859375 81.1875 184.238281 80.902344 184.757812 80.792969 C 185.382812 80.660156 185.996094 80.890625 186.75 80.871094 " fill-opacity="1" fill-rule="nonzero"/><path fill="#31201b" d="M 221.738281 94.75 C 218.566406 94.808594 216.40625 92.089844 217.105469 89.140625 C 217.21875 88.660156 217.476562 88.304688 217.992188 88.289062 C 218.570312 88.265625 218.894531 88.628906 218.980469 89.175781 C 219.046875 89.613281 219.023438 90.0625 219.085938 90.503906 C 219.316406 92.144531 220.054688 92.765625 221.703125 92.65625 C 222.992188 92.574219 224.253906 92.277344 225.519531 92.035156 C 228.429688 91.480469 231.351562 91.390625 234.285156 91.828125 C 234.59375 91.871094 234.90625 91.921875 235.195312 92.023438 C 235.902344 92.269531 236.21875 92.757812 236.050781 93.320312 C 235.871094 93.929688 235.417969 94.144531 234.816406 94.09375 C 234.640625 94.078125 234.464844 94.039062 234.289062 94.011719 C 231.402344 93.53125 228.523438 93.636719 225.660156 94.199219 C 224.304688 94.46875 222.941406 94.664062 221.738281 94.75 " fill-opacity="1" fill-rule="nonzero"/><path fill="#bf5a46" d="M 204.84375 132.210938 C 202.277344 132.238281 199.632812 132.78125 197.015625 133.519531 C 194.832031 134.132812 192.648438 134.738281 190.679688 135.929688 C 190.214844 136.207031 189.761719 136.28125 189.394531 135.761719 C 189.058594 135.285156 189.160156 134.855469 189.53125 134.4375 C 190.203125 133.679688 191.09375 133.242188 192.007812 132.910156 C 195.097656 131.78125 198.210938 130.6875 201.476562 130.21875 C 203.050781 129.992188 204.644531 129.761719 206.253906 129.871094 C 206.660156 129.898438 207.046875 129.957031 207.429688 130.078125 C 207.980469 130.25 208.441406 130.539062 208.363281 131.191406 C 208.289062 131.789062 207.855469 132.152344 207.277344 132.199219 C 206.523438 132.253906 205.765625 132.210938 204.84375 132.210938 " fill-opacity="1" fill-rule="nonzero"/><path fill="#db664b" d="M 243.402344 117.121094 C 244.203125 117.273438 244.796875 117.414062 245.398438 117.5 C 245.953125 117.578125 246.390625 117.820312 246.277344 118.417969 C 246.171875 118.984375 245.617188 118.910156 245.175781 118.890625 C 244.601562 118.867188 244.03125 118.878906 243.457031 118.75 C 242.5 118.539062 242.300781 118.640625 241.964844 119.570312 C 241.683594 120.355469 241.316406 121.128906 241.335938 122.003906 C 241.34375 122.355469 241.183594 122.605469 240.796875 122.625 C 240.382812 122.644531 240.113281 122.4375 240.03125 122.039062 C 239.851562 121.128906 240.105469 120.257812 240.429688 119.441406 C 240.886719 118.285156 241.417969 117.152344 242.167969 116.152344 C 243.773438 114.023438 245.789062 113.316406 248.25 114.089844 C 248.5 114.167969 248.753906 114.277344 248.972656 114.421875 C 249.355469 114.667969 249.742188 114.980469 249.519531 115.496094 C 249.300781 116 248.839844 115.996094 248.378906 115.839844 C 248.039062 115.726562 247.710938 115.589844 247.363281 115.511719 C 245.769531 115.140625 244.519531 115.675781 243.402344 117.121094 " fill-opacity="1" fill-rule="nonzero"/><path fill="#d9674a" d="M 161.515625 88.148438 C 160.808594 88.148438 160.148438 88.152344 159.488281 88.148438 C 159.105469 88.144531 158.757812 88.0625 158.742188 87.585938 C 158.722656 87.097656 159.007812 86.863281 159.464844 86.800781 C 159.972656 86.726562 160.511719 86.871094 161.109375 86.605469 C 160.625 85.75 160.121094 85.078125 159.160156 84.894531 C 158.984375 84.863281 158.816406 84.808594 158.644531 84.761719 C 158.171875 84.636719 157.59375 84.5625 157.71875 83.878906 C 157.835938 83.230469 158.414062 83.308594 158.898438 83.296875 C 160.390625 83.261719 161.4375 84.035156 162.195312 85.214844 C 162.878906 86.277344 163.25 87.464844 163.277344 88.738281 C 163.3125 90.5625 163.417969 92.390625 162.765625 94.148438 C 162.691406 94.351562 162.683594 94.59375 162.570312 94.777344 C 162.386719 95.078125 162.152344 95.40625 161.722656 95.203125 C 161.382812 95.042969 161.140625 94.769531 161.25 94.347656 C 161.457031 93.53125 161.59375 92.703125 161.761719 91.875 C 162.007812 90.660156 161.953125 89.5 161.515625 88.148438 " fill-opacity="1" fill-rule="nonzero"/><path fill="#fab583" d="M 170.550781 145.351562 C 170.394531 145.3125 170.28125 145.222656 170.226562 145.070312 C 170.335938 145.164062 170.441406 145.257812 170.550781 145.351562 " fill-opacity="1" fill-rule="nonzero"/><path fill="#f9b382" d="M 268.109375 342.910156 C 267.171875 343.75 266.152344 343.472656 265.214844 343.4375 C 264.515625 343.410156 263.816406 343.207031 263.167969 342.898438 C 262.535156 342.589844 261.957031 342.308594 261.679688 341.507812 C 261.347656 340.539062 260.441406 339.898438 259.769531 339.148438 C 257.820312 336.964844 255.882812 334.769531 254.027344 332.503906 C 253.214844 331.503906 252.414062 330.5 251.617188 329.492188 C 251.480469 329.320312 251.367188 329.125 251.433594 328.808594 C 252.332031 328.894531 253.25 328.929688 254.148438 329.085938 C 255.5625 329.332031 256.96875 329.398438 258.371094 329.074219 C 258.910156 328.949219 259.160156 329.179688 259.429688 329.613281 C 260.25 330.929688 260.949219 332.316406 261.769531 333.640625 C 263.320312 336.136719 265.058594 338.480469 266.863281 340.789062 C 267.351562 341.414062 267.855469 342.035156 268.109375 342.910156 " fill-opacity="1" fill-rule="nonzero"/><path fill="#f9b382" d="M 260.914062 328.304688 C 261.863281 327.695312 263.019531 327.367188 264.109375 326.910156 C 264.589844 326.707031 264.84375 327.089844 265.050781 327.441406 C 265.589844 328.363281 266.136719 329.28125 266.636719 330.21875 C 268.300781 333.316406 270.320312 336.191406 272.222656 339.140625 C 273.21875 340.683594 273.101562 340.890625 271.269531 341.40625 C 270.074219 341.746094 269.339844 341.503906 268.570312 340.449219 C 266.585938 337.71875 264.550781 335.023438 262.765625 332.15625 C 262.15625 331.175781 261.613281 330.15625 261.042969 329.152344 C 260.90625 328.917969 260.789062 328.679688 260.914062 328.304688 " fill-opacity="1" fill-rule="nonzero"/><path fill="#fab583" d="M 221.445312 101.609375 C 221.339844 101.519531 221.265625 101.402344 221.363281 101.285156 C 221.46875 101.164062 221.589844 101.246094 221.691406 101.324219 C 221.609375 101.417969 221.527344 101.511719 221.445312 101.609375 " fill-opacity="1" fill-rule="nonzero"/><path fill="#12110f" d="M 145.605469 49.921875 C 145.59375 54.003906 144.035156 57.496094 141.5 60.609375 C 140.453125 61.902344 139.257812 63.054688 138.03125 64.167969 C 135.863281 66.136719 135.046875 68.542969 135.480469 71.410156 C 135.539062 71.796875 135.566406 72.1875 135.566406 72.578125 C 135.558594 73.9375 134.847656 74.902344 133.765625 75.058594 C 132.617188 75.222656 131.570312 74.445312 131.304688 73.0625 C 131.101562 72.015625 131.015625 70.929688 131.023438 69.863281 C 131.042969 66.988281 131.886719 64.386719 133.898438 62.253906 C 134.765625 61.332031 135.667969 60.441406 136.570312 59.550781 C 137.785156 58.34375 138.890625 57.058594 139.730469 55.550781 C 142.144531 51.191406 141.585938 46.144531 138.546875 42.601562 C 135.851562 39.464844 130.105469 39.902344 128.15625 42.660156 C 127.679688 43.332031 127.125 43.960938 126.566406 44.570312 C 125.726562 45.480469 124.667969 45.605469 123.832031 44.945312 C 123.042969 44.328125 122.875 43.308594 123.476562 42.320312 C 125.929688 38.277344 129.347656 35.882812 134.265625 36.085938 C 136.808594 36.1875 138.996094 37.128906 140.867188 38.832031 C 143.925781 41.613281 145.609375 45.566406 145.605469 49.921875 " fill-opacity="1" fill-rule="nonzero"/><path fill="#131211" d="M 121.535156 77.335938 C 121.492188 79.605469 120.890625 81.761719 120.191406 83.898438 C 119.710938 85.378906 119.136719 86.828125 118.824219 88.367188 C 118.40625 90.40625 118.8125 92.238281 120.011719 93.90625 C 120.523438 94.617188 121.109375 95.277344 121.636719 95.980469 C 122.28125 96.84375 122.277344 97.636719 121.65625 98.207031 C 121.054688 98.761719 120.152344 98.714844 119.433594 97.988281 C 116.3125 94.820312 114.765625 91.167969 116.101562 86.6875 C 116.558594 85.148438 117.128906 83.644531 117.585938 82.101562 C 118.222656 79.949219 118.847656 77.789062 118.328125 75.496094 C 117.886719 73.558594 116.863281 72 115.292969 70.808594 C 114.097656 69.902344 112.726562 69.636719 111.269531 69.90625 C 108.566406 70.40625 106.523438 71.652344 106.0625 74.640625 C 105.996094 75.070312 105.863281 75.503906 105.671875 75.890625 C 105.351562 76.527344 104.703125 76.773438 104.070312 76.5625 C 103.417969 76.34375 103.085938 75.808594 103.183594 75.203125 C 103.636719 72.464844 104.316406 69.828125 107.046875 68.351562 C 110.136719 66.675781 113.28125 66.023438 116.480469 67.984375 C 118.964844 69.503906 120.496094 71.777344 121.234375 74.582031 C 121.472656 75.480469 121.578125 76.402344 121.535156 77.335938 " fill-opacity="1" fill-rule="nonzero"/><path fill="#161413" d="M 135.941406 81.265625 C 135.960938 82.335938 135.085938 83.230469 134.035156 83.207031 C 133.050781 83.191406 132.179688 82.328125 132.15625 81.347656 C 132.128906 80.308594 133.035156 79.414062 134.097656 79.425781 C 135.128906 79.441406 135.921875 80.230469 135.941406 81.265625 " fill-opacity="1" fill-rule="nonzero"/><path fill="#181615" d="M 122.808594 104.121094 C 121.871094 104.117188 121.03125 103.328125 121.074219 102.503906 C 121.113281 101.796875 121.722656 101.246094 122.445312 101.261719 C 123.351562 101.277344 124.222656 102.105469 124.179688 102.902344 C 124.140625 103.621094 123.574219 104.128906 122.808594 104.121094 " fill-opacity="1" fill-rule="nonzero"/></svg>